<svg width="32" height="32" viewBox="0 0 32 32" fill="none" xmlns="http://www.w3.org/2000/svg">
<path d="M16 32C24.8366 32 32 24.8366 32 16C32 7.16344 24.8366 0 16 0C7.16344 0 0 7.16344 0 16C0 24.8366 7.16344 32 16 32Z" fill="#EAB14D"/>
<path d="M15.9991 0C15.7135 0 15.4296 0.0078125 15.1477 0.0225625C23.5885 0.465187 30.2964 7.44906 30.2964 16C30.2964 24.5509 23.5885 31.5348 15.1477 31.9774C15.4296 31.9922 15.7135 32 15.9991 32C24.8356 32 31.9991 24.8366 31.9991 16C31.9991 7.16344 24.8356 0 15.9991 0Z" fill="#E49542"/>
<path d="M15.9994 28.4674C22.8853 28.4674 28.4674 22.8853 28.4674 15.9994C28.4674 9.11358 22.8853 3.53149 15.9994 3.53149C9.11358 3.53149 3.53149 9.11358 3.53149 15.9994C3.53149 22.8853 9.11358 28.4674 15.9994 28.4674Z" fill="#F4FBFF"/>
<path d="M15.9994 3.53149C15.6541 3.53149 15.3123 3.54618 14.9741 3.57368C21.3803 4.09518 26.4168 9.45887 26.4168 15.9994C26.4168 22.54 21.3803 27.9036 14.9741 28.4252C15.3123 28.4527 15.6541 28.4674 15.9994 28.4674C22.8853 28.4674 28.4674 22.8853 28.4674 15.9995C28.4674 9.11368 22.8853 3.53149 15.9994 3.53149Z" fill="#DAF1F4"/>
<path d="M16.0004 7.36932C15.7338 7.36932 15.5176 7.15314 15.5176 6.88645V6.1777C15.5176 5.91101 15.7338 5.69482 16.0004 5.69482C16.2671 5.69482 16.4834 5.91101 16.4834 6.1777V6.88645C16.4834 7.15314 16.2671 7.36932 16.0004 7.36932Z" fill="#2B4D66"/>
<path d="M22.4172 10.0502C22.2936 10.0502 22.1701 10.003 22.0757 9.90876C21.8872 9.72014 21.8872 9.41445 22.0758 9.22582L22.577 8.7247C22.7656 8.53607 23.0713 8.53613 23.2599 8.7247C23.4485 8.91332 23.4485 9.21901 23.2599 9.40764L22.7587 9.90882C22.6644 10.003 22.5408 10.0502 22.4172 10.0502Z" fill="#2B4D66"/>
<path d="M25.7695 16.4826H25.0608C24.794 16.4826 24.5779 16.2664 24.5779 15.9997C24.5779 15.733 24.7941 15.5168 25.0608 15.5168H25.7695C26.0363 15.5168 26.2524 15.733 26.2524 15.9997C26.2524 16.2664 26.0362 16.4826 25.7695 16.4826Z" fill="#2B4D66"/>
<path d="M22.8817 23.4013C22.7582 23.4013 22.6346 23.3541 22.5402 23.2598L22.0391 22.7587C21.8506 22.5701 21.8506 22.2644 22.0391 22.0757C22.2277 21.8872 22.5334 21.8872 22.7221 22.0757L23.2232 22.5768C23.4118 22.7655 23.4118 23.0711 23.2232 23.2598C23.1289 23.3541 23.0053 23.4013 22.8817 23.4013Z" fill="#2B4D66"/>
<path d="M15.9477 26.2519C15.681 26.2519 15.4648 26.0357 15.4648 25.769V25.0603C15.4648 24.7935 15.681 24.5774 15.9477 24.5774C16.2144 24.5774 16.4306 24.7936 16.4306 25.0603V25.769C16.4306 26.0357 16.2144 26.2519 15.9477 26.2519Z" fill="#2B4D66"/>
<path d="M9.02756 23.3654C8.904 23.3654 8.78037 23.3182 8.68612 23.2239C8.4975 23.0353 8.49756 22.7296 8.68612 22.541L9.18731 22.0398C9.37593 21.8513 9.68162 21.8513 9.87025 22.0399C10.0588 22.2285 10.0588 22.5342 9.87018 22.7228L9.369 23.224C9.27475 23.3183 9.15112 23.3654 9.02756 23.3654Z" fill="#2B4D66"/>
<path d="M6.88621 16.4309H6.17746C5.91077 16.4309 5.69458 16.2147 5.69458 15.948C5.69458 15.6813 5.91077 15.4651 6.17746 15.4651H6.88621C7.15289 15.4651 7.36908 15.6813 7.36908 15.948C7.36914 16.2147 7.15289 16.4309 6.88621 16.4309Z" fill="#2B4D66"/>
<path d="M9.56611 10.0116C9.44255 10.0116 9.31899 9.96451 9.22467 9.8702L8.72348 9.36907C8.53492 9.18044 8.53486 8.87476 8.72342 8.68613C8.91205 8.49757 9.21773 8.49751 9.40636 8.68607L9.90755 9.18726C10.0961 9.37582 10.0962 9.68157 9.90761 9.8702C9.81324 9.96445 9.68967 10.0116 9.56611 10.0116Z" fill="#2B4D66"/>
<path d="M15.9997 16.4821H11.8984C11.6317 16.4821 11.4155 16.2659 11.4155 15.9992C11.4155 15.7325 11.6317 15.5163 11.8984 15.5163H15.5167V9.37277C15.5167 9.10608 15.7329 8.88989 15.9996 8.88989C16.2663 8.88989 16.4825 9.10608 16.4825 9.37277V15.9992C16.4825 16.2659 16.2664 16.4821 15.9997 16.4821Z" fill="#2B4D66"/>
<path d="M20.9549 19.0301C20.8805 19.0301 20.8052 19.0129 20.7345 18.9765L15.78 16.4288C15.5428 16.3069 15.4494 16.0157 15.5714 15.7786C15.6933 15.5414 15.9844 15.4479 16.2217 15.5699L21.1762 18.1176C21.4134 18.2396 21.5068 18.5307 21.3848 18.7679C21.2991 18.9344 21.1301 19.0301 20.9549 19.0301Z" fill="#DA4A54"/>
<path d="M15.9991 17.2879C16.7109 17.2879 17.2879 16.7109 17.2879 15.9991C17.2879 15.2873 16.7109 14.7102 15.9991 14.7102C15.2873 14.7102 14.7102 15.2873 14.7102 15.9991C14.7102 16.7109 15.2873 17.2879 15.9991 17.2879Z" fill="#365E7D"/>
</svg>
