<svg width="24" height="24" viewBox="0 0 24 24" fill="none" xmlns="http://www.w3.org/2000/svg">
<path fill-rule="evenodd" clip-rule="evenodd" d="M8.87519 7.12497C8.87519 5.40184 10.277 4 12.0001 4C13.7232 4 15.1251 5.40187 15.1251 7.12497C15.1251 8.29373 14.48 9.31454 13.5273 9.85047C13.0754 10.1046 12.5545 10.2499 12.0001 10.2499C11.4458 10.2499 10.9248 10.1046 10.473 9.85047C9.52028 9.31454 8.87519 8.29376 8.87519 7.12497ZM13.5911 10.8898H10.4087C8.97589 10.8898 7.81024 12.0555 7.81024 13.4883V18.7495C7.81024 19.0365 8.0429 19.2692 8.32992 19.2692H15.6699C15.9569 19.2692 16.1895 19.0365 16.1895 18.7495V13.4883C16.1895 12.0555 15.0239 10.8898 13.5911 10.8898ZM6.9905 12.2435C6.84861 12.632 6.77109 13.0512 6.77109 13.4882V18.7494C6.77109 18.9316 6.8028 19.1065 6.86049 19.2692H4.55906C3.69937 19.2692 3 18.5698 3 17.7101V14.842C3 13.4092 4.16566 12.2435 5.59843 12.2435H6.9905ZM17.0096 12.2435H18.4016C19.8344 12.2435 21 13.4092 21 14.8419V17.7101C21 18.5697 20.3006 19.2691 19.441 19.2691H17.1396C17.1973 19.1065 17.229 18.9316 17.229 18.7494V13.4882C17.229 13.0513 17.1515 12.632 17.0096 12.2435ZM6.51296 6.91269C5.22429 6.91269 4.17592 7.96107 4.17592 9.24974C4.17592 10.5384 5.22429 11.5868 6.51296 11.5868C6.83985 11.5868 7.15112 11.5191 7.43389 11.3974C7.92278 11.1869 8.32589 10.8143 8.57532 10.3476C8.7504 10.02 8.85 9.64634 8.85 9.24974C8.85 7.9611 7.80163 6.91269 6.51296 6.91269ZM15.1503 9.24974C15.1503 7.96107 16.1987 6.91269 17.4873 6.91269C18.776 6.91269 19.8244 7.96107 19.8244 9.24974C19.8244 10.5384 18.776 11.5868 17.4873 11.5868C17.1604 11.5868 16.8492 11.5191 16.5664 11.3974C16.0775 11.1869 15.6744 10.8143 15.425 10.3476C15.2499 10.0201 15.1503 9.64637 15.1503 9.24974Z" fill="#2B4798"/>
</svg>
