<svg width="16" height="16" viewBox="0 0 16 16" fill="none" xmlns="http://www.w3.org/2000/svg">
<path fill-rule="evenodd" clip-rule="evenodd" d="M13.3333 7.99992C13.3333 5.05992 10.9399 2.66659 7.99992 2.66659C5.05992 2.66659 2.66659 5.05992 2.66659 7.99992C2.66659 10.9399 5.05992 13.3333 7.99992 13.3333C10.9399 13.3333 13.3333 10.9399 13.3333 7.99992ZM1.33325 7.99992C1.33325 4.31992 4.31992 1.33325 7.99992 1.33325C11.6799 1.33325 14.6666 4.31992 14.6666 7.99992C14.6666 11.6799 11.6799 14.6666 7.99992 14.6666C4.31992 14.6666 1.33325 11.6799 1.33325 7.99992ZM8.0029 8.38736L5.68821 6.07267C5.45555 5.84001 5.07374 5.84597 4.84108 6.07267C4.60842 6.30533 4.60842 6.68117 4.84108 6.91383L7.57934 9.65209C7.812 9.88475 8.18784 9.88475 8.4205 9.65209L11.1588 6.91383C11.3914 6.68117 11.3914 6.30533 11.1588 6.07267C10.9261 5.84001 10.5503 5.84001 10.3176 6.07267L8.0029 8.38736Z" fill="#2B4798"/>
</svg>
