<svg width="42" height="42" viewBox="0 0 42 42" fill="none" xmlns="http://www.w3.org/2000/svg">
<circle cx="21" cy="21" r="20" stroke="#45FEDF" stroke-width="2"/>
<path d="M28.6156 13H13.3849C13.0178 13.0005 12.6659 13.1465 12.4063 13.4061C12.1468 13.6656 12.0007 14.0175 12.0003 14.3846V28.1287C11.9988 28.3928 12.0735 28.6517 12.2155 28.8744C12.3575 29.0971 12.5607 29.2741 12.8007 29.3841C12.9849 29.4702 13.1857 29.515 13.3889 29.5153C13.7139 29.5148 14.0282 29.3991 14.276 29.1888L17.0235 26.8786L28.6156 26.8461C28.9827 26.8457 29.3346 26.6996 29.5942 26.4401C29.8537 26.1805 29.9998 25.8286 30.0002 25.4615V14.3846C29.9998 14.0175 29.8537 13.6656 29.5942 13.4061C29.3346 13.1465 28.9827 13.0005 28.6156 13ZM23.7695 22H18.231C18.0474 22 17.8713 21.9271 17.7415 21.7972C17.6117 21.6674 17.5387 21.4913 17.5387 21.3077C17.5387 21.1241 17.6117 20.948 17.7415 20.8181C17.8713 20.6883 18.0474 20.6154 18.231 20.6154H23.7695C23.9531 20.6154 24.1292 20.6883 24.259 20.8181C24.3889 20.948 24.4618 21.1241 24.4618 21.3077C24.4618 21.4913 24.3889 21.6674 24.259 21.7972C24.1292 21.9271 23.9531 22 23.7695 22ZM23.7695 19.2308H18.231C18.0474 19.2308 17.8713 19.1578 17.7415 19.028C17.6117 18.8982 17.5387 18.7221 17.5387 18.5385C17.5387 18.3548 17.6117 18.1788 17.7415 18.0489C17.8713 17.9191 18.0474 17.8461 18.231 17.8461H23.7695C23.9531 17.8461 24.1292 17.9191 24.259 18.0489C24.3889 18.1788 24.4618 18.3548 24.4618 18.5385C24.4618 18.7221 24.3889 18.8982 24.259 19.028C24.1292 19.1578 23.9531 19.2308 23.7695 19.2308Z" fill="#45FEDF"/>
</svg>
