<svg width="32" height="32" viewBox="0 0 32 32" fill="none" xmlns="http://www.w3.org/2000/svg">
<g clip-path="url(#clip0)">
<path d="M16.2711 17.3551C19.8656 17.3551 22.7796 14.4412 22.7796 10.8466C22.7796 7.25209 19.8656 4.33813 16.2711 4.33813C12.6765 4.33813 9.76257 7.25209 9.76257 10.8466C9.76257 14.4412 12.6765 17.3551 16.2711 17.3551Z" fill="#F9B44D"/>
<path d="M16.2721 15.1865C18.6684 15.1865 20.611 13.2439 20.611 10.8475C20.611 8.45118 18.6684 6.50854 16.2721 6.50854C13.8757 6.50854 11.9331 8.45118 11.9331 10.8475C11.9331 13.2439 13.8757 15.1865 16.2721 15.1865Z" fill="#FA982F"/>
<path d="M20.0688 10.8479C20.0667 12.9437 18.368 14.6423 16.2722 14.6445V15.7293C18.9667 15.726 21.1503 13.5424 21.1536 10.8479H20.0688Z" fill="#F77219"/>
<path d="M16.2718 5.96704C13.5773 5.97029 11.3937 8.15392 11.3904 10.8484H12.4752C12.4774 8.75267 14.1761 7.05398 16.2718 7.05179V5.96704Z" fill="#F77219"/>
<path d="M20.6109 2.1687H19.5262V8.6772H20.6109V2.1687Z" fill="#87CED9"/>
<path d="M20.6109 0H19.5262V1.08475H20.6109V0Z" fill="#87CED9"/>
<path d="M15.7291 0H14.6443V4.339H15.7291V0Z" fill="#87CED9"/>
<path d="M13.5586 3.25391H12.4739V4.88103H13.5586V3.25391Z" fill="#87CED9"/>
<path d="M13.5586 1.08521H12.4739V2.16995H13.5586V1.08521Z" fill="#87CED9"/>
<path d="M22.7795 3.79663H21.6948V8.13563H22.7795V3.79663Z" fill="#87CED9"/>
<path d="M10.8473 2.1687H9.76257V8.13483H10.8473V2.1687Z" fill="#87CED9"/>
<path d="M26.5764 5.96693C26.3909 4.85449 25.5194 3.98293 24.4069 3.79743C25.5193 3.61193 26.3909 2.74037 26.5764 1.62793C26.7619 2.74037 27.6335 3.61193 28.7459 3.79743C27.6335 3.98293 26.7619 4.85449 26.5764 5.96693Z" fill="#F9B44D"/>
<path d="M22.7802 26.5765H20.8818C21.9303 26.5765 22.7802 25.7266 22.7802 24.6782C22.7802 23.6297 21.9303 22.7799 20.8818 22.7799H14.6445C12.4598 20.907 9.23597 20.907 7.05128 22.7799V32.0002H20.9241C21.7805 32.0002 22.6179 31.7464 23.3306 31.2713L31.2287 26.0059C31.7108 25.6849 32.0005 25.1435 32.0005 24.5643V24.5155C32.0021 23.5587 31.2282 22.7815 30.2714 22.7799C30.2703 22.7799 30.2687 22.7799 30.2676 22.7799C29.9807 22.7799 29.6987 22.8509 29.4465 22.987L22.7802 26.5765Z" fill="#FFDDCE"/>
<path d="M7.05088 22.78H0V32.0003H7.05088V22.78Z" fill="#405593"/>
<path d="M3.79604 29.8304C4.39513 29.8304 4.88079 29.3447 4.88079 28.7456C4.88079 28.1465 4.39513 27.6609 3.79604 27.6609C3.19695 27.6609 2.71129 28.1465 2.71129 28.7456C2.71129 29.3447 3.19695 29.8304 3.79604 29.8304Z" fill="#5773C7"/>
<path d="M20.8817 27.1177H15.1867C14.8873 27.1177 14.6443 26.8747 14.6443 26.5753C14.6443 26.276 14.8873 26.033 15.1867 26.033H20.8817C21.181 26.033 21.424 26.276 21.424 26.5753C21.424 26.8747 21.181 27.1177 20.8817 27.1177Z" fill="#FFCBBE"/>
</g>
<defs>
<clipPath id="clip0">
<rect width="32" height="32" fill="white"/>
</clipPath>
</defs>
</svg>
