<svg width="30" height="29" viewBox="0 0 30 29" fill="none" xmlns="http://www.w3.org/2000/svg">
<path d="M27.7499 10.0667L19.6832 9.36667L16.5332 1.95C15.9665 0.6 14.0332 0.6 13.4665 1.95L10.3165 9.38333L2.26654 10.0667C0.799877 10.1833 0.199877 12.0167 1.31654 12.9833L7.43321 18.2833L5.59988 26.15C5.26654 27.5833 6.81654 28.7167 8.08321 27.95L14.9999 23.7833L21.9165 27.9667C23.1832 28.7333 24.7332 27.6 24.3999 26.1667L22.5665 18.2833L28.6832 12.9833C29.7999 12.0167 29.2165 10.1833 27.7499 10.0667ZM14.9999 20.6667L8.73321 24.45L10.3999 17.3167L4.86654 12.5167L12.1665 11.8833L14.9999 5.16667L17.8499 11.9L25.1499 12.5333L19.6165 17.3333L21.2832 24.4667L14.9999 20.6667Z" fill="#B8BBC3"/>
</svg>
