<svg width="16" height="16" viewBox="0 0 16 16" fill="none" xmlns="http://www.w3.org/2000/svg">
<path fill-rule="evenodd" clip-rule="evenodd" d="M11.3334 4.66659V5.99992C11.8638 5.99992 12.3726 6.21063 12.7476 6.5857C13.1227 6.96078 13.3334 7.46949 13.3334 7.99992V12.6666C13.3334 13.197 13.1227 13.7057 12.7476 14.0808C12.3726 14.4559 11.8638 14.6666 11.3334 14.6666H4.66675C4.13631 14.6666 3.62761 14.4559 3.25253 14.0808C2.87746 13.7057 2.66675 13.197 2.66675 12.6666V7.99992C2.66675 7.46949 2.87746 6.96078 3.25253 6.5857C3.62761 6.21063 4.13631 5.99992 4.66675 5.99992V4.66659C4.66675 3.78253 5.01794 2.93468 5.64306 2.30956C6.26818 1.68444 7.11603 1.33325 8.00008 1.33325C8.88414 1.33325 9.73198 1.68444 10.3571 2.30956C10.9822 2.93468 11.3334 3.78253 11.3334 4.66659ZM6.58587 3.25237C6.21079 3.62744 6.00008 4.13615 6.00008 4.66659V5.99992H10.0001V4.66659C10.0001 4.13615 9.78937 3.62744 9.41429 3.25237C9.03922 2.8773 8.53051 2.66659 8.00008 2.66659C7.46965 2.66659 6.96094 2.8773 6.58587 3.25237ZM7.42881 8.83811C7.59673 8.72406 7.79555 8.6642 7.99852 8.66657C8.20148 8.6642 8.40031 8.72406 8.56822 8.83811C8.73614 8.95215 8.86508 9.1149 8.93771 9.30444C9.01033 9.49399 9.02314 9.70123 8.97442 9.89828C8.92569 10.0953 8.81777 10.2727 8.66518 10.4066V11.3332C8.66518 11.51 8.59494 11.6796 8.46992 11.8046C8.3449 11.9297 8.17533 11.9999 7.99852 11.9999C7.8217 11.9999 7.65214 11.9297 7.52711 11.8046C7.40209 11.6796 7.33185 11.51 7.33185 11.3332V10.4066C7.17926 10.2727 7.07134 10.0953 7.02261 9.89828C6.97389 9.70123 6.9867 9.49399 7.05932 9.30444C7.13195 9.1149 7.26089 8.95215 7.42881 8.83811Z" fill="white"/>
</svg>
