<svg width="24" height="24" viewBox="0 0 24 24" fill="none" xmlns="http://www.w3.org/2000/svg">
<path fill-rule="evenodd" clip-rule="evenodd" d="M4.8 3C3.80589 3 3 3.80589 3 4.8V19.2C3 20.1941 3.80589 21 4.8 21H19.2C20.1941 21 21 20.1941 21 19.2V4.8C21 3.80589 20.1941 3 19.2 3H4.8ZM16.7056 10.6212C17.1371 10.2094 17.153 9.52577 16.7412 9.09431C16.3293 8.66285 15.6457 8.64695 15.2142 9.05879L10.6799 13.387L8.78566 11.5788C8.3542 11.167 7.67057 11.1828 7.25872 11.6143C6.84687 12.0458 6.86276 12.7294 7.29422 13.1412L9.93419 15.6612C10.3515 16.0596 11.0083 16.0596 11.4256 15.6612L16.7056 10.6212Z" fill="#78C6C2"/>
</svg>
