<svg width="24" height="24" viewBox="0 0 24 24" fill="none" xmlns="http://www.w3.org/2000/svg">
<path fill-rule="evenodd" clip-rule="evenodd" d="M19.6512 11.9999C19.6512 12.2428 19.7396 12.4774 19.8999 12.6599L21.2499 14.0999C21.3909 14.2572 21.4785 14.4552 21.5001 14.6654C21.5216 14.8756 21.4761 15.0872 21.3699 15.2699L19.3699 18.7299C19.2648 18.9124 19.1048 19.057 18.9126 19.1432C18.7205 19.2294 18.5061 19.2527 18.2999 19.2099L16.4199 18.8299C16.1807 18.7805 15.9316 18.8203 15.7198 18.9419C15.5079 19.0635 15.3479 19.2584 15.2699 19.4899L14.6599 21.3199C14.5928 21.5185 14.465 21.691 14.2945 21.8131C14.1241 21.9351 13.9195 22.0004 13.7099 21.9999H9.7099C9.49183 22.0113 9.27603 21.951 9.09546 21.8282C8.91489 21.7054 8.77948 21.5269 8.7099 21.3199L8.0999 19.4899C8.0219 19.2584 7.86187 19.0635 7.65001 18.9419C7.43815 18.8203 7.18911 18.7805 6.9499 18.8299L5.0699 19.2099C4.86372 19.2527 4.64928 19.2294 4.45715 19.1432C4.26502 19.057 4.10499 18.9124 3.9999 18.7299L1.9999 15.2699C1.89106 15.0892 1.84212 14.8788 1.86008 14.6687C1.87804 14.4585 1.96198 14.2595 2.0999 14.0999L3.3699 12.6599C3.53022 12.4774 3.61863 12.2428 3.61863 11.9999C3.61863 11.757 3.53022 11.5224 3.3699 11.3399L2.0999 9.89989C1.96198 9.74034 1.87804 9.54126 1.86008 9.33112C1.84212 9.12098 1.89106 8.91054 1.9999 8.72989L3.9999 5.2699C4.1006 5.10012 4.24929 4.96395 4.42724 4.87853C4.6052 4.79312 4.80445 4.76228 4.9999 4.7899L6.9299 5.1699C7.16911 5.21932 7.41815 5.17948 7.63001 5.0579C7.84187 4.93631 8.0019 4.74138 8.0799 4.5099L8.6399 2.6799C8.70948 2.47291 8.84489 2.2944 9.02546 2.17161C9.20603 2.04882 9.42183 1.98851 9.6399 1.9999H13.6399C13.8495 1.99935 14.0541 2.06471 14.2245 2.18674C14.395 2.30876 14.5228 2.48127 14.5899 2.6799L15.1999 4.5099C15.2779 4.74138 15.4379 4.93631 15.6498 5.0579C15.8616 5.17948 16.1107 5.21932 16.3499 5.1699L18.2299 4.7899C18.4361 4.74705 18.6505 4.77039 18.8426 4.85658C19.0348 4.94277 19.1948 5.08742 19.2999 5.2699L21.2999 8.72989C21.4061 8.91258 21.4516 9.12421 21.4301 9.3344C21.4085 9.5446 21.3209 9.74256 21.1799 9.89989L19.8999 11.3399C19.7396 11.5224 19.6512 11.757 19.6512 11.9999ZM9.41786 8.674C10.0757 8.23447 10.849 7.99988 11.6401 7.99988C12.701 7.99988 13.7184 8.42131 14.4686 9.17145C15.2187 9.9216 15.6401 10.939 15.6401 11.9999C15.6401 12.791 15.4055 13.5644 14.966 14.2222C14.5265 14.88 13.9018 15.3926 13.1709 15.6954C12.44 15.9981 11.6357 16.0774 10.8598 15.923C10.0839 15.7687 9.37112 15.3877 8.81171 14.8283C8.2523 14.2689 7.87134 13.5562 7.717 12.7802C7.56266 12.0043 7.64187 11.2 7.94462 10.4691C8.24737 9.73824 8.76006 9.11353 9.41786 8.674ZM10.529 13.6628C10.8579 13.8826 11.2446 13.9999 11.6401 13.9999C12.1706 13.9999 12.6793 13.7892 13.0544 13.4141C13.4294 13.039 13.6401 12.5303 13.6401 11.9999C13.6401 11.6043 13.5228 11.2176 13.3031 10.8887C13.0833 10.5598 12.771 10.3035 12.4055 10.1521C12.0401 10.0007 11.6379 9.96114 11.25 10.0383C10.862 10.1155 10.5056 10.306 10.2259 10.5857C9.94622 10.8654 9.75574 11.2217 9.67857 11.6097C9.6014 11.9977 9.641 12.3998 9.79238 12.7652C9.94376 13.1307 10.2001 13.4431 10.529 13.6628Z" fill="#45FEDF"/>
</svg>
