<svg width="64" height="64" viewBox="0 0 64 64" fill="none" xmlns="http://www.w3.org/2000/svg">
<g clip-path="url(#clip0)">
<path d="M52.8313 28.2205V59.3407C52.8313 61.9139 50.7453 63.9998 48.1722 63.9998H9.89643C7.32318 63.9998 5.2373 61.9138 5.2373 59.3407V10.5903C5.2373 8.0164 7.3238 5.93115 9.89643 5.93115H30.5413L52.8313 28.2205Z" fill="#BECDFB"/>
<path d="M15.8271 58.0687C13.2538 58.0687 11.168 55.9827 11.168 53.4096V4.65912C11.1678 2.08525 13.2543 0 15.8271 0H36.4718C40.0212 0 58.7618 18.7405 58.7618 22.2895V53.4096C58.7618 55.9829 56.6758 58.0687 54.1027 58.0687H15.8271Z" fill="#DDE5FB"/>
<path d="M58.7627 22.2899V24.2607C58.7627 20.1114 55.398 16.7466 51.2486 16.7466H46.6752C44.1026 16.7466 42.0161 14.6601 42.0161 12.0875V7.51412C42.0161 3.36475 38.6513 0 34.502 0H36.4728C40.0216 0 43.4262 1.41 45.9355 3.91937L54.8435 12.8274C57.3526 15.3366 58.7627 18.7411 58.7627 22.2899Z" fill="#BECDFB"/>
<path d="M30.3261 35.5706V49.1925C30.3261 49.7801 30.8024 50.2565 31.3901 50.2565H38.5393C39.1269 50.2565 39.6033 49.7801 39.6033 49.1925V35.5706H42.6427C43.5906 35.5706 44.0653 34.4246 43.3951 33.7544L36.6037 26.963C35.6986 26.0579 34.2309 26.0579 33.3258 26.963L26.5344 33.7544C25.8642 34.4246 26.3389 35.5706 27.2868 35.5706H30.3261Z" fill="#809FFB"/>
<path d="M26.674 23.2247H43.2559C44.4011 23.2247 45.3293 22.2965 45.3293 21.1514V21.0944C45.3293 19.9492 44.4011 19.021 43.2559 19.021H26.674C25.5288 19.021 24.6006 19.9492 24.6006 21.0944V21.1514C24.6006 22.2964 25.5288 23.2247 26.674 23.2247Z" fill="#809FFB"/>
</g>
<defs>
<clipPath id="clip0">
<rect width="64" height="64" fill="white"/>
</clipPath>
</defs>
</svg>
