<svg width="32" height="32" viewBox="0 0 32 32" fill="none" xmlns="http://www.w3.org/2000/svg">
<path d="M2.50002 5.26855H27.5C28.875 5.26855 30 6.39355 30 7.76858V10.7686C30 12.1436 28.875 13.2686 27.5 13.2686H2.50002C1.125 13.2685 0 12.1435 0 10.7685V7.76852C0 6.39355 1.125 5.26855 2.50002 5.26855Z" fill="#A86A3F"/>
<path d="M7.97574 7.9435L23.6258 3.79352C24.1508 3.64353 24.7007 3.96853 24.8507 4.49354L27.4507 14.0935C27.6007 14.6186 27.2757 15.1685 26.7507 15.3185L6.37575 20.7435C5.85073 20.8935 5.30077 20.5685 5.15078 20.0435L3.25073 12.9935L7.97574 7.9435Z" fill="#3DB39E"/>
<path d="M24.7239 13.7934L21.3489 14.6934C21.074 14.7684 20.7989 14.6184 20.749 14.3434C20.6739 14.0684 20.824 13.7934 21.099 13.7434L23.999 12.9684L22.449 7.16844L19.549 7.94343C19.274 8.01846 18.999 7.8684 18.949 7.59342C18.874 7.31844 19.024 7.04339 19.299 6.99344L22.674 6.09347C22.949 6.01844 23.224 6.1685 23.274 6.44348L25.074 13.1934C25.1489 13.4684 24.9989 13.7434 24.7239 13.7934ZM10.7239 17.5684L7.34892 18.4684C7.07394 18.5434 6.7989 18.3934 6.74894 18.1184L4.94894 11.3684C4.87391 11.0934 5.02397 10.8184 5.29895 10.7684L8.67393 9.86848C8.94891 9.79345 9.22396 9.94351 9.27391 10.2185C9.34894 10.4935 9.19888 10.7685 8.9239 10.8185L6.02391 11.5935L7.57388 17.3934L10.4739 16.6184C10.7489 16.5434 11.0239 16.6935 11.0739 16.9684C11.1489 17.2184 10.9989 17.4934 10.7239 17.5684Z" fill="#78CABB"/>
<path d="M0.200122 11.4433C4.65008 8.89326 16.6501 1.86824 16.6501 1.86824C17.1251 1.59326 17.7501 1.74326 18.0252 2.21825L23.0252 10.8182C23.3001 11.2932 23.1251 11.8932 22.6501 12.1683L4.35009 22.6682C3.8751 22.9432 3.25011 22.7932 2.97506 22.3182C2.97506 22.3182 1.57509 19.4683 0.175049 17.0682C0.175112 11.4433 0.200122 13.2933 0.200122 11.4433Z" fill="#5ABEAC"/>
<path d="M20.4752 10.5434L16.9752 4.49341C16.8252 4.24344 16.5252 4.16841 16.3002 4.31841L13.2752 6.06839C13.0253 6.21839 12.9502 6.51838 13.1002 6.7434C13.2502 6.99337 13.5502 7.0684 13.7752 6.91841L16.3752 5.41839L19.3753 10.6184L16.7753 12.1184C16.5253 12.2684 16.4503 12.5684 16.6003 12.7934C16.7503 13.0434 17.0502 13.1184 17.2753 12.9684L20.3002 11.2184C20.5252 11.0935 20.6252 10.7935 20.4752 10.5434ZM7.22521 17.6185L4.62521 19.1185L1.62518 13.9184L4.22518 12.4184C4.47515 12.2684 4.55018 11.9684 4.40019 11.7434C4.25019 11.4934 3.9502 11.4184 3.72518 11.5684L0.7002 13.3184C0.450229 13.4684 0.3752 13.7684 0.525195 13.9934L4.02517 20.0434C4.17516 20.2934 4.47515 20.3684 4.70018 20.2184L7.72515 18.4684C7.97512 18.3184 8.05015 18.0184 7.90016 17.7934C7.77517 17.5684 7.47518 17.4684 7.22521 17.6185ZM8.5002 8.79344C6.57521 9.89343 5.92521 12.3434 7.0252 14.2684C8.15019 16.1934 10.5752 16.8434 12.5002 15.7434C14.4252 14.6434 15.0752 12.1934 13.9752 10.2684C12.8502 8.3684 10.4252 7.69346 8.5002 8.79344ZM20.4752 10.5434L16.9752 4.49341C16.8252 4.24344 16.5252 4.16841 16.3002 4.31841L13.2752 6.06839C13.0253 6.21839 12.9502 6.51838 13.1002 6.7434C13.2502 6.99337 13.5502 7.0684 13.7752 6.91841L16.3752 5.41839L19.3753 10.6184L16.7753 12.1184C16.5253 12.2684 16.4503 12.5684 16.6003 12.7934C16.7503 13.0434 17.0502 13.1184 17.2753 12.9684L20.3002 11.2184C20.5252 11.0935 20.6252 10.7935 20.4752 10.5434ZM7.22521 17.6185L4.62521 19.1185L1.62518 13.9184L4.22518 12.4184C4.47515 12.2684 4.55018 11.9684 4.40019 11.7434C4.25019 11.4934 3.9502 11.4184 3.72518 11.5684L0.7002 13.3184C0.450229 13.4684 0.3752 13.7684 0.525195 13.9934L4.02517 20.0434C4.17516 20.2934 4.47515 20.3684 4.70018 20.2184L7.72515 18.4684C7.97512 18.3184 8.05015 18.0184 7.90016 17.7934C7.77517 17.5684 7.47518 17.4684 7.22521 17.6185ZM8.5002 8.79344C6.57521 9.89343 5.92521 12.3434 7.0252 14.2684C8.15019 16.1934 10.5752 16.8434 12.5002 15.7434C14.4252 14.6434 15.0752 12.1934 13.9752 10.2684C12.8502 8.3684 10.4252 7.69346 8.5002 8.79344Z" fill="#8CD2C5"/>
<path d="M28.5 30.2688H2.50002C1.125 30.2688 0 29.1438 0 27.7688V9.76882H28.5C29.8751 9.76882 31.0001 10.8938 31.0001 12.2688V27.7689C31 29.1438 29.875 30.2688 28.5 30.2688ZM2.00002 9.76882H0V7.7688C0 8.86878 0.899971 9.76882 2.00002 9.76882Z" fill="#C47E4D"/>
<path d="M30.9992 24.0187H26.9992C25.0742 24.0187 23.4993 22.4438 23.4993 20.5188C23.4993 18.5938 25.0742 17.0188 26.9992 17.0188H30.9992C31.5492 17.0188 31.9992 17.4688 31.9992 18.0188V23.0188C31.9992 23.5688 31.5492 24.0187 30.9992 24.0187Z" fill="#A86A3F"/>
<path d="M27.0003 18.5188C28.1002 18.5188 29.0003 19.4188 29.0003 20.5188C29.0003 21.6189 28.1003 22.5188 27.0003 22.5188C25.9003 22.5188 25.0002 21.6189 25.0002 20.5188C25.0002 19.4188 25.9003 18.5188 27.0003 18.5188Z" fill="#EFC75E"/>
<path d="M27.5003 22.0184C26.4003 22.0184 25.5002 21.1185 25.5002 20.0184C25.5002 19.5934 25.6252 19.1934 25.8503 18.8684C25.3252 19.2184 25.0002 19.8184 25.0002 20.5184C25.0002 21.6184 25.9002 22.5184 27.0003 22.5184C27.6753 22.5184 28.2753 22.1684 28.6503 21.6684C28.3253 21.8935 27.9252 22.0184 27.5003 22.0184Z" fill="#D7B354"/>
<path d="M28.5 29.2683H2.50002C1.125 29.2683 0 28.1433 0 26.7683V27.7683C0 29.1433 1.125 30.2683 2.50002 30.2683H28.5C29.8751 30.2683 31.0001 29.1433 31.0001 27.7683V26.7683C31 28.1433 29.875 29.2683 28.5 29.2683Z" fill="#B27245"/>
<path d="M28.5 9.76882H2.00002C0.899971 9.76882 0 8.86878 0 7.7688V8.76881C0 9.86879 0.899971 10.7688 2.00002 10.7688H28.5C29.8751 10.7688 31.0001 11.8938 31.0001 13.2689V12.2688C31 10.8938 29.875 9.76882 28.5 9.76882Z" fill="#CA8B5F"/>
</svg>
