<svg width="12" height="12" viewBox="0 0 12 12" fill="none" xmlns="http://www.w3.org/2000/svg">
<path d="M11.9547 4.36106C11.9011 4.19308 11.7983 4.04513 11.6594 3.93651C11.5206 3.82789 11.3522 3.76365 11.1763 3.75216L7.99493 3.52952L6.81479 0.557844C6.75093 0.393555 6.63893 0.252391 6.49346 0.152849C6.34799 0.0533068 6.17585 3.00293e-05 5.99958 0H5.99874C5.82275 0.000313905 5.65095 0.0537265 5.5058 0.153254C5.36066 0.252781 5.24892 0.39379 5.1852 0.557844L3.98749 3.54668L0.823732 3.75216C0.647816 3.76365 0.479447 3.82789 0.340594 3.93651C0.20174 4.04513 0.0988495 4.19308 0.0453455 4.36106C-0.0110977 4.53142 -0.0149374 4.71482 0.0343264 4.8874C0.0835902 5.05997 0.183675 5.21371 0.321547 5.3286L2.75547 7.38588L2.03149 10.2337C1.98158 10.4255 1.99076 10.6279 2.05781 10.8145C2.12487 11.001 2.24667 11.1629 2.40729 11.2791C2.56235 11.3919 2.74779 11.4554 2.93947 11.4614C3.13114 11.4674 3.32017 11.4155 3.48196 11.3125L5.99288 9.72188C5.99623 9.71937 5.99958 9.71769 6.00711 9.72188L8.70887 11.4335C8.85554 11.5272 9.02709 11.5745 9.20106 11.5691C9.37503 11.5637 9.54333 11.5059 9.68394 11.4034C9.82948 11.2982 9.93986 11.1515 10.0006 10.9825C10.0614 10.8135 10.0698 10.6301 10.0246 10.4563L9.25541 7.34529L11.6785 5.3286C11.8163 5.21371 11.9164 5.05997 11.9657 4.8874C12.0149 4.71482 12.0111 4.53141 11.9547 4.36106Z" fill="#F4C027"/>
</svg>
