<svg width="32" height="32" viewBox="0 0 32 32" fill="none" xmlns="http://www.w3.org/2000/svg">
<g clip-path="url(#clip0)">
<path d="M22.1055 11.2256C22.0024 11.5161 21.7982 11.6366 21.5193 11.787C21.236 11.9398 20.8165 12.0803 20.5199 12.2097V14.3696C20.5199 14.4104 20.5179 14.4507 20.5168 14.4912C21.6964 14.6167 22.8026 13.7528 22.8026 12.6968C22.8025 12.1246 22.5353 11.5789 22.1055 11.2256Z" fill="#FFB1A0"/>
<path d="M21.8889 11.5498C21.7883 11.6391 21.6644 11.709 21.5203 11.7867C21.2371 11.9394 20.8176 12.0799 20.5209 12.2094V14.3692C20.5209 14.4101 20.5189 14.4504 20.5178 14.4909C21.0134 14.5436 21.4958 14.4212 21.8889 14.1836V11.5498Z" fill="#FFA68E"/>
<path d="M11.4784 12.2091C11.1817 12.0798 10.7623 11.9392 10.4791 11.7864C10.2148 11.6439 10.0178 11.5414 9.91005 11.2705C9.48574 11.6153 9.1958 12.1389 9.1958 12.7023C9.1958 13.7556 10.3007 14.6196 11.4814 14.4899C11.4804 14.4496 11.4785 14.4094 11.4785 14.369V12.2091H11.4784Z" fill="#FFB1A0"/>
<path d="M11.4784 14.1895C10.9327 13.8633 10.5581 13.3148 10.5581 12.7018C10.5581 12.4241 10.6288 12.1561 10.7511 11.9144C10.6534 11.8725 10.5603 11.8298 10.479 11.786C10.2148 11.6435 10.0177 11.5409 9.91005 11.27C9.48574 11.6148 9.1958 12.1384 9.1958 12.7018C9.1958 13.7551 10.3007 14.6191 11.4814 14.4895C11.4804 14.4491 11.4785 14.409 11.4785 14.3685V14.1895H11.4784Z" fill="#FFA68E"/>
<path d="M25.6082 22.7953C25.417 22.698 25.3363 22.6718 24.7091 22.4269V22.429C23.9251 22.1253 22.5746 21.6023 21.368 21.1351L16.4676 29.367C16.2617 29.7318 15.7364 29.7318 15.5305 29.3671L10.6224 21.125L6.63783 22.6812C5.56321 23.1234 4.12427 24.515 4.12427 26.58V31.1558C4.12427 31.622 4.50214 31.9998 4.96827 31.9998H27.03C27.4961 31.9998 27.874 31.622 27.874 31.1558V26.58C27.8739 24.6702 26.6433 23.3348 25.6082 22.7953Z" fill="#6076B8"/>
<path d="M17.4415 28.0927L20.9625 21.8542L18.7965 23.8915C18.5453 24.1427 18.1342 24.1427 17.883 23.8915L17.0551 23.1925C16.9246 23.062 16.8626 22.8883 16.8676 22.7164H15.1378C15.1429 22.8883 15.0808 23.062 14.9503 23.1925L14.1225 23.8271C13.8713 24.0783 13.4602 24.0783 13.209 23.8271L11.0261 21.8374L14.5579 28.0927H17.4415Z" fill="#B1DBFC"/>
<path d="M17.1823 22.4084L19.0831 20.25C18.9693 20.206 18.8934 20.1766 18.8653 20.1657C18.6872 20.0969 18.5688 19.9255 18.5683 19.7335L18.5671 18.0127C16.9333 19.0818 14.8661 18.9374 13.4257 18.0059V19.7307C13.4257 19.9221 13.3336 20.0349 13.2277 20.1069L12.9028 20.2337L14.82 22.4084C14.9407 22.5292 15.0028 22.6868 15.0075 22.8459H16.9948C16.9995 22.6868 17.0616 22.5292 17.1823 22.4084Z" fill="#FFB1A0"/>
<path d="M15.9984 18.7597C15.0713 18.7545 14.1657 18.4844 13.4257 18.0059V19.7307C13.4257 19.9221 13.3336 20.0349 13.2277 20.1069L12.9028 20.2337L14.82 22.4084C14.9407 22.5292 15.0028 22.6868 15.0075 22.8459H15.9984V18.7597Z" fill="#FFA68E"/>
<path d="M16.7781 24.4658H15.2071L14.5381 28.0607L15.5296 29.8169C15.7356 30.1817 16.2609 30.1816 16.4668 29.8169L17.4498 28.0751L16.7781 24.4658Z" fill="#FF7F87"/>
<path d="M16.0191 28.5456C15.8423 28.2324 15.7814 27.8669 15.8472 27.5133L16.4143 24.4658H15.2071L14.5381 28.0607L15.5296 29.8169C15.7356 30.1816 16.2609 30.1816 16.4668 29.8168L16.6018 29.5776L16.0191 28.5456Z" fill="#FF656F"/>
<path d="M17.1186 23.1938C16.9881 23.0633 16.8616 22.8897 16.8667 22.7178H15.1369C15.142 22.8897 15.0155 23.0633 14.885 23.1938L14.3455 23.7333L15.1643 24.4911C15.1923 24.517 15.229 24.5313 15.2671 24.5313H16.7195C16.7576 24.5313 16.7943 24.517 16.8223 24.491L17.6496 23.7249L17.1186 23.1938Z" fill="#FF656F"/>
<path d="M15.9016 24.0675C15.7081 23.8885 15.7022 23.5846 15.8886 23.3982L16.1176 23.1692C16.2424 23.0444 16.3627 22.8822 16.3806 22.7178H15.1379C15.1429 22.8897 15.0165 23.0633 14.886 23.1938L14.3464 23.7333L15.1653 24.4911C15.1932 24.517 15.2299 24.5313 15.2681 24.5313H16.4028L15.9016 24.0675Z" fill="#FF4756"/>
<path d="M12.903 20.2329L10.6218 21.1238L11.0246 21.8372L13.2075 24.0201C13.4588 24.2714 13.8698 24.2714 14.121 24.0201L14.9488 23.1923C15.2001 22.9411 15.2001 22.53 14.9488 22.2787L12.903 20.2329Z" fill="#DFEBFA"/>
<path d="M19.0845 20.2505L17.0549 22.2801C16.8036 22.5313 16.8036 22.9424 17.0549 23.1936L17.8827 24.0214C18.134 24.2727 18.545 24.2727 18.7962 24.0214L20.9622 21.8554L21.3687 21.1352C20.3808 20.7526 19.4895 20.4073 19.0845 20.2505Z" fill="#DFEBFA"/>
<path d="M15.9991 13.1123C15.306 13.1123 14.6275 13.0507 13.968 12.9342V14.4085C13.968 16.3579 15.19 18.1707 17.1566 18.8199C19.1587 18.329 20.6489 16.52 20.6489 14.3688V12.1445C19.2244 12.766 17.6527 13.1123 15.9991 13.1123Z" fill="#FFCEBE"/>
<path d="M14.0272 14.3688V12.9444C13.0918 12.7843 12.1943 12.5133 11.3489 12.1445V14.3688C11.3489 16.7643 13.2258 18.9522 16.065 18.9522C16.5151 18.9522 16.9498 18.8859 17.3609 18.7645C15.3114 18.1872 14.0272 16.3496 14.0272 14.3688Z" fill="#FFB1A0"/>
<path d="M24.2929 31.9992V27.2563C24.2929 26.9896 24.0767 26.7734 23.81 26.7734C23.5433 26.7734 23.3271 26.9896 23.3271 27.2563V31.9992H24.2929Z" fill="#536BB2"/>
<path d="M8.67108 31.9992V27.2563C8.67108 26.9896 8.45489 26.7734 8.1882 26.7734C7.92151 26.7734 7.70532 26.9896 7.70532 27.2563V31.9992H8.67108Z" fill="#536BB2"/>
<path d="M16.6297 8.81971C16.2327 9.01865 15.765 9.01865 15.368 8.81971L9.81641 6.03815V9.78371C9.88678 9.84359 9.96159 9.8989 10.0448 9.94377C11.8171 10.8995 13.844 11.4434 15.9988 11.4434C18.1535 11.4434 20.1805 10.8995 21.9528 9.94377C22.036 9.8989 22.1108 9.84359 22.1812 9.78371V6.03809L16.6297 8.81971Z" fill="#6076B8"/>
<path d="M12.222 7.2418L9.81763 6.03711V9.78267C9.888 9.84254 9.96281 9.89785 10.046 9.94273C10.7352 10.3144 11.4633 10.6228 12.222 10.8621V7.2418Z" fill="#536BB2"/>
<path d="M21.9528 9.81491C20.1805 10.7706 18.1537 11.3145 15.9988 11.3145C13.844 11.3145 11.8172 10.7706 10.0448 9.81485C9.96159 9.76997 9.88678 9.71466 9.81641 9.65479V10.7873C9.81641 11.2555 10.0662 11.6935 10.4784 11.9157C12.1217 12.8018 14.0009 13.3061 15.9988 13.3061C17.9968 13.3061 19.876 12.8018 21.5193 11.9157C21.9315 11.6935 22.1813 11.2555 22.1813 10.7873V9.65479C22.1109 9.71472 22.0361 9.77003 21.9528 9.81491Z" fill="#909FCC"/>
<path d="M12.222 10.7332C11.4633 10.4939 10.7352 10.1855 10.046 9.81387C9.96275 9.769 9.88794 9.71368 9.81763 9.65381V10.7863C9.81763 11.2546 10.0674 11.6925 10.4796 11.9147C11.0348 12.2141 11.6175 12.4687 12.2221 12.6762V10.7332H12.222Z" fill="#798BC2"/>
<path d="M6.51176 25.6435C6.51176 24.0651 7.38982 22.8259 8.01707 22.1416L6.63783 22.6803C5.5632 23.1225 4.12427 24.5141 4.12427 26.579V31.1549C4.12427 31.621 4.50214 31.9989 4.96827 31.9989H6.51183C6.51176 29.7582 6.51176 26.9845 6.51176 25.6435Z" fill="#536BB2"/>
<path d="M24.6215 4.15234L16.6308 0.148715C16.2338 -0.0502227 15.7662 -0.0502227 15.3692 0.148715L7.3785 4.15234C6.92006 4.38203 6.92006 5.03634 7.3785 5.26603L15.3692 9.26965C15.7662 9.46859 16.2338 9.46859 16.6308 9.26965L24.6215 5.26603C25.0799 5.03634 25.0799 4.38209 24.6215 4.15234Z" fill="#909FCC"/>
<path d="M18.2152 7.93471L9.924 3.78052C9.63143 3.6339 9.51956 3.32077 9.58687 3.0459L7.3785 4.1524C6.92006 4.38209 6.92006 5.0364 7.3785 5.26609L15.3692 9.26971C15.7662 9.46865 16.2338 9.46865 16.6308 9.26971L18.9989 8.08321C18.7323 8.10684 18.4607 8.05777 18.2152 7.93471Z" fill="#798BC2"/>
<path d="M24.9635 10.7846C24.6968 10.7846 24.4806 10.5684 24.4806 10.3017V5.19231H16.8249C16.5582 5.19231 16.342 4.97613 16.342 4.70944C16.342 4.44275 16.5582 4.22656 16.8249 4.22656H24.9635C25.2302 4.22656 25.4464 4.44275 25.4464 4.70944V10.3016C25.4464 10.5683 25.2302 10.7846 24.9635 10.7846Z" fill="#536BB2"/>
<path d="M26.3724 13.5815L25.7564 11.1025C25.5692 11.3344 25.286 11.4857 24.9648 11.4857C24.6435 11.4857 24.3604 11.3344 24.1732 11.1026L23.5572 13.5815C23.4324 14.0573 23.7914 14.5224 24.2831 14.5224H25.6465C26.1382 14.5223 26.4971 14.0572 26.3724 13.5815Z" fill="#FEC458"/>
<path d="M24.7178 13.6458L25.2665 11.4375C25.1711 11.4679 25.07 11.4857 24.9643 11.4857C24.643 11.4857 24.3599 11.3344 24.1727 11.1025L23.5567 13.5815C23.432 14.0572 23.7908 14.5223 24.2826 14.5223H25.1414C24.8175 14.3793 24.6207 14.0163 24.7178 13.6458Z" fill="#F9AB49"/>
<path d="M15.9989 5.76235C16.5802 5.76235 17.0514 5.2911 17.0514 4.70979C17.0514 4.12848 16.5802 3.65723 15.9989 3.65723C15.4175 3.65723 14.9463 4.12848 14.9463 4.70979C14.9463 5.2911 15.4175 5.76235 15.9989 5.76235Z" fill="#798BC2"/>
<path d="M24.9638 11.6142C25.5281 11.6142 25.9855 11.1568 25.9855 10.5925C25.9855 10.0282 25.5281 9.5708 24.9638 9.5708C24.3996 9.5708 23.9421 10.0282 23.9421 10.5925C23.9421 11.1568 24.3996 11.6142 24.9638 11.6142Z" fill="#FFE181"/>
<path d="M24.8543 10.5935C24.8543 10.1933 25.0849 9.8479 25.4199 9.68021C25.2825 9.61146 25.128 9.57178 24.9638 9.57178C24.3996 9.57178 23.9421 10.0292 23.9421 10.5934C23.9421 11.1577 24.3996 11.615 24.9638 11.615C25.128 11.615 25.2825 11.5754 25.4199 11.5067C25.0849 11.3391 24.8543 10.9936 24.8543 10.5935Z" fill="#FEC458"/>
</g>
<defs>
<clipPath id="clip0">
<rect width="32" height="32" fill="white"/>
</clipPath>
</defs>
</svg>
