<svg width="24" height="24" viewBox="0 0 24 24" fill="none" xmlns="http://www.w3.org/2000/svg">
<path fill-rule="evenodd" clip-rule="evenodd" d="M15.7689 4.38462H8.84583C8.66222 4.38462 8.48613 4.31168 8.3563 4.18184C8.22647 4.05201 8.15353 3.87592 8.15353 3.69231C8.15353 3.5087 8.22647 3.33261 8.3563 3.20277C8.48613 3.07294 8.66222 3 8.84583 3H15.7689C15.9525 3 16.1286 3.07294 16.2584 3.20277C16.3883 3.33261 16.4612 3.5087 16.4612 3.69231C16.4612 3.87592 16.3883 4.05201 16.2584 4.18184C16.1286 4.31168 15.9525 4.38462 15.7689 4.38462ZM4.69231 5.76919H19.9231C20.1067 5.76919 20.2828 5.84213 20.4126 5.97196C20.5424 6.1018 20.6154 6.27789 20.6154 6.4615C20.6154 6.64511 20.5424 6.8212 20.4126 6.95103C20.2828 7.08087 20.1067 7.15381 19.9231 7.15381H19.2308V19.6153C19.2304 19.9825 19.0844 20.3344 18.8248 20.594C18.5652 20.8536 18.2133 20.9996 17.8462 21H6.76923C6.40212 20.9996 6.05015 20.8536 5.79056 20.594C5.53097 20.3344 5.38498 19.9825 5.38462 19.6153V7.15381H4.69231C4.5087 7.15381 4.33261 7.08087 4.20277 6.95103C4.07294 6.8212 4 6.64511 4 6.4615C4 6.27789 4.07294 6.1018 4.20277 5.97196C4.33261 5.84213 4.5087 5.76919 4.69231 5.76919ZM10.7203 16.6433C10.8501 16.5135 10.9231 16.3374 10.9231 16.1538V10.6153C10.9231 10.4317 10.8501 10.2556 10.7203 10.1258C10.5905 9.99598 10.4144 9.92304 10.2308 9.92304C10.0472 9.92304 9.87107 9.99598 9.74123 10.1258C9.6114 10.2556 9.53846 10.4317 9.53846 10.6153V16.1538C9.53846 16.3374 9.6114 16.5135 9.74123 16.6433C9.87107 16.7732 10.0472 16.8461 10.2308 16.8461C10.4144 16.8461 10.5905 16.7732 10.7203 16.6433ZM14.8742 16.6433C15.004 16.5135 15.0769 16.3374 15.0769 16.1538V10.6153C15.0769 10.4317 15.004 10.2556 14.8742 10.1258C14.7443 9.99598 14.5682 9.92304 14.3846 9.92304C14.201 9.92304 14.0249 9.99598 13.8951 10.1258C13.7652 10.2556 13.6923 10.4317 13.6923 10.6153V16.1538C13.6923 16.3374 13.7652 16.5135 13.8951 16.6433C14.0249 16.7732 14.201 16.8461 14.3846 16.8461C14.5682 16.8461 14.7443 16.7732 14.8742 16.6433Z" fill="white"/>
</svg>
