<svg width="24" height="24" viewBox="0 0 24 24" fill="none" xmlns="http://www.w3.org/2000/svg">
<g clip-path="url(#clip0)">
<path fill-rule="evenodd" clip-rule="evenodd" d="M23.3077 11.3076C23.5648 11.3076 23.8007 11.4501 23.9204 11.6776C24.0401 11.9051 24.0239 12.1802 23.8782 12.3922L22.2564 14.7512L21.3398 16.0845C21.2106 16.2723 20.9972 16.3846 20.7693 16.3846C20.5983 16.3846 20.4355 16.3214 20.3103 16.2106C20.2686 16.1737 20.231 16.1315 20.1987 16.0845L18.6695 13.8601L17.6603 12.3922C17.5146 12.1803 17.4984 11.9052 17.618 11.6776C17.7377 11.4501 17.9737 11.3076 18.2307 11.3076H18.8887C18.5402 7.81417 15.5837 5.07686 12 5.07686C9.43176 5.07686 7.15584 6.46267 5.95861 8.6093L4.94227 7.13096C4.55475 6.56725 3.91495 6.23068 3.23082 6.23068C3.18146 6.23068 3.13242 6.23293 3.08363 6.2364C3.48886 5.61142 3.96084 5.0267 4.49386 4.49369C6.49879 2.48871 9.16462 1.38452 12 1.38452C14.8354 1.38452 17.5012 2.48871 19.5062 4.49364C21.347 6.33456 22.4286 8.73268 22.5933 11.3076H23.3077ZM20.7692 17.7691C20.0851 17.7691 19.4452 17.4325 19.0577 16.8688L18.0414 15.3905C16.8442 17.5371 14.5682 18.9229 12 18.9229C8.41633 18.9229 5.45984 16.1856 5.11128 12.6922H5.76926C6.02632 12.6922 6.26229 12.5497 6.38196 12.3222C6.50163 12.0946 6.48537 11.8195 6.33973 11.6077L5.33051 10.1397L3.80126 7.91531C3.67217 7.72749 3.4588 7.61522 3.2308 7.61522C3.2023 7.61522 3.17403 7.61696 3.14609 7.62038C3.11816 7.6238 3.09064 7.62896 3.06359 7.63566C2.996 7.65249 2.9315 7.67935 2.8723 7.71521C2.78942 7.76536 2.71677 7.8331 2.66028 7.91527L0.121817 11.6076C-0.023823 11.8194 -0.0400886 12.0946 0.079583 12.3221C0.199255 12.5496 0.435223 12.6922 0.692332 12.6922H1.40671C1.57142 15.2671 2.65297 17.6652 4.49384 19.5061C6.49882 21.5111 9.16455 22.6153 12 22.6153C14.8355 22.6153 17.5012 21.5111 19.5062 19.5061C20.0392 18.9731 20.5112 18.3884 20.9164 17.7634C20.8676 17.7668 20.8185 17.7691 20.7692 17.7691ZM9.57655 10.5463C9.54843 10.5153 9.50624 10.4999 9.44999 10.4999H8.76655C8.71031 10.4999 8.66671 10.5153 8.63577 10.5463C8.60765 10.5772 8.58796 10.6081 8.57671 10.6391L7.65703 13.2969C7.64578 13.325 7.64015 13.3461 7.64015 13.3602C7.64015 13.3855 7.64859 13.408 7.66547 13.4277C7.68515 13.4445 7.70765 13.453 7.73296 13.453H8.26453C8.32078 13.453 8.36015 13.4417 8.38265 13.4192C8.40796 13.3939 8.42343 13.37 8.42906 13.3475L8.54718 12.9974H9.66936L9.78749 13.3475C9.79311 13.37 9.80718 13.3939 9.82968 13.4192C9.85499 13.4417 9.89577 13.453 9.95202 13.453H10.4836C10.5089 13.453 10.53 13.4445 10.5469 13.4277C10.5665 13.408 10.5764 13.3855 10.5764 13.3602C10.5764 13.3461 10.5708 13.325 10.5595 13.2969L9.63983 10.6391C9.62858 10.6081 9.60749 10.5772 9.57655 10.5463ZM9.10827 11.331L9.44999 12.3435H8.76655L9.10827 11.331ZM13.1296 12.8117C13.1071 12.7892 13.0804 12.778 13.0495 12.778H11.7164V12.3055H12.9229C12.9539 12.3055 12.9806 12.2942 13.0031 12.2717C13.0256 12.2492 13.0368 12.2225 13.0368 12.1916V11.7444C13.0368 11.7135 13.0256 11.6867 13.0031 11.6642C12.9806 11.6417 12.9539 11.6305 12.9229 11.6305H11.7164V11.1749H13.0157C13.0467 11.1749 13.0734 11.1636 13.0959 11.1411C13.1184 11.1186 13.1296 11.0919 13.1296 11.061V10.6138C13.1296 10.5828 13.1184 10.5561 13.0959 10.5336C13.0734 10.5111 13.0467 10.4999 13.0157 10.4999H11.0498C11.0189 10.4999 10.9922 10.5111 10.9697 10.5336C10.9472 10.5561 10.9359 10.5828 10.9359 10.6138V13.3391C10.9359 13.37 10.9472 13.3967 10.9697 13.4192C10.9922 13.4417 11.0189 13.453 11.0498 13.453H13.0495C13.0804 13.453 13.1071 13.4417 13.1296 13.4192C13.1521 13.3967 13.1634 13.37 13.1634 13.3391V12.8919C13.1634 12.861 13.1521 12.8342 13.1296 12.8117ZM14.8974 10.4999C15.0915 10.4999 15.2686 10.5294 15.429 10.5885C15.5893 10.6447 15.7271 10.7249 15.8424 10.8289C15.9605 10.933 16.0519 11.0581 16.1166 11.2044C16.1841 11.3478 16.2221 11.5053 16.2305 11.6769C16.2333 11.736 16.2347 11.7908 16.2347 11.8414V11.9806V12.1199C16.2347 12.1677 16.2333 12.2197 16.2305 12.276C16.2221 12.4503 16.1855 12.6092 16.1208 12.7527C16.0561 12.8961 15.9661 13.0199 15.8508 13.1239C15.7383 13.228 15.6033 13.3095 15.4458 13.3686C15.2883 13.4249 15.1125 13.453 14.9185 13.453H13.7794C13.7485 13.453 13.7218 13.4417 13.6993 13.4192C13.6768 13.3967 13.6655 13.37 13.6655 13.3391V10.6138C13.6655 10.5828 13.6768 10.5561 13.6993 10.5336C13.7218 10.5111 13.7485 10.4999 13.7794 10.4999H14.8974ZM15.45 11.66C15.4332 11.3366 15.2419 11.1749 14.8763 11.1749H14.446V12.778H14.8974C15.2518 12.778 15.436 12.6163 15.45 12.2928C15.4529 12.2338 15.4543 12.1789 15.4543 12.1283V11.9764V11.8245C15.4543 11.7739 15.4529 11.7191 15.45 11.66Z" fill="white"/>
</g>
<defs>
<clipPath id="clip0">
<rect width="24" height="24" fill="white"/>
</clipPath>
</defs>
</svg>
