<svg width="24" height="24" viewBox="0 0 24 24" fill="none" xmlns="http://www.w3.org/2000/svg">
<path fill-rule="evenodd" clip-rule="evenodd" d="M5.87998 6.43999C5.87998 7.23527 5.23527 7.87998 4.43999 7.87998C3.6447 7.87998 3 7.23527 3 6.43999C3 5.6447 3.6447 5 4.43999 5C5.23527 5 5.87998 5.6447 5.87998 6.43999ZM8.39995 5.36C7.80349 5.36 7.31996 5.84353 7.31996 6.43999C7.31996 7.03645 7.80349 7.51998 8.39995 7.51998H19.9199C20.5163 7.51998 20.9998 7.03645 20.9998 6.43999C20.9998 5.84353 20.5163 5.36 19.9199 5.36H8.39995ZM8.40089 10.76C7.80443 10.76 7.3209 11.2435 7.3209 11.8399C7.3209 12.4364 7.80443 12.9199 8.40089 12.9199H19.9202C20.5167 12.9199 21.0002 12.4364 21.0002 11.8399C21.0002 11.2435 20.5167 10.76 19.9202 10.76H8.40089ZM7.3209 17.2399C7.3209 16.6434 7.80443 16.1599 8.40089 16.1599H19.9202C20.5167 16.1599 21.0002 16.6434 21.0002 17.2399C21.0002 17.8364 20.5167 18.3199 19.9202 18.3199H8.40089C7.80443 18.3199 7.3209 17.8364 7.3209 17.2399ZM4.43999 13.2799C5.23527 13.2799 5.87998 12.6352 5.87998 11.8399C5.87998 11.0447 5.23527 10.4 4.43999 10.4C3.6447 10.4 3 11.0447 3 11.8399C3 12.6352 3.6447 13.2799 4.43999 13.2799ZM5.87998 17.2399C5.87998 18.0352 5.23527 18.6799 4.43999 18.6799C3.6447 18.6799 3 18.0352 3 17.2399C3 16.4446 3.6447 15.7999 4.43999 15.7999C5.23527 15.7999 5.87998 16.4446 5.87998 17.2399Z" fill="#78C6C2"/>
</svg>
