<svg width="24" height="24" viewBox="0 0 24 24" fill="none" xmlns="http://www.w3.org/2000/svg">
<g clip-path="url(#clip0)">
<path d="M23.4404 12.2254C23.4404 11.2421 23.3606 10.5246 23.1879 9.78052H11.96V14.2185H18.5505C18.4177 15.3214 17.7002 16.9823 16.1056 18.0984L16.0833 18.247L19.6334 20.9972L19.8793 21.0218C22.1382 18.9356 23.4404 15.8662 23.4404 12.2254Z" fill="#4285F4"/>
<path d="M11.9599 23.9177C15.1887 23.9177 17.8993 22.8546 19.8792 21.021L16.1056 18.0976C15.0957 18.8019 13.7404 19.2935 11.9599 19.2935C8.7975 19.2935 6.11345 17.2074 5.15666 14.324L5.01642 14.3359L1.32501 17.1927L1.27673 17.3269C3.24326 21.2335 7.28267 23.9177 11.9599 23.9177Z" fill="#34A853"/>
<path d="M5.15673 14.325C4.90427 13.5809 4.75817 12.7836 4.75817 11.9598C4.75817 11.136 4.90427 10.3387 5.14345 9.59464L5.13676 9.43616L1.39908 6.53345L1.27679 6.59162C0.466289 8.21271 0.0012207 10.0331 0.0012207 11.9598C0.0012207 13.8865 0.466289 15.7068 1.27679 17.3279L5.15673 14.325Z" fill="#FBBC05"/>
<path d="M11.96 4.62403C14.2055 4.62403 15.7203 5.59402 16.584 6.40461L19.9591 3.10928C17.8863 1.1826 15.1888 0 11.96 0C7.28271 0 3.24327 2.68406 1.27673 6.59056L5.1434 9.59359C6.11348 6.7102 8.79755 4.62403 11.96 4.62403Z" fill="#EB4335"/>
</g>
<defs>
<clipPath id="clip0">
<rect width="23.4528" height="24" fill="white"/>
</clipPath>
</defs>
</svg>
