<svg width="32" height="32" viewBox="0 0 32 32" fill="none" xmlns="http://www.w3.org/2000/svg">
<g clip-path="url(#clip0)">
<path d="M13.003 24.0493V26.0194C13.003 26.7728 12.642 27.4723 12.0491 27.8678L10.6169 28.8231H21.3824L19.9503 27.8678C19.3574 27.4723 18.9964 26.7728 18.9964 26.0194V24.0493C17.0256 24.0493 14.9738 24.0493 13.003 24.0493Z" fill="#B1DBFC"/>
<path d="M13.0031 24.0493V26.0194C13.0031 26.7728 12.6421 27.4723 12.0491 27.8678L10.6169 28.8231H14.0917L14.1219 28.803C14.7148 28.4075 15.0758 27.7079 15.0758 26.9546V25.5907C15.0758 25.2559 15.3472 24.9845 15.682 24.9845H18.9963V24.0493H13.0031Z" fill="#8BCAFF"/>
<path d="M22.3845 28.7539H9.61452C9.25895 28.7539 8.9707 29.0422 8.9707 29.3977V30.1187C8.9707 30.4742 9.25895 30.7625 9.61452 30.7625H22.3845C22.74 30.7625 23.0283 30.4742 23.0283 30.1187V29.3977C23.0283 29.0422 22.74 28.7539 22.3845 28.7539Z" fill="#DFEBFA"/>
<path d="M12.5388 30.1187V29.3977C12.5388 29.0422 12.8271 28.7539 13.1826 28.7539H9.61452C9.25895 28.7539 8.9707 29.0422 8.9707 29.3977V30.1187C8.9707 30.4742 9.25895 30.7625 9.61452 30.7625H13.1827C12.8271 30.7625 12.5388 30.4742 12.5388 30.1187Z" fill="#B1DBFC"/>
<path d="M30.1444 1.23682H1.85557C0.832378 1.23682 0 2.06919 0 3.09239V22.279C0 23.3022 0.832378 24.1346 1.85557 24.1346H30.1444C31.1676 24.1346 32 23.3022 32 22.279V3.09239C32 2.06919 31.1676 1.23682 30.1444 1.23682Z" fill="#39393A"/>
<path d="M2.14638 22.2791V3.09239C2.14638 2.06919 2.97876 1.23682 4.00195 1.23682H1.85557C0.832378 1.23682 0 2.06919 0 3.09239V22.279C0 23.3022 0.832378 24.1346 1.85557 24.1346H4.00189C2.97876 24.1347 2.14638 23.3022 2.14638 22.2791Z" fill="#554E56"/>
<path d="M2.00879 5.50446V5.63321V21.8589C2.00879 22.0064 2.12829 22.1259 2.27579 22.1259H29.7247C29.8721 22.1259 29.9917 22.0064 29.9917 21.8589C29.9917 21.4263 29.9917 10.2187 29.9917 5.50439H2.00879V5.50446Z" fill="#FFE181"/>
<path d="M3.94055 21.8588V5.63315V5.50439H2.00879V5.63315V21.8588C2.00879 22.0063 2.12829 22.1258 2.27579 22.1258H4.20749C4.06005 22.1258 3.94055 22.0063 3.94055 21.8588Z" fill="#FEC458"/>
<path d="M29.7244 3.24561H4.84375V5.63355H29.9914C29.9914 4.51586 29.9914 3.73736 29.9914 3.51254C29.9913 3.36511 29.8718 3.24561 29.7244 3.24561Z" fill="#5CB3F8"/>
<path d="M4.90841 3.24561H2.27579C2.12835 3.24561 2.00879 3.36511 2.00879 3.51261V5.63361H4.90841V3.24561Z" fill="#FF656F"/>
<path d="M4.20741 3.24561H2.27579C2.12835 3.24561 2.00879 3.36511 2.00879 3.51261V5.63361H3.94041V3.51261C3.94041 3.36511 4.05998 3.24561 4.20741 3.24561Z" fill="#FF4756"/>
<path d="M23.9773 9.20898H22.8734V16.5864C22.8734 16.986 22.5258 17.2987 22.1289 17.2518C21.6988 17.201 21.1733 17.0063 20.2026 16.4785C18.6222 15.6192 17.1884 16.4226 16.4751 16.9768C16.3391 17.0825 16.172 17.1392 15.9998 17.1392C15.8276 17.1392 15.6605 17.0825 15.5245 16.9768C14.8112 16.4226 13.3774 15.6193 11.797 16.4785C10.8263 17.0063 10.3008 17.201 9.87065 17.2518C9.47377 17.2987 9.12621 16.986 9.12621 16.5864V9.20898H8.02233C7.65727 9.20898 7.36133 9.50492 7.36133 9.86999V18.5377C7.36133 18.9028 7.65727 19.1987 8.02233 19.1987H13.886C14.184 19.1987 14.4631 19.3645 14.5882 19.6349C14.818 20.1314 15.3202 20.4757 15.9032 20.4757C16.4861 20.4757 16.9884 20.1314 17.2181 19.6349C17.3432 19.3645 17.6224 19.1987 17.9204 19.1987H23.9772C24.3423 19.1987 24.6382 18.9028 24.6382 18.5377V9.86999C24.6383 9.50492 24.3423 9.20898 23.9773 9.20898Z" fill="#FF656F"/>
<path d="M10.358 18.5377V17.1415C10.1755 17.1997 10.0172 17.2343 9.87064 17.2517C9.47377 17.2985 9.1262 16.9859 9.1262 16.5863V9.20898H8.02233C7.65727 9.20898 7.36133 9.50492 7.36133 9.86998V18.5377C7.36133 18.9027 7.65727 19.1987 8.02233 19.1987H11.019C10.654 19.1987 10.358 18.9027 10.358 18.5377Z" fill="#FF4756"/>
<path d="M22.6554 8.4447C22.5394 8.50914 22.4031 8.5397 22.2599 8.52289C21.8298 8.47245 21.175 8.27795 20.2029 7.74933C17.9532 6.52621 16.0001 8.67252 16.0001 8.67252L15.6829 9.07345V16.9768L16.0001 17.4603C16.1723 17.4603 16.3394 17.4036 16.4754 17.2979C17.1887 16.7438 18.6225 15.9404 20.2028 16.7996C21.1735 17.3274 21.8278 17.5221 22.2579 17.5729C22.6548 17.6198 23.0024 17.3072 23.0024 16.9076V8.65189C23.0025 8.47139 22.8079 8.36008 22.6554 8.4447Z" fill="#DFEBFA"/>
<path d="M17.5715 7.61182C16.6235 7.98732 16.0001 8.67225 16.0001 8.67225L15.6829 9.07319V16.9765L16.0001 17.4601C16.1723 17.4601 16.3394 17.4033 16.4754 17.2977C16.7469 17.0868 17.1229 16.8399 17.5715 16.6623V7.61182H17.5715Z" fill="#B1DBFC"/>
<path d="M21.3031 10.6152C20.9023 10.4746 20.4544 10.2702 19.9717 10.0079C19.2619 9.62206 18.5045 9.58799 17.7206 9.90675C17.4735 10.0071 17.1918 9.88843 17.0914 9.64137C16.9909 9.39431 17.1097 9.11256 17.3568 9.01218C18.4069 8.58518 19.4706 8.63618 20.433 9.15943C20.8704 9.39718 21.2707 9.58037 21.6228 9.70393C21.8745 9.79218 22.0069 10.0678 21.9186 10.3195C21.8304 10.5712 21.5547 10.7035 21.3031 10.6152Z" fill="#8BCAFF"/>
<path d="M21.3031 12.3701C20.9023 12.2295 20.4544 12.0251 19.9717 11.7628C19.2619 11.3769 18.5045 11.3429 17.7206 11.6616C17.4735 11.7619 17.1918 11.6433 17.0914 11.3963C16.9909 11.1492 17.1097 10.8674 17.3568 10.7671C18.4069 10.34 19.4706 10.3911 20.433 10.9143C20.8704 11.1521 21.2707 11.3353 21.6228 11.4588C21.8745 11.5471 22.0069 11.8227 21.9186 12.0744C21.8304 12.3261 21.5547 12.4584 21.3031 12.3701Z" fill="#8BCAFF"/>
<path d="M21.3031 14.1221C20.9023 13.9815 20.4544 13.7771 19.9717 13.5147C19.2619 13.1289 18.5045 13.0948 17.7206 13.4136C17.4735 13.5139 17.1918 13.3952 17.0914 13.1482C16.9909 12.9012 17.1097 12.6194 17.3568 12.519C18.4069 12.092 19.4706 12.143 20.433 12.6663C20.8704 12.904 21.2707 13.0872 21.6228 13.2108C21.8745 13.299 22.0069 13.5747 21.9186 13.8264C21.8304 14.078 21.5547 14.2104 21.3031 14.1221Z" fill="#8BCAFF"/>
<path d="M21.3031 15.8755C20.9023 15.7349 20.4544 15.5305 19.9717 15.2681C19.2619 14.8822 18.5045 14.8482 17.7206 15.167C17.4735 15.2674 17.1918 15.1486 17.0914 14.9016C16.9909 14.6546 17.1097 14.3728 17.3568 14.2724C18.4069 13.8454 19.4706 13.8964 20.433 14.4197C20.8704 14.6574 21.2707 14.8406 21.6228 14.9642C21.8745 15.0524 22.0069 15.3281 21.9186 15.5797C21.8304 15.8314 21.5547 15.9637 21.3031 15.8755Z" fill="#8BCAFF"/>
<path d="M9.3448 8.44471C9.4608 8.50914 9.59711 8.53971 9.7403 8.52289C10.1704 8.47246 10.8252 8.27796 11.7974 7.74933C14.0471 6.5262 16.0001 8.67252 16.0001 8.67252V17.4604C15.8279 17.4604 15.6609 17.4037 15.5249 17.298C14.8116 16.7438 13.3777 15.9405 11.7974 16.7997C10.8266 17.3275 10.1724 17.5222 9.74224 17.573C9.34536 17.6199 8.9978 17.3073 8.9978 16.9077V8.65189C8.9978 8.47139 9.1923 8.36008 9.3448 8.44471Z" fill="#DFEBFA"/>
<path d="M10.5911 16.8775V8.30566C10.2403 8.43273 9.9605 8.49679 9.74012 8.52266C9.597 8.53948 9.46062 8.50885 9.34462 8.44448C9.19212 8.35979 8.99756 8.4711 8.99756 8.65166V16.9074C8.99756 17.307 9.34518 17.6197 9.742 17.5728C9.99131 17.5434 10.3166 17.4649 10.7346 17.3019C10.6451 17.1845 10.5911 17.0379 10.5911 16.8775Z" fill="#B1DBFC"/>
<path d="M10.0811 10.3205C9.99281 10.0689 10.1252 9.79326 10.3768 9.70495C10.729 9.58138 11.1293 9.3982 11.5666 9.16045C12.5292 8.63707 13.5929 8.5862 14.6429 9.0132C14.8899 9.1137 15.0087 9.39538 14.9083 9.64238C14.8078 9.88945 14.5261 10.0084 14.2791 9.90776C13.4951 9.58888 12.7377 9.62301 12.0279 10.0089C11.5454 10.2713 11.0974 10.4756 10.6966 10.6163C10.4451 10.7045 10.1694 10.5723 10.0811 10.3205Z" fill="#8BCAFF"/>
<path d="M10.0811 12.0734C9.99281 11.8218 10.1252 11.5462 10.3768 11.4579C10.729 11.3343 11.1293 11.1511 11.5666 10.9134C12.5292 10.39 13.5929 10.3391 14.6429 10.7661C14.8899 10.8666 15.0087 11.1483 14.9083 11.3953C14.8078 11.6424 14.5261 11.7613 14.2791 11.6607C13.4951 11.3419 12.7377 11.3759 12.0279 11.7618C11.5454 12.0242 11.0974 12.2285 10.6966 12.3692C10.4451 12.4574 10.1694 12.3252 10.0811 12.0734Z" fill="#8BCAFF"/>
<path d="M10.0811 13.8278C9.99281 13.5762 10.1252 13.3006 10.3768 13.2123C10.729 13.0887 11.1293 12.9055 11.5666 12.6677C12.5292 12.1444 13.5929 12.0936 14.6429 12.5205C14.8899 12.621 15.0087 12.9027 14.9083 13.1497C14.8078 13.3968 14.5261 13.5157 14.2791 13.4151C13.4951 13.0963 12.7377 13.1303 12.0279 13.5162C11.5454 13.7786 11.0974 13.9829 10.6966 14.1236C10.4451 14.2118 10.1694 14.0796 10.0811 13.8278Z" fill="#8BCAFF"/>
<path d="M10.0811 15.5803C9.99281 15.3286 10.1252 15.053 10.3768 14.9647C10.729 14.8411 11.1293 14.6579 11.5666 14.4202C12.5292 13.8969 13.5929 13.8459 14.6429 14.2729C14.8899 14.3734 15.0087 14.6551 14.9083 14.9021C14.8078 15.1493 14.5261 15.2681 14.2791 15.1675C13.4951 14.8487 12.7377 14.8828 12.0279 15.2686C11.5454 15.531 11.0974 15.7354 10.6966 15.876C10.4451 15.9643 10.1694 15.832 10.0811 15.5803Z" fill="#8BCAFF"/>
</g>
<defs>
<clipPath id="clip0">
<rect width="32" height="32" fill="white"/>
</clipPath>
</defs>
</svg>
