<svg width="28" height="28" viewBox="0 0 28 28" fill="none" xmlns="http://www.w3.org/2000/svg">
<rect width="28" height="28" rx="6" fill="#2B4798"/>
<path d="M13.4666 7.3335C12.2018 7.33343 10.9882 7.83255 10.0894 8.72237C9.19056 9.61218 8.67927 10.8208 8.66663 12.0855C8.66663 15.3735 12.8966 19.0335 13.0766 19.1895C13.1853 19.2824 13.3236 19.3335 13.4666 19.3335C13.6096 19.3335 13.7479 19.2824 13.8566 19.1895C14.0666 19.0335 18.2666 15.3735 18.2666 12.0855C18.2539 10.8208 17.7427 9.61218 16.8439 8.72237C15.945 7.83255 14.7314 7.33343 13.4666 7.3335ZM13.4666 13.9335C13.0513 13.9335 12.6453 13.8103 12.2999 13.5796C11.9546 13.3488 11.6854 13.0208 11.5265 12.6371C11.3675 12.2534 11.3259 11.8312 11.407 11.4238C11.488 11.0164 11.688 10.6423 11.9817 10.3486C12.2754 10.0549 12.6496 9.85487 13.0569 9.77384C13.4643 9.69281 13.8865 9.7344 14.2702 9.89334C14.654 10.0523 14.9819 10.3214 15.2127 10.6668C15.4434 11.0121 15.5666 11.4181 15.5666 11.8335C15.5666 12.3904 15.3454 12.9246 14.9515 13.3184C14.5577 13.7122 14.0236 13.9335 13.4666 13.9335Z" fill="white"/>
</svg>
