<svg width="24" height="24" viewBox="0 0 24 24" fill="none" xmlns="http://www.w3.org/2000/svg">
<path d="M18.6892 5.3212C18.2751 4.90709 17.6061 4.90709 17.192 5.3212L11.9998 10.5028L6.80749 5.31058C6.39339 4.89647 5.72444 4.89647 5.31034 5.31058C4.89623 5.72469 4.89623 6.39363 5.31034 6.80774L10.5026 12L5.31034 17.1923C4.89623 17.6064 4.89623 18.2753 5.31034 18.6894C5.72444 19.1035 6.39339 19.1035 6.80749 18.6894L11.9998 13.4972L17.192 18.6894C17.6061 19.1035 18.2751 19.1035 18.6892 18.6894C19.1033 18.2753 19.1033 17.6064 18.6892 17.1923L13.4969 12L18.6892 6.80774C19.0927 6.40425 19.0927 5.72469 18.6892 5.3212Z" fill="#7A7F90"/>
</svg>
