<svg width="368" height="273" viewBox="0 0 368 273" fill="none" xmlns="http://www.w3.org/2000/svg">
<path d="M379 238.169H0V238.359H379V238.169Z" fill="#E6E6E6"/>
<path d="M286.266 246.196H260.191V246.386H286.266V246.196Z" fill="#E6E6E6"/>
<path d="M84.1689 246.288H69.494V246.477H84.1689V246.288Z" fill="#E6E6E6"/>
<path d="M190.258 245.848H160.514V246.037H190.258V245.848Z" fill="#E6E6E6"/>
<path d="M159.757 243.149H146.462V243.339H159.757V243.149Z" fill="#E6E6E6"/>
<path d="M321.817 243.248H281.651V243.438H321.817V243.248Z" fill="#E6E6E6"/>
<path d="M320.658 4.12158H217.358V124.492H320.658V4.12158Z" fill="#E0E0E0"/>
<path d="M323.46 4.12158H218.667V124.492H323.46V4.12158Z" fill="#F5F5F5"/>
<path d="M320.658 124.492H217.358V131.238H320.658V124.492Z" fill="#E0E0E0"/>
<path d="M336.302 124.492H237.649V131.238H336.302V124.492Z" fill="#F5F5F5"/>
<path d="M319.536 119.383V9.22314L222.603 9.22314V119.383H319.536Z" fill="#FAFAFA"/>
<path d="M236.542 119.383L259.615 9.23047H289.859L266.786 119.383H236.542Z" fill="white"/>
<path d="M271.683 119.383L294.749 9.23047H308.408L285.342 119.383H271.683Z" fill="white"/>
<path d="M214.409 3.9472V46.8045H225.779C225.779 46.8045 246.146 33.5168 250.793 6.17571C250.903 5.52458 250.87 4.85729 250.696 4.22022C250.522 3.58314 250.211 2.99158 249.786 2.48664C249.36 1.9817 248.83 1.5755 248.231 1.29627C247.633 1.01704 246.981 0.871482 246.32 0.869713H217.516C217.11 0.866716 216.707 0.944055 216.331 1.09728C215.954 1.2505 215.612 1.47659 215.323 1.76256C215.034 2.04853 214.805 2.38874 214.648 2.76365C214.491 3.13856 214.41 3.54078 214.409 3.9472Z" fill="#E0E0E0"/>
<path d="M214.409 115.502V50.2612H225.779C225.779 50.2612 232.297 63.4353 238.793 78.5801C240.521 82.6096 241.222 87.005 240.832 91.372C240.442 95.7389 238.975 99.9408 236.561 103.601C234.146 107.261 230.862 110.264 227.001 112.341C223.14 114.418 218.823 115.505 214.439 115.502H214.409Z" fill="#E0E0E0"/>
<path d="M225.414 46.8047H214.824C214.196 46.8047 213.687 47.3137 213.687 47.9417V49.1242C213.687 49.7521 214.196 50.2612 214.824 50.2612H225.414C226.042 50.2612 226.551 49.7521 226.551 49.1242V47.9417C226.551 47.3137 226.042 46.8047 225.414 46.8047Z" fill="#F5F5F5"/>
<path d="M326.698 3.94726V46.8046H315.328C315.328 46.8046 294.953 33.5168 290.314 6.17578C290.204 5.52527 290.237 4.85863 290.41 4.2221C290.584 3.58557 290.894 2.99439 291.319 2.48958C291.743 1.98478 292.273 1.57843 292.87 1.29872C293.468 1.01901 294.119 0.872645 294.779 0.869778H323.583C323.99 0.865776 324.394 0.942373 324.771 1.09514C325.148 1.24792 325.492 1.47385 325.781 1.75992C326.071 2.04599 326.301 2.38654 326.458 2.76194C326.616 3.13735 326.697 3.5402 326.698 3.94726Z" fill="#E0E0E0"/>
<path d="M326.774 115.517V50.2764H315.404C315.404 50.2764 308.885 63.4428 302.382 78.5952C300.666 82.626 299.974 87.019 300.37 91.3819C300.765 95.7449 302.235 99.942 304.648 103.599C307.06 107.255 310.341 110.257 314.197 112.337C318.052 114.417 322.363 115.51 326.744 115.517H326.774Z" fill="#E0E0E0"/>
<path d="M315.669 50.2612H326.258C326.886 50.2612 327.395 49.7522 327.395 49.1242V47.9418C327.395 47.3138 326.886 46.8048 326.258 46.8048H315.669C315.041 46.8048 314.532 47.3138 314.532 47.9418V49.1242C314.532 49.7522 315.041 50.2612 315.669 50.2612Z" fill="#F5F5F5"/>
<path d="M152.275 57.1514H106.772V106.96H152.275V57.1514Z" fill="#E0E0E0"/>
<path d="M158.672 57.1514H109.236V106.96H158.672V57.1514Z" fill="#FAFAFA"/>
<path d="M153.571 101.873V62.2603H114.33V101.873H153.571Z" fill="white"/>
<path d="M123.555 82.0593C123.557 79.5778 124.544 77.1987 126.299 75.4447C128.055 73.6908 130.435 72.7056 132.916 72.7056H135.023C137.504 72.7076 139.882 73.6937 141.635 75.4474C143.389 77.2012 144.375 79.5791 144.377 82.0593C144.377 83.2876 144.135 84.504 143.665 85.6388C143.195 86.7736 142.506 87.8048 141.638 88.6734C140.769 89.5419 139.738 90.2309 138.603 90.701C137.468 91.1711 136.252 91.413 135.023 91.413H132.916C131.687 91.414 130.47 91.1728 129.334 90.7032C128.199 90.2336 127.167 89.5447 126.297 88.676C125.428 87.8074 124.738 86.7759 124.268 85.6405C123.797 84.5052 123.555 83.2883 123.555 82.0593Z" fill="#F5F5F5"/>
<path d="M69.9191 69.0367C63.5865 69.0367 57.5133 66.5211 53.0355 62.0433C48.5577 57.5655 46.0421 51.4923 46.0421 45.1597C46.0421 38.8271 48.5577 32.7539 53.0355 28.2761C57.5133 23.7983 63.5865 21.2827 69.9191 21.2827H74.2321V69.0367H69.9191Z" fill="#E0E0E0"/>
<path d="M74.2311 69.0367C87.4096 69.0367 98.0929 58.3534 98.0929 45.1748C98.0929 31.9963 87.4096 21.313 74.2311 21.313C61.0526 21.313 50.3693 31.9963 50.3693 45.1748C50.3693 58.3534 61.0526 69.0367 74.2311 69.0367Z" fill="#FAFAFA"/>
<path d="M74.2312 63.17C84.1696 63.17 92.2262 55.1134 92.2262 45.1751C92.2262 35.2368 84.1696 27.1802 74.2312 27.1802C64.2929 27.1802 56.2363 35.2368 56.2363 45.1751C56.2363 55.1134 64.2929 63.17 74.2312 63.17Z" fill="white"/>
<path d="M81.6431 51.9059L72.8048 45.7433L75.6094 32.1069L78.1108 32.6224L75.6473 44.6064L83.106 49.8062L81.6431 51.9059Z" fill="#E0E0E0"/>
<path d="M267.073 152.97H234.547V240.853H267.073V152.97Z" fill="#E0E0E0"/>
<path d="M258.386 240.853H267.073V226.299H249.283L258.386 240.853Z" fill="#FAFAFA"/>
<path d="M72.0772 152.97H39.5514V240.853H72.0772V152.97Z" fill="#E0E0E0"/>
<path d="M267.081 152.97H64.4979V235.842H267.081V152.97Z" fill="#FAFAFA"/>
<path d="M73.1846 240.853H64.4979V226.299H82.2882L73.1846 240.853Z" fill="#FAFAFA"/>
<path d="M260.342 160.095H71.2362V190.597H260.342V160.095Z" fill="#F0F0F0"/>
<path d="M260.342 197.973H71.2362V228.475H260.342V197.973Z" fill="#F0F0F0"/>
<path d="M232.614 160.095H71.2362V190.597H232.614V160.095Z" fill="#E0E0E0"/>
<path d="M120.931 164.211H111.114C111.114 164.211 112.82 170.101 112.82 173.565C112.82 177.029 105.354 190.605 116.026 190.605C126.699 190.605 119.225 177.029 119.225 173.565C119.225 170.101 120.931 164.211 120.931 164.211Z" fill="#FAFAFA"/>
<path d="M82.2874 174.444V179.803C82.2874 185.746 88.033 190.605 95.0521 190.605H101.381C108.4 190.605 114.146 185.746 114.146 179.803V174.444H82.2874Z" fill="#F0F0F0"/>
<path d="M232.614 197.973H71.2362V228.475H232.614V197.973Z" fill="#E0E0E0"/>
<path d="M161.871 227.929H176.985V202.756H161.871V227.929Z" fill="white"/>
<path d="M174.628 228.315H175.659V203.142H174.628V228.315Z" fill="#E6E6E6"/>
<path d="M175.735 228.505H178.373C178.574 228.505 178.737 228.342 178.737 228.141V203.309C178.737 203.108 178.574 202.945 178.373 202.945H175.735C175.534 202.945 175.371 203.108 175.371 203.309V228.141C175.371 228.342 175.534 228.505 175.735 228.505Z" fill="#EBEBEB"/>
<path d="M175.371 214.755H178.737V208.782H175.371V214.755Z" fill="white"/>
<path d="M175.371 220.288H178.737V216.604H175.371V220.288Z" fill="white"/>
<path d="M161.098 228.505H174.719C174.92 228.505 175.083 228.342 175.083 228.141V203.309C175.083 203.108 174.92 202.945 174.719 202.945H161.098C160.897 202.945 160.734 203.108 160.734 203.309V228.141C160.734 228.342 160.897 228.505 161.098 228.505Z" fill="#EBEBEB"/>
<path d="M154.497 227.86H171.173V200.087H154.497V227.86Z" fill="white"/>
<path d="M168.587 228.3H169.716V200.527H168.587V228.3Z" fill="#E6E6E6"/>
<path d="M169.8 228.512H172.711C172.933 228.512 173.113 228.332 173.113 228.11V200.716C173.113 200.494 172.933 200.315 172.711 200.315H169.8C169.578 200.315 169.398 200.494 169.398 200.716V228.11C169.398 228.332 169.578 228.512 169.8 228.512Z" fill="#F0F0F0"/>
<path d="M169.398 210.26H173.113V209.297H169.398V210.26Z" fill="white"/>
<path d="M169.398 213.042H173.113V212.079H169.398V213.042Z" fill="white"/>
<path d="M169.398 215.824H173.113V214.861H169.398V215.824Z" fill="white"/>
<path d="M153.655 228.512H168.679C168.901 228.512 169.08 228.332 169.08 228.11V200.716C169.08 200.494 168.901 200.315 168.679 200.315H153.655C153.433 200.315 153.253 200.494 153.253 200.716V228.11C153.253 228.332 153.433 228.512 153.655 228.512Z" fill="#F0F0F0"/>
<path d="M133.955 218.832C133.956 219.678 133.707 220.506 133.238 221.21C132.769 221.914 132.102 222.463 131.321 222.788C130.54 223.112 129.68 223.198 128.85 223.034C128.02 222.87 127.258 222.463 126.659 221.866C126.06 221.268 125.653 220.506 125.487 219.677C125.321 218.847 125.406 217.987 125.729 217.206C126.052 216.424 126.6 215.756 127.303 215.286C128.007 214.816 128.834 214.565 129.679 214.565C130.812 214.565 131.898 215.014 132.7 215.814C133.501 216.615 133.953 217.7 133.955 218.832Z" fill="#FAFAFA"/>
<path d="M126.67 220.872C126.67 221.533 126.474 222.179 126.107 222.729C125.74 223.279 125.217 223.707 124.607 223.96C123.996 224.213 123.324 224.28 122.675 224.151C122.027 224.022 121.431 223.703 120.964 223.236C120.496 222.768 120.178 222.173 120.049 221.524C119.92 220.876 119.986 220.204 120.239 219.593C120.492 218.982 120.921 218.46 121.47 218.093C122.02 217.725 122.666 217.529 123.327 217.529C124.213 217.531 125.062 217.884 125.689 218.511C126.315 219.137 126.668 219.986 126.67 220.872Z" fill="#FAFAFA"/>
<path d="M141.269 220.872C141.269 221.717 141.018 222.544 140.548 223.247C140.079 223.95 139.411 224.498 138.63 224.821C137.848 225.145 136.989 225.23 136.16 225.065C135.33 224.9 134.569 224.493 133.971 223.895C133.373 223.297 132.966 222.535 132.801 221.706C132.636 220.877 132.72 220.017 133.044 219.236C133.368 218.455 133.915 217.787 134.619 217.317C135.322 216.847 136.148 216.597 136.994 216.597C138.127 216.599 139.213 217.05 140.014 217.851C140.816 218.652 141.267 219.739 141.269 220.872Z" fill="#FAFAFA"/>
<path d="M148.271 219.621C148.271 220.466 148.021 221.293 147.551 221.996C147.081 222.699 146.413 223.247 145.632 223.571C144.851 223.894 143.991 223.979 143.162 223.814C142.333 223.649 141.571 223.242 140.973 222.644C140.375 222.046 139.968 221.284 139.803 220.455C139.638 219.626 139.723 218.766 140.046 217.985C140.37 217.204 140.918 216.536 141.621 216.066C142.324 215.596 143.151 215.346 143.996 215.346C145.13 215.346 146.217 215.796 147.019 216.598C147.821 217.4 148.271 218.487 148.271 219.621Z" fill="#FAFAFA"/>
<path d="M111.564 220.174C111.564 220.174 112.147 228.512 134.637 228.512C157.127 228.512 157.711 220.174 157.711 220.174H111.564Z" fill="#F5F5F5"/>
<path d="M174.629 182.267C174.629 182.267 175.561 190.605 211.202 190.605C246.843 190.605 247.768 182.267 247.768 182.267H174.629Z" fill="white"/>
<path d="M189.5 272.4C270.669 272.4 336.469 268.559 336.469 263.82C336.469 259.081 270.669 255.239 189.5 255.239C108.331 255.239 42.5314 259.081 42.5314 263.82C42.5314 268.559 108.331 272.4 189.5 272.4Z" fill="#F5F5F5"/>
<path d="M111.368 150.185C127.4 134.153 127.4 108.159 111.368 92.1267C95.3359 76.0944 69.3424 76.0944 53.3101 92.1267C37.2778 108.159 37.2778 134.153 53.3101 150.185C69.3424 166.217 95.3359 166.217 111.368 150.185Z" fill="#407BFF"/>
<path opacity="0.4" d="M111.368 150.185C127.4 134.153 127.4 108.159 111.368 92.1267C95.3359 76.0944 69.3424 76.0944 53.3101 92.1267C37.2778 108.159 37.2778 134.153 53.3101 150.185C69.3424 166.217 95.3359 166.217 111.368 150.185Z" fill="black"/>
<path opacity="0.2" d="M116.326 126.953C119.527 108.184 106.908 90.3743 88.1393 87.1729C69.371 83.9715 51.5611 96.591 48.3597 115.359C45.1583 134.128 57.7778 151.938 76.5461 155.139C95.3144 158.34 113.124 145.721 116.326 126.953Z" fill="black"/>
<path d="M117.973 124.457C119.253 106.18 105.473 90.3259 87.1955 89.0465C68.918 87.7671 53.064 101.547 51.7846 119.824C50.5052 138.102 64.2848 153.956 82.5623 155.235C100.84 156.514 116.694 142.735 117.973 124.457Z" fill="#407BFF"/>
<path opacity="0.4" d="M117.973 124.457C119.253 106.18 105.473 90.3259 87.1955 89.0465C68.918 87.7671 53.064 101.547 51.7846 119.824C50.5052 138.102 64.2848 153.956 82.5623 155.235C100.84 156.514 116.694 142.735 117.973 124.457Z" fill="black"/>
<path d="M95.9721 117.996L98.1324 127.357C98.2241 127.715 98.2405 128.087 98.1805 128.451C98.1204 128.815 97.9853 129.163 97.7837 129.472C97.5878 129.788 97.3306 130.061 97.0273 130.276C96.7239 130.491 96.3806 130.643 96.0176 130.723L87.7857 132.625L89.3017 139.212C89.3909 139.568 89.4046 139.939 89.3419 140.301C89.2793 140.662 89.1416 141.007 88.9379 141.312C88.7421 141.623 88.4841 141.89 88.1801 142.096C87.8762 142.302 87.5328 142.443 87.1717 142.51C86.81 142.6 86.4338 142.617 86.0654 142.56C85.6969 142.503 85.3437 142.372 85.0266 142.176C84.7107 141.99 84.437 141.741 84.2229 141.443C84.0089 141.145 83.8592 140.807 83.7835 140.448L82.2675 133.785L74.1038 135.673C73.752 135.758 73.3866 135.77 73.0297 135.71C72.6728 135.651 72.3317 135.519 72.0269 135.324C71.7102 135.138 71.4355 134.889 71.2202 134.591C71.0049 134.294 70.8537 133.955 70.7762 133.596C70.69 133.241 70.6764 132.873 70.7364 132.514C70.7963 132.154 70.9285 131.811 71.1249 131.504C71.3123 131.19 71.5625 130.918 71.8599 130.705C72.1573 130.493 72.4955 130.344 72.8531 130.268L91.9547 125.864L91.0603 121.976L72.0117 126.364C71.6591 126.454 71.2919 126.472 70.9323 126.416C70.5727 126.36 70.2282 126.231 69.9196 126.038C69.6033 125.848 69.33 125.595 69.1172 125.293C68.9045 124.992 68.757 124.649 68.6841 124.287L66.5314 114.964C66.3657 114.247 66.4914 113.494 66.8809 112.87C67.2704 112.246 67.8917 111.802 68.6083 111.636L76.7341 109.764L75.2181 103.17C75.1302 102.821 75.1131 102.458 75.1677 102.103C75.2224 101.747 75.3478 101.406 75.5364 101.1C75.7364 100.769 76.0048 100.483 76.3237 100.264C76.6427 100.044 77.0048 99.8952 77.3859 99.8267C77.7365 99.7415 78.1007 99.7285 78.4564 99.7884C78.8122 99.8484 79.152 99.9801 79.4553 100.175C79.7666 100.367 80.0359 100.619 80.2469 100.918C80.4579 101.216 80.6064 101.554 80.6833 101.911L82.1993 108.498L90.5373 106.588C90.898 106.501 91.2726 106.487 91.6387 106.549C92.0047 106.61 92.3546 106.744 92.6672 106.944C92.9835 107.126 93.2586 107.372 93.4752 107.665C93.6918 107.959 93.8451 108.294 93.9255 108.65C94.0852 109.383 93.9518 110.149 93.5538 110.785C93.1557 111.421 92.5247 111.876 91.7955 112.053L72.6939 116.457L73.5277 120.323L92.5611 115.934C92.9218 115.847 93.2965 115.833 93.6625 115.895C94.0286 115.956 94.3784 116.091 94.6911 116.291C95.0125 116.469 95.2927 116.713 95.5134 117.007C95.7341 117.301 95.8904 117.638 95.9721 117.996Z" fill="#407BFF"/>
<g opacity="0.7">
<path opacity="0.7" d="M95.9721 117.996L98.1324 127.357C98.2241 127.715 98.2405 128.087 98.1805 128.451C98.1204 128.815 97.9853 129.163 97.7837 129.472C97.5878 129.788 97.3306 130.061 97.0273 130.276C96.7239 130.491 96.3806 130.643 96.0176 130.723L87.7857 132.625L89.3017 139.212C89.3909 139.568 89.4046 139.939 89.3419 140.301C89.2793 140.662 89.1416 141.007 88.9379 141.312C88.7421 141.623 88.4841 141.89 88.1801 142.096C87.8762 142.302 87.5328 142.443 87.1717 142.51C86.81 142.6 86.4338 142.617 86.0654 142.56C85.6969 142.503 85.3437 142.372 85.0266 142.176C84.7107 141.99 84.437 141.741 84.2229 141.443C84.0089 141.145 83.8592 140.807 83.7835 140.448L82.2675 133.785L74.1038 135.673C73.752 135.758 73.3866 135.77 73.0297 135.71C72.6728 135.651 72.3317 135.519 72.0269 135.324C71.7102 135.138 71.4355 134.889 71.2202 134.591C71.0049 134.294 70.8537 133.955 70.7762 133.596C70.69 133.241 70.6764 132.873 70.7364 132.514C70.7963 132.154 70.9285 131.811 71.1249 131.504C71.3123 131.19 71.5625 130.918 71.8599 130.705C72.1573 130.493 72.4955 130.344 72.8531 130.268L91.9547 125.864L91.0603 121.976L72.0117 126.364C71.6591 126.454 71.2919 126.472 70.9323 126.416C70.5727 126.36 70.2282 126.231 69.9196 126.038C69.6033 125.848 69.33 125.595 69.1172 125.293C68.9045 124.992 68.757 124.649 68.6841 124.287L66.5314 114.964C66.3657 114.247 66.4914 113.494 66.8809 112.87C67.2704 112.246 67.8917 111.802 68.6083 111.636L76.7341 109.764L75.2181 103.17C75.1302 102.821 75.1131 102.458 75.1677 102.103C75.2224 101.747 75.3478 101.406 75.5364 101.1C75.7364 100.769 76.0048 100.483 76.3237 100.264C76.6427 100.044 77.0048 99.8952 77.3859 99.8267C77.7365 99.7415 78.1007 99.7285 78.4564 99.7884C78.8122 99.8484 79.152 99.9801 79.4553 100.175C79.7666 100.367 80.0359 100.619 80.2469 100.918C80.4579 101.216 80.6064 101.554 80.6833 101.911L82.1993 108.498L90.5373 106.588C90.898 106.501 91.2726 106.487 91.6387 106.549C92.0047 106.61 92.3546 106.744 92.6672 106.944C92.9835 107.126 93.2586 107.372 93.4752 107.665C93.6918 107.959 93.8451 108.294 93.9255 108.65C94.0852 109.383 93.9518 110.149 93.5538 110.785C93.1557 111.421 92.5247 111.876 91.7955 112.053L72.6939 116.457L73.5277 120.323L92.5611 115.934C92.9218 115.847 93.2965 115.833 93.6625 115.895C94.0286 115.956 94.3784 116.091 94.6911 116.291C95.0125 116.469 95.2927 116.713 95.5134 117.007C95.7341 117.301 95.8904 117.638 95.9721 117.996Z" fill="white"/>
</g>
<path d="M169.943 88.508C180.157 76.4215 178.639 58.3434 166.552 48.1295C154.466 37.9156 136.388 39.4337 126.174 51.5202C115.96 63.6067 117.478 81.6848 129.565 91.8987C141.651 102.113 159.729 100.595 169.943 88.508Z" fill="#407BFF"/>
<path opacity="0.4" d="M169.943 88.508C180.157 76.4215 178.639 58.3434 166.552 48.1295C154.466 37.9156 136.388 39.4337 126.174 51.5202C115.96 63.6067 117.478 81.6848 129.565 91.8987C141.651 102.113 159.729 100.595 169.943 88.508Z" fill="black"/>
<path opacity="0.2" d="M166.605 85.322C175.071 75.0809 173.632 59.9158 163.391 51.4497C153.15 42.9835 137.985 44.4224 129.519 54.6635C121.053 64.9045 122.492 80.0697 132.733 88.5358C142.974 97.0019 158.139 95.563 166.605 85.322Z" fill="black"/>
<path d="M167.331 85.5734C175.077 75.4387 173.141 60.9438 163.006 53.198C152.871 45.4523 138.376 47.3889 130.63 57.5236C122.885 67.6583 124.821 82.1532 134.956 89.8989C145.091 97.6447 159.586 95.7081 167.331 85.5734Z" fill="#407BFF"/>
<path opacity="0.4" d="M167.331 85.5734C175.077 75.4387 173.141 60.9438 163.006 53.198C152.871 45.4523 138.376 47.3889 130.63 57.5236C122.885 67.6583 124.821 82.1532 134.956 89.8989C145.091 97.6447 159.586 95.7081 167.331 85.5734Z" fill="black"/>
<path d="M157.53 72.3643L155.9 78.8679C155.841 79.1152 155.731 79.3475 155.577 79.5498C155.423 79.7521 155.228 79.92 155.006 80.0428C154.781 80.1796 154.53 80.2696 154.27 80.3074C154.009 80.3451 153.744 80.3299 153.49 80.2627L147.812 78.83L146.66 83.378C146.601 83.6265 146.492 83.8601 146.338 84.0637C146.183 84.2673 145.989 84.4365 145.765 84.5605C145.551 84.694 145.311 84.7823 145.06 84.8201C144.81 84.8579 144.555 84.8444 144.31 84.7803C144.058 84.7211 143.82 84.6121 143.611 84.4598C143.401 84.3076 143.224 84.115 143.09 83.8935C142.953 83.6771 142.862 83.4349 142.823 83.1819C142.784 82.9289 142.797 82.6706 142.862 82.423L144.022 77.7992L138.337 76.412C138.091 76.3531 137.859 76.2447 137.656 76.0936C137.452 75.9425 137.282 75.7517 137.155 75.5327C137.018 75.3179 136.927 75.0769 136.887 74.8251C136.848 74.5733 136.862 74.3161 136.927 74.0698C136.984 73.8206 137.091 73.5857 137.242 73.3796C137.394 73.1736 137.586 73.0009 137.806 72.8722C138.024 72.7391 138.267 72.6517 138.52 72.6153C138.773 72.5788 139.03 72.594 139.277 72.6599L152.542 75.9875L153.224 73.2891L139.997 69.969C139.749 69.9136 139.516 69.8075 139.311 69.6575C139.106 69.5075 138.935 69.3168 138.807 69.0973C138.67 68.8811 138.58 68.6383 138.543 68.3848C138.507 68.1313 138.524 67.873 138.595 67.6268L140.217 61.1459C140.278 60.8989 140.387 60.6664 140.539 60.4619C140.69 60.2575 140.881 60.085 141.099 59.9546C141.318 59.8242 141.56 59.7385 141.812 59.7022C142.064 59.666 142.32 59.6801 142.567 59.7436L148.191 61.1535L149.343 56.6055C149.399 56.3488 149.507 56.1064 149.661 55.8936C149.815 55.6808 150.012 55.5022 150.238 55.369C150.465 55.2358 150.716 55.151 150.977 55.1199C151.238 55.0887 151.502 55.1119 151.754 55.188C151.998 55.2446 152.228 55.3513 152.429 55.5014C152.63 55.6514 152.797 55.8415 152.921 56.0597C153.055 56.2759 153.144 56.517 153.182 56.7686C153.219 57.0201 153.205 57.2767 153.141 57.5227L151.989 62.0707L157.749 63.5184C158.002 63.5788 158.24 63.6899 158.448 63.8449C158.657 64 158.832 64.1958 158.962 64.4205C159.1 64.6334 159.193 64.8725 159.235 65.1229C159.277 65.3733 159.266 65.6296 159.205 65.8758C159.142 66.1283 159.029 66.3657 158.872 66.574C158.716 66.7822 158.52 66.9572 158.295 67.0886C158.071 67.2279 157.821 67.3199 157.561 67.359C157.3 67.3981 157.034 67.3835 156.779 67.316L143.507 63.9884L142.84 66.6717L156.059 69.9842C156.312 70.0445 156.55 70.1556 156.758 70.3107C156.967 70.4657 157.141 70.6615 157.272 70.8862C157.418 71.0999 157.517 71.3424 157.561 71.5973C157.605 71.8523 157.595 72.1138 157.53 72.3643Z" fill="#407BFF"/>
<g opacity="0.7">
<path opacity="0.7" d="M157.53 72.3643L155.9 78.8679C155.841 79.1152 155.731 79.3475 155.577 79.5498C155.423 79.7521 155.228 79.92 155.006 80.0428C154.781 80.1796 154.53 80.2696 154.27 80.3074C154.009 80.3451 153.744 80.3299 153.49 80.2627L147.812 78.83L146.66 83.378C146.601 83.6265 146.492 83.8601 146.338 84.0637C146.183 84.2673 145.989 84.4365 145.765 84.5605C145.551 84.694 145.311 84.7823 145.06 84.8201C144.81 84.8579 144.555 84.8444 144.31 84.7803C144.058 84.7211 143.82 84.6121 143.611 84.4598C143.401 84.3076 143.224 84.115 143.09 83.8935C142.953 83.6771 142.862 83.4349 142.823 83.1819C142.784 82.9289 142.797 82.6706 142.862 82.423L144.022 77.7992L138.337 76.412C138.091 76.3531 137.859 76.2447 137.656 76.0936C137.452 75.9425 137.282 75.7517 137.155 75.5327C137.018 75.3179 136.927 75.0769 136.887 74.8251C136.848 74.5733 136.862 74.3161 136.927 74.0698C136.984 73.8206 137.091 73.5857 137.242 73.3796C137.394 73.1736 137.586 73.0009 137.806 72.8722C138.024 72.7391 138.267 72.6517 138.52 72.6153C138.773 72.5788 139.03 72.594 139.277 72.6599L152.542 75.9875L153.224 73.2891L139.997 69.969C139.749 69.9136 139.516 69.8075 139.311 69.6575C139.106 69.5075 138.935 69.3168 138.807 69.0973C138.67 68.8811 138.58 68.6383 138.543 68.3848C138.507 68.1313 138.524 67.873 138.595 67.6268L140.217 61.1459C140.278 60.8989 140.387 60.6664 140.539 60.4619C140.69 60.2575 140.881 60.085 141.099 59.9546C141.318 59.8242 141.56 59.7385 141.812 59.7022C142.064 59.666 142.32 59.6801 142.567 59.7436L148.191 61.1535L149.343 56.6055C149.399 56.3488 149.507 56.1064 149.661 55.8936C149.815 55.6808 150.012 55.5022 150.238 55.369C150.465 55.2358 150.716 55.151 150.977 55.1199C151.238 55.0887 151.502 55.1119 151.754 55.188C151.998 55.2446 152.228 55.3513 152.429 55.5014C152.63 55.6514 152.797 55.8415 152.921 56.0597C153.055 56.2759 153.144 56.517 153.182 56.7686C153.219 57.0201 153.205 57.2767 153.141 57.5227L151.989 62.0707L157.749 63.5184C158.002 63.5788 158.24 63.6899 158.448 63.8449C158.657 64 158.832 64.1958 158.962 64.4205C159.1 64.6334 159.193 64.8725 159.235 65.1229C159.277 65.3733 159.266 65.6296 159.205 65.8758C159.142 66.1283 159.029 66.3657 158.872 66.574C158.716 66.7822 158.52 66.9572 158.295 67.0886C158.071 67.2279 157.821 67.3199 157.561 67.359C157.3 67.3981 157.034 67.3835 156.779 67.316L143.507 63.9884L142.84 66.6717L156.059 69.9842C156.312 70.0445 156.55 70.1556 156.758 70.3107C156.967 70.4657 157.141 70.6615 157.272 70.8862C157.418 71.0999 157.517 71.3424 157.561 71.5973C157.605 71.8523 157.595 72.1138 157.53 72.3643Z" fill="white"/>
</g>
<path d="M78.2698 243.149H77.5118V251.707H78.2698V243.149Z" fill="#407BFF"/>
<path opacity="0.1" d="M78.2698 243.149H77.5118V251.707H78.2698V243.149Z" fill="black"/>
<path d="M301.485 175.354H300.727V187.08H301.485V175.354Z" fill="#407BFF"/>
<path d="M301.485 193.228H300.727V199.587H301.485V193.228Z" fill="#407BFF"/>
<path opacity="0.1" d="M301.485 175.354H300.727V187.08H301.485V175.354Z" fill="black"/>
<path opacity="0.1" d="M301.485 193.228H300.727V199.587H301.485V193.228Z" fill="black"/>
<path d="M287.433 124.5H91.5737C85.2733 124.5 80.1658 129.607 80.1658 135.907V250.555C80.1658 256.855 85.2733 261.963 91.5737 261.963H287.433C293.734 261.963 298.841 256.855 298.841 250.555V135.907C298.841 129.607 293.734 124.5 287.433 124.5Z" fill="#407BFF"/>
<path opacity="0.2" d="M287.433 124.5H91.5737C85.2733 124.5 80.1658 129.607 80.1658 135.907V250.555C80.1658 256.855 85.2733 261.963 91.5737 261.963H287.433C293.734 261.963 298.841 256.855 298.841 250.555V135.907C298.841 129.607 293.734 124.5 287.433 124.5Z" fill="black"/>
<path opacity="0.2" d="M263.441 172.367C271.257 172.367 277.593 166.031 277.593 158.215C277.593 150.399 271.257 144.063 263.441 144.063C255.625 144.063 249.289 150.399 249.289 158.215C249.289 166.031 255.625 172.367 263.441 172.367Z" fill="black"/>
<path d="M245.173 172.367C252.989 172.367 259.325 166.031 259.325 158.215C259.325 150.399 252.989 144.063 245.173 144.063C237.357 144.063 231.021 150.399 231.021 158.215C231.021 166.031 237.357 172.367 245.173 172.367Z" fill="#407BFF"/>
<path d="M140.031 172.367H106.323C103.61 172.367 101.411 174.566 101.411 177.279V199.314C101.411 202.027 103.61 204.226 106.323 204.226H140.031C142.744 204.226 144.943 202.027 144.943 199.314V177.279C144.943 174.566 142.744 172.367 140.031 172.367Z" fill="#407BFF"/>
<path opacity="0.3" d="M140.031 172.367H106.323C103.61 172.367 101.411 174.566 101.411 177.279V199.314C101.411 202.027 103.61 204.226 106.323 204.226H140.031C142.744 204.226 144.943 202.027 144.943 199.314V177.279C144.943 174.566 142.744 172.367 140.031 172.367Z" fill="white"/>
<path d="M163.355 140.592H104.89C102.969 140.592 101.411 142.148 101.411 144.067C101.411 145.987 102.969 147.543 104.89 147.543H163.355C165.276 147.543 166.834 145.987 166.834 144.067C166.834 142.148 165.276 140.592 163.355 140.592Z" fill="#407BFF"/>
<path opacity="0.3" d="M163.355 140.592H104.89C102.969 140.592 101.411 142.148 101.411 144.067C101.411 145.987 102.969 147.543 104.89 147.543H163.355C165.276 147.543 166.834 145.987 166.834 144.067C166.834 142.148 165.276 140.592 163.355 140.592Z" fill="white"/>
<path d="M132.808 220.038H106.512C103.695 220.038 101.411 222.322 101.411 225.139V229.907C101.411 232.724 103.695 235.008 106.512 235.008H132.808C135.625 235.008 137.909 232.724 137.909 229.907V225.139C137.909 222.322 135.625 220.038 132.808 220.038Z" fill="#407BFF"/>
<path opacity="0.3" d="M132.808 220.038H106.512C103.695 220.038 101.411 222.322 101.411 225.139V229.907C101.411 232.724 103.695 235.008 106.512 235.008H132.808C135.625 235.008 137.909 232.724 137.909 229.907V225.139C137.909 222.322 135.625 220.038 132.808 220.038Z" fill="white"/>
<path d="M179.364 220.038H153.069C150.251 220.038 147.967 222.322 147.967 225.139V229.907C147.967 232.724 150.251 235.008 153.069 235.008H179.364C182.181 235.008 184.465 232.724 184.465 229.907V225.139C184.465 222.322 182.181 220.038 179.364 220.038Z" fill="#407BFF"/>
<path opacity="0.3" d="M179.364 220.038H153.069C150.251 220.038 147.967 222.322 147.967 225.139V229.907C147.967 232.724 150.251 235.008 153.069 235.008H179.364C182.181 235.008 184.465 232.724 184.465 229.907V225.139C184.465 222.322 182.181 220.038 179.364 220.038Z" fill="white"/>
<path d="M225.927 220.038H199.632C196.815 220.038 194.531 222.322 194.531 225.139V229.907C194.531 232.724 196.815 235.008 199.632 235.008H225.927C228.745 235.008 231.028 232.724 231.028 229.907V225.139C231.028 222.322 228.745 220.038 225.927 220.038Z" fill="#407BFF"/>
<path opacity="0.3" d="M225.927 220.038H199.632C196.815 220.038 194.531 222.322 194.531 225.139V229.907C194.531 232.724 196.815 235.008 199.632 235.008H225.927C228.745 235.008 231.028 232.724 231.028 229.907V225.139C231.028 222.322 228.745 220.038 225.927 220.038Z" fill="white"/>
<path d="M272.486 220.038H246.191C243.373 220.038 241.089 222.322 241.089 225.139V229.907C241.089 232.724 243.373 235.008 246.191 235.008H272.486C275.303 235.008 277.587 232.724 277.587 229.907V225.139C277.587 222.322 275.303 220.038 272.486 220.038Z" fill="#407BFF"/>
<path opacity="0.3" d="M272.486 220.038H246.191C243.373 220.038 241.089 222.322 241.089 225.139V229.907C241.089 232.724 243.373 235.008 246.191 235.008H272.486C275.303 235.008 277.587 232.724 277.587 229.907V225.139C277.587 222.322 275.303 220.038 272.486 220.038Z" fill="white"/>
<path d="M222.094 74.7598C220.298 79.8308 218.304 84.7351 216.189 89.6394C214.049 94.6266 211.593 99.4724 208.837 104.147C208.465 104.746 208.079 105.345 207.677 105.944L207.381 106.391L206.98 106.944C206.707 107.293 206.449 107.596 206.222 107.892C205.267 108.957 204.254 109.969 203.19 110.924C201.166 112.796 199.104 114.494 197.02 116.169C192.835 119.489 188.56 122.597 184.134 125.546L181.488 122.264L192.631 111.28C194.473 109.453 196.299 107.612 198.005 105.77C198.846 104.852 199.665 103.912 200.34 103.048C200.506 102.836 200.65 102.624 200.779 102.442L200.938 102.184L201.158 101.79C201.454 101.267 201.765 100.759 202.053 100.221C204.372 95.8625 206.419 91.125 208.39 86.3193C210.36 81.5136 212.255 76.67 214.075 71.8643L222.094 74.7598Z" fill="#E4897B"/>
<path d="M224.223 71.106C225.944 76.1391 215.832 90.9428 215.832 90.9428L206.175 85.5686C207.821 80.9495 209.766 76.4425 211.997 72.0762C215.378 65.6787 222.336 65.5801 224.223 71.106Z" fill="#407BFF"/>
<path opacity="0.7" d="M224.223 71.106C225.944 76.1391 215.832 90.9428 215.832 90.9428L206.175 85.5686C207.821 80.9495 209.766 76.4425 211.997 72.0762C215.378 65.6787 222.336 65.5801 224.223 71.106Z" fill="white"/>
<path opacity="0.31" d="M224.367 71.7352C222.199 70.6967 219.705 71.5684 217.075 75.7223C214.445 79.8761 212.209 86.8118 211.966 88.7902L215.84 90.9353C215.84 90.9353 225.171 77.261 224.367 71.7352Z" fill="#407BFF"/>
<path d="M217.682 67.2557C217.682 67.2557 210.466 84.2273 215.666 115.828H245.721C246.092 111.212 243.97 88.7071 249.177 66.9677C245.869 66.3236 242.521 65.8982 239.156 65.6942C234.902 65.4515 230.638 65.4515 226.384 65.6942C223.448 65.9924 220.539 66.5144 217.682 67.2557Z" fill="#407BFF"/>
<path opacity="0.7" d="M217.682 67.2557C217.682 67.2557 210.466 84.2273 215.666 115.828H245.721C246.092 111.212 243.97 88.7071 249.177 66.9677C245.869 66.3236 242.521 65.8982 239.156 65.6942C234.902 65.4515 230.638 65.4515 226.384 65.6942C223.448 65.9924 220.539 66.5144 217.682 67.2557Z" fill="white"/>
<path d="M256.364 250.472L251.914 254.459L243.432 245.628L247.889 241.641L256.364 250.472Z" fill="#E4897B"/>
<path d="M241.103 258.764H235.487L234.759 245.757H240.376L241.103 258.764Z" fill="#E4897B"/>
<path d="M243.439 245.628L247.806 250.184L252.263 246.189L247.896 241.641L243.439 245.628Z" fill="#CE6F64"/>
<path d="M240.376 245.757H234.759L235.138 252.465H240.755L240.376 245.757Z" fill="#CE6F64"/>
<path d="M215.666 115.828C215.666 115.828 209.746 156.806 207.729 179.106C206.107 197.003 244.803 250.358 244.803 250.358L252.285 243.316C252.285 243.316 224.026 195.479 226.202 175.559C228.309 156.268 235.449 115.806 235.449 115.806L215.666 115.828Z" fill="#407BFF"/>
<path opacity="0.7" d="M215.666 115.828C215.666 115.828 209.746 156.806 207.729 179.106C206.107 197.003 244.803 250.358 244.803 250.358L252.285 243.316C252.285 243.316 224.026 195.479 226.202 175.559C228.309 156.268 235.449 115.806 235.449 115.806L215.666 115.828Z" fill="black"/>
<path opacity="0.2" d="M226.202 175.581C227.286 165.644 229.712 150.075 231.796 137.325C230.705 135.188 227.642 130.859 227.642 130.859C224.898 140.342 218.933 176.089 227.445 224.366C236.314 238.662 244.803 250.381 244.803 250.381L245.963 231.946C237.769 216.529 224.694 189.354 226.202 175.581Z" fill="black"/>
<path d="M226.354 115.828C226.354 115.828 225.823 158.769 226.733 174.861C227.726 192.477 232.728 250.851 232.728 250.851H243.022C243.022 250.851 242.711 193.902 243.318 176.468C243.992 157.518 245.736 115.828 245.736 115.828H226.354Z" fill="#407BFF"/>
<path opacity="0.7" d="M226.354 115.828C226.354 115.828 225.823 158.769 226.733 174.861C227.726 192.477 232.728 250.851 232.728 250.851H243.022C243.022 250.851 242.711 193.902 243.318 176.468C243.992 157.518 245.736 115.828 245.736 115.828H226.354Z" fill="black"/>
<path d="M235.192 258.12H241.506C241.611 258.116 241.714 258.153 241.792 258.224C241.87 258.295 241.917 258.394 241.923 258.499L242.233 263.494C242.234 263.625 242.21 263.754 242.161 263.875C242.112 263.996 242.039 264.106 241.948 264.199C241.856 264.291 241.747 264.365 241.627 264.416C241.507 264.467 241.378 264.494 241.248 264.495C239.05 264.457 237.996 264.328 235.222 264.328C233.516 264.328 226.255 264.51 223.897 264.51C221.54 264.51 221.623 262.175 222.601 261.963C227.081 261.016 232.637 259.689 234.229 258.461C234.503 258.244 234.842 258.124 235.192 258.12Z" fill="#263238"/>
<path d="M250.686 252.859L256.098 249.213C256.186 249.143 256.296 249.105 256.409 249.105C256.522 249.105 256.631 249.143 256.719 249.213L260.858 253.39C260.939 253.482 260.998 253.59 261.033 253.707C261.067 253.825 261.075 253.948 261.056 254.069C261.037 254.19 260.992 254.305 260.924 254.406C260.856 254.508 260.766 254.593 260.661 254.656C257.205 257.316 254.711 259.325 252.74 261.538C250.466 264.123 249.238 264.495 243.932 264.495C241.476 264.495 240.089 262.425 241.09 262.107C249.928 259.31 247.563 258.089 249.716 253.989C249.94 253.537 250.274 253.149 250.686 252.859Z" fill="#263238"/>
<path d="M182.761 121.559L176.902 121.763L178.13 126.357C178.13 126.357 184.254 126.902 184.8 125.053L182.761 121.559Z" fill="#E4897B"/>
<path d="M170.58 124.5L174.688 126.895L178.13 126.357L176.902 121.763L170.58 124.5Z" fill="#E4897B"/>
<path opacity="0.31" d="M242.461 72.3344C241.84 75.9121 242.666 84.4624 245.736 94.3618C245.976 85.8803 246.963 77.4364 248.684 69.128V69.0825C246.714 68.8855 243.06 68.9764 242.461 72.3344Z" fill="#407BFF"/>
<path d="M238.39 51.3071C237.443 55.4155 236.374 62.95 239.148 65.7091C239.148 65.7091 237.951 69.1125 230.31 69.1125C221.911 69.1125 226.376 65.7091 226.376 65.7091C231 64.6176 231 61.2142 230.31 58.023L238.39 51.3071Z" fill="#E4897B"/>
<path d="M230.097 69.0977L227.823 71.5157L228.937 73.8503L230.749 73.9337L232.295 71.7052L230.097 69.0977Z" fill="#407BFF"/>
<path d="M235.1 54.0435L230.318 58.0002C230.49 58.7475 230.596 59.5084 230.636 60.2742C232.394 60.0241 234.865 58.0988 235.116 56.2644C235.249 55.5296 235.244 54.7763 235.1 54.0435Z" fill="#CE6F64"/>
<path d="M228.422 37.3753C225.55 38.3532 223.253 45.9711 226.603 47.9873C229.954 50.0036 233.88 35.5182 228.422 37.3753Z" fill="#263238"/>
<path d="M240.188 47.0019C238.475 52.3079 237.747 55.5143 234.291 57.6897C233.176 58.4064 231.886 58.8045 230.561 58.8411C229.236 58.8776 227.926 58.5512 226.773 57.8971C225.62 57.243 224.668 56.2861 224.02 55.13C223.372 53.9739 223.052 52.6625 223.095 51.3377C223.163 46.2363 225.953 38.3835 231.827 37.3981C233.093 37.1537 234.401 37.2462 235.621 37.6663C236.84 38.0865 237.927 38.8195 238.774 39.7921C239.62 40.7646 240.197 41.9426 240.445 43.2079C240.693 44.4732 240.605 45.7816 240.188 47.0019Z" fill="#E4897B"/>
<path d="M244.433 38.1332C242.72 42.2719 246.707 38.8154 245.676 43.7273C245.009 46.926 239.233 54.5894 237.004 53.892C234.776 53.1947 234.799 47.7598 237.641 43.9168C239.278 41.711 235.738 39.2096 227.787 39.4749C219.836 39.7402 215.03 35.268 225.596 31.9858C225.596 31.9858 221.7 34.2598 224.012 35.0178C227.287 36.2382 247.866 29.8407 244.433 38.1332Z" fill="#263238"/>
<path d="M242.916 40.0283C242.833 40.0283 244.697 39.5659 245.69 36.2383C245.69 36.2913 245.364 41.1956 242.916 40.0283Z" fill="#263238"/>
<path d="M228.037 32.7212C223.147 34.2372 225.171 35.9427 227.195 36.3672L231.834 34.548C224.785 35.4803 228.037 32.7212 228.037 32.7212Z" fill="#263238"/>
<path d="M241.126 53.4826C240.11 54.4706 238.754 55.032 237.336 55.0517C235.464 55.0517 235.062 53.278 236.07 51.7923C236.965 50.4582 239.011 48.8512 240.664 49.5713C242.316 50.2914 242.369 52.2622 241.126 53.4826Z" fill="#E4897B"/>
<path d="M231.553 46.7061C231.44 47.1458 231.114 47.4641 230.795 47.3883C230.477 47.3125 230.363 46.9108 230.477 46.4711C230.591 46.0315 230.917 45.7131 231.235 45.7965C231.553 45.8799 231.667 46.2665 231.553 46.7061Z" fill="#263238"/>
<path d="M226.55 45.6068C226.437 46.0465 226.111 46.3648 225.792 46.289C225.474 46.2132 225.36 45.8191 225.474 45.3794C225.588 44.9398 225.906 44.6214 226.232 44.6972C226.558 44.773 226.641 45.1672 226.55 45.6068Z" fill="#263238"/>
<path d="M228.082 46.1753C227.22 47.4025 226.201 48.5111 225.05 49.4726C225.303 49.7539 225.615 49.9763 225.963 50.1243C226.312 50.2723 226.688 50.3422 227.066 50.3291L228.082 46.1753Z" fill="#DE5753"/>
<path d="M228.916 51.9287C228.602 51.9283 228.29 51.8927 227.984 51.8225C227.95 51.8136 227.921 51.7921 227.903 51.7625C227.885 51.7329 227.878 51.6975 227.885 51.6634C227.894 51.6297 227.916 51.6008 227.945 51.5825C227.975 51.5642 228.01 51.5578 228.045 51.5648C228.603 51.6891 229.182 51.6855 229.738 51.5542C230.295 51.423 230.815 51.1674 231.258 50.8068C231.284 50.7823 231.318 50.7686 231.353 50.7686C231.389 50.7686 231.422 50.7823 231.448 50.8068C231.472 50.8322 231.486 50.8662 231.486 50.9016C231.486 50.9369 231.472 50.9709 231.448 50.9963C230.744 51.6022 229.845 51.9334 228.916 51.9287Z" fill="#263238"/>
<path d="M233.54 45.4401C233.488 45.441 233.437 45.4263 233.394 45.3979C233.351 45.3695 233.317 45.3287 233.297 45.2809C233.173 44.9768 232.977 44.7072 232.726 44.4948C232.476 44.2823 232.177 44.1334 231.857 44.0605C231.822 44.0559 231.788 44.0443 231.758 44.0265C231.727 44.0087 231.701 43.9849 231.68 43.9567C231.658 43.9285 231.643 43.8963 231.635 43.8621C231.626 43.8278 231.624 43.7922 231.63 43.7573C231.641 43.6875 231.679 43.6248 231.735 43.5824C231.792 43.54 231.863 43.5212 231.933 43.5299C232.341 43.6132 232.723 43.7947 233.045 44.0589C233.368 44.3231 233.621 44.6619 233.782 45.0459C233.797 45.0776 233.806 45.1121 233.807 45.1471C233.808 45.1821 233.802 45.217 233.789 45.2496C233.776 45.2823 233.757 45.312 233.733 45.3369C233.708 45.3618 233.678 45.3815 233.646 45.3946C233.614 45.4174 233.578 45.4329 233.54 45.4401Z" fill="#263238"/>
<path d="M224.86 43.4314C224.799 43.4309 224.74 43.4095 224.693 43.3708C224.638 43.325 224.604 43.2598 224.597 43.189C224.59 43.1182 224.611 43.0474 224.655 42.9918C224.922 42.6595 225.262 42.393 225.648 42.213C226.035 42.0329 226.457 41.9441 226.884 41.9533C226.918 41.9561 226.952 41.9659 226.984 41.9819C227.015 41.998 227.042 42.02 227.065 42.0468C227.087 42.0736 227.104 42.1046 227.115 42.1379C227.125 42.1713 227.129 42.2065 227.126 42.2413C227.124 42.2766 227.115 42.3111 227.1 42.3427C227.084 42.3743 227.062 42.4024 227.035 42.4251C227.008 42.4479 226.976 42.4648 226.943 42.4749C226.909 42.485 226.873 42.4881 226.838 42.4839C226.497 42.4803 226.16 42.555 225.853 42.7022C225.545 42.8493 225.275 43.0651 225.064 43.3328C225.04 43.3638 225.009 43.3888 224.973 43.4059C224.938 43.423 224.899 43.4317 224.86 43.4314Z" fill="#263238"/>
<path d="M250.632 70.8408C251.224 71.758 251.716 72.5691 252.217 73.4483C252.717 74.3276 253.194 75.1766 253.664 76.0559C254.589 77.8068 255.461 79.5957 256.257 81.4225C257.926 85.1623 259.179 89.0744 259.994 93.0881L260.069 93.4747L260.107 93.6642L260.16 93.9826C260.225 94.4065 260.258 94.8347 260.259 95.2636C260.251 95.9817 260.175 96.6975 260.032 97.4011C259.775 98.5617 259.404 99.6941 258.925 100.782C258.074 102.688 257.059 104.516 255.893 106.247C253.688 109.538 251.181 112.616 248.404 115.442L245.107 112.796C246.941 109.597 248.768 106.277 250.299 103.026C251.052 101.47 251.695 99.8645 252.224 98.2198C252.44 97.5338 252.588 96.8278 252.664 96.1125C252.69 95.8783 252.69 95.6418 252.664 95.4076C252.664 95.3394 252.664 95.2787 252.618 95.2712C252.573 95.2636 252.618 95.2712 252.618 95.2333L252.573 95.0817L252.482 94.7709C252.003 93.0989 251.434 91.4542 250.776 89.8439C250.109 88.199 249.367 86.5617 248.586 84.932C247.805 83.3023 246.964 81.6954 246.1 80.0884C245.675 79.285 245.228 78.489 244.781 77.7007L243.447 75.4267L250.632 70.8408Z" fill="#E4897B"/>
<path d="M233.207 259.09C232.828 259.128 232.449 259.023 232.145 258.795C232.06 258.7 231.999 258.584 231.97 258.46C231.941 258.335 231.944 258.205 231.979 258.082C231.995 257.999 232.033 257.922 232.087 257.857C232.141 257.792 232.211 257.742 232.289 257.711C232.979 257.438 234.563 258.529 234.745 258.651C234.768 258.664 234.785 258.685 234.795 258.71C234.804 258.734 234.806 258.762 234.798 258.787C234.794 258.813 234.783 258.836 234.765 258.855C234.748 258.874 234.725 258.887 234.7 258.893C234.21 259.011 233.71 259.077 233.207 259.09ZM232.547 257.93C232.494 257.922 232.441 257.922 232.388 257.93C232.349 257.944 232.315 257.969 232.29 258.001C232.264 258.033 232.249 258.072 232.244 258.112C232.216 258.192 232.21 258.277 232.226 258.36C232.242 258.442 232.28 258.519 232.335 258.582C232.593 258.84 233.328 258.87 234.336 258.673C233.8 258.302 233.19 258.051 232.547 257.938V257.93Z" fill="white"/>
<path d="M234.669 258.901H234.6C234.04 258.567 233.206 257.385 233.335 256.778C233.357 256.667 233.416 256.567 233.503 256.494C233.59 256.421 233.699 256.38 233.812 256.377C233.912 256.364 234.014 256.373 234.109 256.405C234.205 256.436 234.293 256.489 234.366 256.559C234.934 257.112 234.805 258.726 234.805 258.795C234.802 258.817 234.794 258.839 234.781 258.857C234.768 258.876 234.75 258.891 234.729 258.901H234.669ZM233.911 256.627H233.85C233.661 256.627 233.615 256.741 233.6 256.816C233.517 257.218 234.07 258.105 234.555 258.514C234.625 257.899 234.497 257.278 234.191 256.741C234.153 256.703 234.108 256.674 234.059 256.655C234.009 256.635 233.956 256.626 233.903 256.627H233.911Z" fill="white"/>
<path d="M247.047 255.907C246.907 255.911 246.767 255.885 246.638 255.831C246.538 255.791 246.449 255.727 246.379 255.645C246.309 255.563 246.26 255.466 246.236 255.361C246.217 255.297 246.214 255.229 246.229 255.164C246.243 255.099 246.275 255.039 246.319 254.99C246.827 254.376 249.488 254.557 249.791 254.58C249.819 254.581 249.846 254.591 249.868 254.609C249.89 254.627 249.906 254.651 249.912 254.679C249.918 254.706 249.916 254.735 249.905 254.76C249.894 254.786 249.875 254.808 249.852 254.823C249.005 255.381 248.049 255.75 247.047 255.907ZM248.654 254.8C247.722 254.8 246.744 254.891 246.524 255.156C246.511 255.177 246.505 255.2 246.505 255.224C246.505 255.249 246.511 255.272 246.524 255.293C246.537 255.358 246.566 255.42 246.608 255.471C246.65 255.523 246.705 255.563 246.767 255.588C247.191 255.763 248.146 255.475 249.351 254.83L248.654 254.8Z" fill="white"/>
<path d="M249.783 254.845C249.025 254.845 247.319 254.262 247.191 253.655C247.191 253.504 247.191 253.291 247.554 253.117C248.858 252.503 249.866 254.565 249.912 254.633C249.921 254.655 249.926 254.678 249.926 254.701C249.926 254.725 249.921 254.748 249.912 254.769C249.899 254.793 249.881 254.812 249.858 254.825C249.835 254.839 249.809 254.846 249.783 254.845ZM248.032 253.276C247.903 253.275 247.776 253.303 247.661 253.36C247.501 253.435 247.426 253.519 247.441 253.595C247.517 253.951 248.744 254.451 249.548 254.557C249.305 254.148 248.722 253.276 248.032 253.276Z" fill="white"/>
<path d="M246.606 111.568L241.043 110.59L243.915 117.071C243.915 117.071 249.017 117.071 248.789 114.403L246.606 111.568Z" fill="#E4897B"/>
<path d="M236.837 113.85L239.467 119.08L243.886 117.071L241.013 110.59L236.837 113.85Z" fill="#E4897B"/>
<path d="M252.739 242.914L244.348 250.813L241.642 247.909L251.246 239.162L252.739 242.914Z" fill="#407BFF"/>
<path opacity="0.6" d="M252.739 242.914L244.348 250.813L241.642 247.909L251.246 239.162L252.739 242.914Z" fill="white"/>
<path d="M243.432 250.851H232.312L231.698 246.939L243.97 247.553L243.432 250.851Z" fill="#407BFF"/>
<path opacity="0.6" d="M243.432 250.851H232.312L231.698 246.939L243.97 247.553L243.432 250.851Z" fill="white"/>
<path d="M249.176 66.9677C254.482 67.7257 259.917 86.1603 259.917 86.1603L248.547 92.4668C248.547 92.4668 243.93 83.7044 241.725 77.2007C239.413 70.3863 243.498 66.1339 249.176 66.9677Z" fill="#407BFF"/>
<path opacity="0.7" d="M249.176 66.9677C254.482 67.7257 259.917 86.1603 259.917 86.1603L248.547 92.4668C248.547 92.4668 243.93 83.7044 241.725 77.2007C239.413 70.3863 243.498 66.1339 249.176 66.9677Z" fill="white"/>
<path opacity="0.2" d="M230.097 69.0977L227.823 71.5157L228.937 73.8503L230.749 73.9337L232.295 71.7052L230.097 69.0977Z" fill="black"/>
<path d="M229.136 73.4331C229.136 73.4331 224.823 91.2992 224.656 95.0134C224.421 100.122 226.559 108.847 226.559 108.847C226.559 108.847 229.591 101.593 230.213 94.8542C230.834 88.1156 230.372 77.2155 230.652 73.4331H229.136Z" fill="#407BFF"/>
<path opacity="0.2" d="M229.136 73.4331C229.136 73.4331 224.823 91.2992 224.656 95.0134C224.421 100.122 226.559 108.847 226.559 108.847C226.559 108.847 229.591 101.593 230.213 94.8542C230.834 88.1156 230.372 77.2155 230.652 73.4331H229.136Z" fill="black"/>
<path d="M230.099 69.0976C230.962 70.4958 231.463 72.0879 231.554 73.729C231.554 73.729 241.014 70.3937 240.566 65.5046C240.566 65.5046 239.225 64.7088 238.376 64.0645C238.376 64.0645 238.058 67.1419 230.099 69.0976Z" fill="#407BFF"/>
<path opacity="0.6" d="M230.099 69.0976C230.962 70.4958 231.463 72.0879 231.554 73.729C231.554 73.729 241.014 70.3937 240.566 65.5046C240.566 65.5046 239.225 64.7088 238.376 64.0645C238.376 64.0645 238.058 67.1419 230.099 69.0976Z" fill="white"/>
<path d="M230.097 69.0974C229.228 70.4211 228.602 71.8894 228.248 73.4332C228.248 73.4332 223.965 70.5376 225.254 65.7092C226.039 65.3929 226.847 65.1395 227.672 64.9512C227.672 64.9512 227.111 68.0741 230.097 69.0974Z" fill="#407BFF"/>
<path opacity="0.6" d="M230.097 69.0974C229.228 70.4211 228.602 71.8894 228.248 73.4332C228.248 73.4332 223.965 70.5376 225.254 65.7092C226.039 65.3929 226.847 65.1395 227.672 64.9512C227.672 64.9512 227.111 68.0741 230.097 69.0974Z" fill="white"/>
</svg>
