<svg width="105" height="105" viewBox="0 0 105 105" fill="none" xmlns="http://www.w3.org/2000/svg">
<rect x="1" y="1" width="103" height="103" rx="51.5" fill="#D6E3F9" fill-opacity="0.16" stroke="#2B4798" stroke-width="2" stroke-linecap="round" stroke-linejoin="round" stroke-dasharray="4 8"/>
<path d="M52.5 52.5C56.9545 52.5 60.5625 48.892 60.5625 44.4375C60.5625 39.983 56.9545 36.375 52.5 36.375C48.0455 36.375 44.4375 39.983 44.4375 44.4375C44.4375 48.892 48.0455 52.5 52.5 52.5ZM52.5 56.5312C47.1183 56.5312 36.375 59.2322 36.375 64.5938V66.6094C36.375 67.718 37.282 68.625 38.3906 68.625H66.6094C67.718 68.625 68.625 67.718 68.625 66.6094V64.5938C68.625 59.2322 57.8817 56.5312 52.5 56.5312Z" fill="#2B4798"/>
</svg>
