<svg width="287" height="287" viewBox="0 0 287 287" fill="none" xmlns="http://www.w3.org/2000/svg">
<mask id="mask0" mask-type="alpha" maskUnits="userSpaceOnUse" x="0" y="0" width="287" height="287">
<rect width="287" height="287" rx="143.5" fill="white"/>
</mask>
<g mask="url(#mask0)">
<path d="M79.2632 160.089C35.5014 135.717 32.5396 45.7595 96.3741 53.6635C118.708 56.4302 134.947 76.6751 155.737 83.5115C179.759 91.381 197.186 78.4947 220.025 79.8666C274.314 83.1269 276.185 150.756 229.783 168.32C204.791 177.785 180.666 176.012 155.565 172.418C133.742 169.256 99.8755 171.557 79.2632 160.089Z" fill="#407BFF"/>
<path opacity="0.9" d="M79.2632 160.089C35.5014 135.717 32.5396 45.7595 96.3741 53.6635C118.708 56.4302 134.947 76.6751 155.737 83.5115C179.759 91.381 197.186 78.4947 220.025 79.8666C274.314 83.1269 276.185 150.756 229.783 168.32C204.791 177.785 180.666 176.012 155.565 172.418C133.742 169.256 99.8755 171.557 79.2632 160.089Z" fill="#FAFAFA"/>
<path d="M143.5 245C197.348 245 241 242.09 241 238.5C241 234.91 197.348 232 143.5 232C89.6525 232 46.0002 234.91 46.0002 238.5C46.0002 242.09 89.6525 245 143.5 245Z" fill="#F5F5F5"/>
<path d="M103.578 156.381C103.238 156.358 102.919 156.207 102.686 155.959C102.452 155.71 102.323 155.381 102.323 155.04C102.323 154.699 102.452 154.371 102.686 154.122C102.919 153.873 103.238 153.722 103.578 153.7C106.861 153.7 109.628 148.999 109.628 143.431C109.65 143.091 109.801 142.772 110.05 142.539C110.299 142.306 110.627 142.176 110.968 142.176C111.309 142.176 111.638 142.306 111.887 142.539C112.136 142.772 112.286 143.091 112.309 143.431C112.309 150.692 108.486 156.381 103.578 156.381Z" fill="#407BFF"/>
<path d="M123.834 156.381C123.494 156.358 123.175 156.207 122.941 155.959C122.708 155.71 122.579 155.381 122.579 155.04C122.579 154.699 122.708 154.371 122.941 154.122C123.175 153.873 123.494 153.722 123.834 153.7C127.117 153.7 129.884 148.999 129.884 143.431C129.906 143.091 130.057 142.772 130.306 142.539C130.555 142.306 130.883 142.176 131.224 142.176C131.565 142.176 131.894 142.306 132.142 142.539C132.391 142.772 132.542 143.091 132.565 143.431C132.593 150.692 128.73 156.381 123.834 156.381Z" fill="#407BFF"/>
<path d="M144.074 156.381C143.733 156.358 143.414 156.207 143.181 155.959C142.948 155.71 142.818 155.381 142.818 155.04C142.818 154.699 142.948 154.371 143.181 154.122C143.414 153.873 143.733 153.722 144.074 153.7C147.351 153.7 150.124 148.999 150.124 143.431C150.124 143.076 150.264 142.736 150.515 142.485C150.766 142.235 151.106 142.094 151.461 142.094C151.816 142.094 152.156 142.235 152.407 142.485C152.657 142.736 152.798 143.076 152.798 143.431C152.816 150.692 148.987 156.381 144.074 156.381Z" fill="#407BFF"/>
<path d="M164.347 156.381C164.164 156.393 163.98 156.367 163.807 156.305C163.634 156.243 163.476 156.146 163.341 156.021C163.207 155.895 163.1 155.743 163.027 155.575C162.954 155.406 162.917 155.224 162.917 155.04C162.917 154.857 162.954 154.675 163.027 154.506C163.1 154.337 163.207 154.186 163.341 154.06C163.476 153.934 163.634 153.838 163.807 153.776C163.98 153.714 164.164 153.688 164.347 153.7C167.625 153.7 170.397 148.999 170.397 143.431C170.397 143.076 170.538 142.736 170.789 142.485C171.04 142.235 171.38 142.094 171.735 142.094C172.089 142.094 172.43 142.235 172.68 142.485C172.931 142.736 173.072 143.076 173.072 143.431C173.072 150.692 169.238 156.381 164.347 156.381Z" fill="#407BFF"/>
<path d="M184.598 156.381C184.258 156.358 183.939 156.207 183.705 155.959C183.472 155.71 183.343 155.381 183.343 155.04C183.343 154.699 183.472 154.371 183.705 154.122C183.939 153.873 184.258 153.722 184.598 153.7C187.881 153.7 190.648 148.999 190.648 143.431C190.67 143.091 190.821 142.772 191.07 142.539C191.319 142.306 191.647 142.176 191.988 142.176C192.329 142.176 192.657 142.306 192.906 142.539C193.155 142.772 193.306 143.091 193.328 143.431C193.328 150.692 189.494 156.381 184.598 156.381Z" fill="#407BFF"/>
<path d="M204.855 156.381C204.514 156.358 204.195 156.207 203.962 155.959C203.729 155.71 203.599 155.381 203.599 155.04C203.599 154.699 203.729 154.371 203.962 154.122C204.195 153.873 204.514 153.722 204.855 153.7C208.132 153.7 210.905 148.999 210.905 143.431C210.927 143.091 211.078 142.772 211.327 142.539C211.576 142.306 211.904 142.176 212.245 142.176C212.586 142.176 212.914 142.306 213.163 142.539C213.412 142.772 213.563 143.091 213.585 143.431C213.585 150.692 209.751 156.381 204.855 156.381Z" fill="#407BFF"/>
<g opacity="0.3">
<path opacity="0.3" d="M103.578 156.38C103.238 156.357 102.919 156.206 102.686 155.958C102.452 155.709 102.323 155.38 102.323 155.039C102.323 154.698 102.452 154.37 102.686 154.121C102.919 153.872 103.238 153.721 103.578 153.699C106.861 153.699 109.628 148.998 109.628 143.43C109.65 143.09 109.801 142.771 110.05 142.538C110.299 142.305 110.627 142.175 110.968 142.175C111.309 142.175 111.638 142.305 111.887 142.538C112.136 142.771 112.286 143.09 112.309 143.43C112.309 150.691 108.486 156.38 103.578 156.38Z" fill="black"/>
<path opacity="0.3" d="M123.835 156.381C123.495 156.358 123.176 156.207 122.943 155.959C122.71 155.71 122.58 155.381 122.58 155.04C122.58 154.699 122.71 154.371 122.943 154.122C123.176 153.873 123.495 153.722 123.835 153.7C127.119 153.7 129.885 148.999 129.885 143.431C129.907 143.091 130.058 142.772 130.307 142.539C130.556 142.306 130.884 142.176 131.225 142.176C131.567 142.176 131.895 142.306 132.144 142.539C132.393 142.772 132.543 143.091 132.566 143.431C132.594 150.692 128.731 156.381 123.835 156.381Z" fill="black"/>
<path opacity="0.3" d="M144.074 156.381C143.733 156.358 143.414 156.207 143.181 155.959C142.948 155.71 142.818 155.381 142.818 155.04C142.818 154.699 142.948 154.371 143.181 154.122C143.414 153.873 143.733 153.722 144.074 153.7C147.351 153.7 150.124 148.999 150.124 143.431C150.124 143.076 150.264 142.736 150.515 142.485C150.766 142.235 151.106 142.094 151.461 142.094C151.816 142.094 152.156 142.235 152.407 142.485C152.657 142.736 152.798 143.076 152.798 143.431C152.816 150.692 148.987 156.381 144.074 156.381Z" fill="black"/>
<path opacity="0.3" d="M164.347 156.381C164.164 156.393 163.98 156.367 163.807 156.305C163.634 156.243 163.476 156.146 163.341 156.021C163.207 155.895 163.1 155.743 163.027 155.575C162.954 155.406 162.917 155.224 162.917 155.04C162.917 154.857 162.954 154.675 163.027 154.506C163.1 154.337 163.207 154.186 163.341 154.06C163.476 153.934 163.634 153.838 163.807 153.776C163.98 153.714 164.164 153.688 164.347 153.7C167.625 153.7 170.397 148.999 170.397 143.431C170.397 143.076 170.538 142.736 170.789 142.485C171.04 142.235 171.38 142.094 171.735 142.094C172.089 142.094 172.43 142.235 172.68 142.485C172.931 142.736 173.072 143.076 173.072 143.431C173.072 150.692 169.238 156.381 164.347 156.381Z" fill="black"/>
<path opacity="0.3" d="M184.598 156.381C184.258 156.358 183.939 156.207 183.705 155.959C183.472 155.71 183.343 155.381 183.343 155.04C183.343 154.699 183.472 154.371 183.705 154.122C183.939 153.873 184.258 153.722 184.598 153.7C187.881 153.7 190.648 148.999 190.648 143.431C190.67 143.091 190.821 142.772 191.07 142.539C191.319 142.306 191.647 142.176 191.988 142.176C192.329 142.176 192.657 142.306 192.906 142.539C193.155 142.772 193.306 143.091 193.328 143.431C193.328 150.692 189.494 156.381 184.598 156.381Z" fill="black"/>
<path opacity="0.3" d="M204.855 156.381C204.514 156.358 204.195 156.207 203.962 155.959C203.729 155.71 203.599 155.381 203.599 155.04C203.599 154.699 203.729 154.371 203.962 154.122C204.195 153.873 204.514 153.722 204.855 153.7C208.132 153.7 210.905 148.999 210.905 143.431C210.927 143.091 211.078 142.772 211.327 142.539C211.576 142.306 211.904 142.176 212.245 142.176C212.586 142.176 212.914 142.306 213.163 142.539C213.412 142.772 213.563 143.091 213.585 143.431C213.585 150.692 209.751 156.381 204.855 156.381Z" fill="black"/>
</g>
<path d="M90.8868 144.803H221.288C223.037 144.838 224.712 145.51 226 146.692C227.289 147.875 228.101 149.487 228.285 151.226L235.506 232.636C235.594 233.453 235.507 234.28 235.252 235.06C234.997 235.841 234.578 236.559 234.025 237.166C233.472 237.773 232.795 238.256 232.041 238.583C231.288 238.909 230.473 239.072 229.651 239.06H99.2442C97.4966 239.022 95.8224 238.349 94.5346 237.167C93.2469 235.985 92.4337 234.375 92.2472 232.636L85.032 151.226C84.9432 150.409 85.0291 149.582 85.2841 148.801C85.5391 148.02 85.9573 147.302 86.5109 146.694C87.0646 146.087 87.7411 145.604 88.4955 145.278C89.2499 144.952 90.065 144.79 90.8868 144.803Z" fill="#407BFF"/>
<path opacity="0.4" d="M90.8868 144.803H221.288C223.037 144.838 224.712 145.51 226 146.692C227.289 147.875 228.101 149.487 228.285 151.226L235.506 232.636C235.594 233.453 235.507 234.28 235.252 235.06C234.997 235.841 234.578 236.559 234.025 237.166C233.472 237.773 232.795 238.256 232.041 238.583C231.288 238.909 230.473 239.072 229.651 239.06H99.2442C97.4966 239.022 95.8224 238.349 94.5346 237.167C93.2469 235.985 92.4337 234.375 92.2472 232.636L85.032 151.226C84.9432 150.409 85.0291 149.582 85.2841 148.801C85.5391 148.02 85.9573 147.302 86.5109 146.694C87.0646 146.087 87.7411 145.604 88.4955 145.278C89.2499 144.952 90.065 144.79 90.8868 144.803Z" fill="#FAFAFA"/>
<path d="M220.203 144.803H89.7963C88.0714 144.823 86.4186 145.498 85.172 146.69C83.9254 147.883 83.1778 149.504 83.0805 151.226L79.4069 232.636C79.3632 233.466 79.4892 234.295 79.7772 235.074C80.0653 235.853 80.5094 236.565 81.0822 237.166C81.6551 237.768 82.3446 238.246 83.1087 238.571C83.8728 238.897 84.6953 239.063 85.5258 239.059H215.944C217.669 239.039 219.322 238.364 220.569 237.172C221.815 235.98 222.563 234.359 222.66 232.636L226.339 151.226C226.382 150.395 226.255 149.565 225.966 148.785C225.676 148.005 225.231 147.293 224.656 146.691C224.082 146.09 223.39 145.612 222.625 145.287C221.859 144.963 221.035 144.798 220.203 144.803Z" fill="#407BFF"/>
<path opacity="0.2" d="M220.203 144.803H89.7963C88.0714 144.823 86.4186 145.498 85.172 146.69C83.9254 147.883 83.1778 149.504 83.0805 151.226L79.4069 232.636C79.3632 233.466 79.4892 234.295 79.7772 235.074C80.0653 235.853 80.5094 236.565 81.0822 237.166C81.6551 237.768 82.3446 238.246 83.1087 238.571C83.8728 238.897 84.6953 239.063 85.5258 239.059H215.944C217.669 239.039 219.322 238.364 220.569 237.172C221.815 235.98 222.563 234.359 222.66 232.636L226.339 151.226C226.382 150.395 226.255 149.565 225.966 148.785C225.676 148.005 225.231 147.293 224.656 146.691C224.082 146.09 223.39 145.612 222.625 145.287C221.859 144.963 221.035 144.798 220.203 144.803Z" fill="#FAFAFA"/>
<path d="M92.1899 217.546L95.2263 150.313C95.2628 149.654 95.5488 149.033 96.0264 148.576C96.504 148.12 97.1374 147.863 97.7979 147.856H211.926C212.244 147.855 212.56 147.918 212.853 148.042C213.146 148.166 213.41 148.349 213.63 148.579C213.85 148.809 214.02 149.081 214.131 149.379C214.242 149.678 214.29 149.995 214.274 150.313L211.232 217.546C211.195 218.205 210.909 218.826 210.432 219.283C209.954 219.739 209.321 219.996 208.66 220.003H94.5375C94.2194 220.005 93.9042 219.942 93.6112 219.817C93.3183 219.693 93.0538 219.51 92.834 219.28C92.6141 219.05 92.4436 218.778 92.3329 218.48C92.2221 218.181 92.1735 217.864 92.1899 217.546Z" fill="#407BFF"/>
<path opacity="0.1" d="M92.1899 217.546L95.2263 150.313C95.2628 149.654 95.5488 149.033 96.0264 148.576C96.504 148.12 97.1374 147.863 97.7979 147.856H211.926C212.244 147.855 212.56 147.918 212.853 148.042C213.146 148.166 213.41 148.349 213.63 148.579C213.85 148.809 214.02 149.081 214.131 149.379C214.242 149.678 214.29 149.995 214.274 150.313L211.232 217.546C211.195 218.205 210.909 218.826 210.432 219.283C209.954 219.739 209.321 219.996 208.66 220.003H94.5375C94.2194 220.005 93.9042 219.942 93.6112 219.817C93.3183 219.693 93.0538 219.51 92.834 219.28C92.6141 219.05 92.4436 218.778 92.3329 218.48C92.2221 218.181 92.1735 217.864 92.1899 217.546Z" fill="#FAFAFA"/>
<path opacity="0.1" d="M88.9696 223.033L92.1553 152.431C92.1918 151.739 92.4914 151.086 92.9928 150.607C93.4942 150.128 94.1596 149.859 94.8531 149.854H214.704C215.038 149.851 215.369 149.917 215.677 150.047C215.985 150.177 216.262 150.369 216.493 150.61C216.724 150.852 216.903 151.138 217.018 151.451C217.134 151.764 217.185 152.098 217.167 152.431L213.975 223.033C213.939 223.725 213.64 224.378 213.14 224.857C212.64 225.337 211.976 225.609 211.283 225.616H91.4205C91.0868 225.618 90.7561 225.552 90.449 225.421C90.1419 225.291 89.865 225.098 89.6352 224.856C89.4055 224.614 89.2279 224.327 89.1134 224.014C88.9989 223.7 88.9499 223.367 88.9696 223.033Z" fill="black"/>
<path d="M86.0077 228.727L89.3312 155.083C89.3758 154.363 89.69 153.686 90.2112 153.187C90.7324 152.689 91.4224 152.404 92.1438 152.391H217.167C217.516 152.388 217.861 152.457 218.182 152.593C218.504 152.729 218.794 152.929 219.035 153.181C219.276 153.433 219.462 153.732 219.583 154.059C219.704 154.386 219.757 154.735 219.738 155.083L216.398 228.727C216.353 229.448 216.039 230.124 215.518 230.623C214.996 231.122 214.306 231.406 213.585 231.42H88.5792C88.2302 231.423 87.8841 231.355 87.5625 231.22C87.2408 231.084 86.9504 230.884 86.7093 230.631C86.4682 230.379 86.2815 230.08 86.1609 229.752C86.0402 229.425 85.988 229.076 86.0077 228.727Z" fill="#FAFAFA"/>
<path d="M204.837 156.805C204.602 156.806 204.37 156.758 204.154 156.665C203.938 156.572 203.743 156.436 203.582 156.265C203.42 156.094 203.296 155.892 203.216 155.671C203.135 155.45 203.101 155.215 203.115 154.98C203.137 154.519 203.334 154.085 203.666 153.764C203.998 153.444 204.44 153.263 204.901 153.258C205.136 153.257 205.368 153.305 205.584 153.398C205.8 153.491 205.995 153.627 206.156 153.798C206.318 153.969 206.442 154.171 206.522 154.392C206.603 154.613 206.637 154.848 206.623 155.083C206.601 155.544 206.404 155.978 206.072 156.299C205.74 156.619 205.298 156.8 204.837 156.805Z" fill="#407BFF"/>
<path d="M184.581 156.805C184.345 156.806 184.113 156.758 183.897 156.665C183.681 156.572 183.486 156.436 183.325 156.265C183.164 156.094 183.039 155.892 182.959 155.671C182.879 155.45 182.844 155.215 182.859 154.98C182.88 154.519 183.078 154.085 183.409 153.764C183.741 153.444 184.183 153.263 184.644 153.258C184.879 153.257 185.111 153.305 185.327 153.398C185.543 153.491 185.738 153.627 185.899 153.798C186.061 153.969 186.185 154.171 186.265 154.392C186.346 154.613 186.38 154.848 186.366 155.083C186.345 155.544 186.149 155.98 185.816 156.3C185.484 156.62 185.042 156.801 184.581 156.805Z" fill="#407BFF"/>
<path d="M164.324 156.805C164.089 156.806 163.857 156.758 163.641 156.665C163.425 156.572 163.23 156.436 163.069 156.265C162.907 156.094 162.783 155.892 162.703 155.671C162.622 155.45 162.588 155.215 162.602 154.98C162.626 154.52 162.823 154.086 163.155 153.766C163.486 153.446 163.927 153.265 164.388 153.258C164.623 153.257 164.855 153.305 165.071 153.398C165.287 153.491 165.482 153.627 165.643 153.798C165.805 153.969 165.929 154.171 166.009 154.392C166.09 154.613 166.124 154.848 166.11 155.083C166.089 155.544 165.892 155.98 165.56 156.3C165.228 156.62 164.786 156.801 164.324 156.805Z" fill="#407BFF"/>
<path d="M144.074 156.805C143.838 156.806 143.606 156.758 143.39 156.665C143.174 156.572 142.979 156.436 142.818 156.265C142.656 156.094 142.532 155.892 142.452 155.671C142.371 155.45 142.337 155.215 142.351 154.98C142.376 154.519 142.575 154.085 142.907 153.766C143.24 153.446 143.681 153.264 144.142 153.258C144.377 153.257 144.61 153.305 144.826 153.398C145.042 153.491 145.237 153.627 145.398 153.798C145.559 153.969 145.684 154.171 145.764 154.392C145.844 154.613 145.878 154.848 145.864 155.083C145.844 155.545 145.646 155.982 145.313 156.302C144.98 156.623 144.536 156.803 144.074 156.805Z" fill="#407BFF"/>
<path d="M123.817 156.805C123.582 156.806 123.35 156.758 123.134 156.665C122.918 156.572 122.723 156.436 122.562 156.265C122.4 156.094 122.276 155.892 122.196 155.671C122.115 155.45 122.081 155.215 122.095 154.98C122.117 154.519 122.314 154.085 122.646 153.764C122.978 153.444 123.42 153.263 123.881 153.258C124.116 153.257 124.348 153.305 124.564 153.398C124.78 153.491 124.975 153.627 125.136 153.798C125.298 153.969 125.422 154.171 125.502 154.392C125.583 154.613 125.617 154.848 125.603 155.083C125.581 155.544 125.384 155.978 125.052 156.299C124.72 156.619 124.278 156.8 123.817 156.805Z" fill="#407BFF"/>
<path d="M103.561 156.805C103.325 156.806 103.093 156.758 102.877 156.665C102.661 156.572 102.466 156.436 102.305 156.265C102.144 156.094 102.019 155.892 101.939 155.671C101.859 155.45 101.824 155.215 101.839 154.98C101.86 154.519 102.057 154.085 102.389 153.764C102.721 153.444 103.163 153.263 103.624 153.258C103.859 153.257 104.091 153.305 104.307 153.398C104.523 153.491 104.718 153.627 104.879 153.798C105.041 153.969 105.165 154.171 105.246 154.392C105.326 154.613 105.36 154.848 105.346 155.083C105.325 155.544 105.129 155.98 104.796 156.3C104.464 156.62 104.022 156.801 103.561 156.805Z" fill="#407BFF"/>
<g opacity="0.1">
<path opacity="0.1" d="M204.837 156.805C204.602 156.806 204.37 156.758 204.154 156.665C203.938 156.572 203.743 156.436 203.582 156.265C203.42 156.094 203.296 155.892 203.216 155.671C203.135 155.45 203.101 155.215 203.115 154.98C203.137 154.519 203.334 154.085 203.666 153.764C203.998 153.444 204.44 153.263 204.901 153.258C205.136 153.257 205.368 153.305 205.584 153.398C205.8 153.491 205.995 153.627 206.156 153.798C206.318 153.969 206.442 154.171 206.522 154.392C206.603 154.613 206.637 154.848 206.623 155.083C206.601 155.544 206.404 155.978 206.072 156.299C205.74 156.619 205.298 156.8 204.837 156.805Z" fill="#FAFAFA"/>
<path opacity="0.1" d="M184.58 156.805C184.345 156.806 184.113 156.758 183.897 156.665C183.681 156.572 183.486 156.436 183.325 156.265C183.163 156.094 183.039 155.892 182.959 155.671C182.878 155.45 182.844 155.215 182.858 154.98C182.88 154.519 183.077 154.085 183.409 153.764C183.741 153.444 184.182 153.263 184.643 153.258C184.879 153.257 185.111 153.305 185.327 153.398C185.543 153.491 185.738 153.627 185.899 153.798C186.06 153.969 186.185 154.171 186.265 154.392C186.345 154.613 186.38 154.848 186.365 155.083C186.345 155.544 186.148 155.98 185.816 156.3C185.484 156.62 185.042 156.801 184.58 156.805Z" fill="#FAFAFA"/>
<path opacity="0.1" d="M164.324 156.805C164.089 156.806 163.857 156.758 163.641 156.665C163.425 156.572 163.23 156.436 163.069 156.265C162.907 156.094 162.783 155.892 162.703 155.671C162.622 155.45 162.588 155.215 162.602 154.98C162.626 154.52 162.823 154.086 163.155 153.766C163.486 153.446 163.927 153.265 164.388 153.258C164.623 153.257 164.855 153.305 165.071 153.398C165.287 153.491 165.482 153.627 165.643 153.798C165.805 153.969 165.929 154.171 166.009 154.392C166.09 154.613 166.124 154.848 166.11 155.083C166.089 155.544 165.892 155.98 165.56 156.3C165.228 156.62 164.786 156.801 164.324 156.805Z" fill="#FAFAFA"/>
<path opacity="0.1" d="M144.074 156.805C143.839 156.806 143.606 156.758 143.39 156.665C143.174 156.572 142.979 156.436 142.818 156.265C142.657 156.094 142.532 155.892 142.452 155.671C142.372 155.45 142.338 155.215 142.352 154.98C142.376 154.519 142.575 154.085 142.908 153.766C143.24 153.446 143.681 153.264 144.143 153.258C144.378 153.257 144.61 153.305 144.826 153.398C145.042 153.491 145.237 153.627 145.398 153.798C145.56 153.969 145.684 154.171 145.764 154.392C145.845 154.613 145.879 154.848 145.865 155.083C145.844 155.545 145.647 155.982 145.313 156.302C144.98 156.623 144.536 156.803 144.074 156.805Z" fill="#FAFAFA"/>
<path opacity="0.1" d="M123.818 156.805C123.583 156.806 123.35 156.758 123.134 156.665C122.918 156.572 122.723 156.436 122.562 156.265C122.401 156.094 122.276 155.892 122.196 155.671C122.116 155.45 122.082 155.215 122.096 154.98C122.118 154.519 122.315 154.085 122.646 153.764C122.978 153.444 123.42 153.263 123.881 153.258C124.116 153.257 124.349 153.305 124.565 153.398C124.78 153.491 124.975 153.627 125.136 153.798C125.298 153.969 125.422 154.171 125.503 154.392C125.583 154.613 125.617 154.848 125.603 155.083C125.581 155.544 125.384 155.978 125.052 156.299C124.72 156.619 124.279 156.8 123.818 156.805Z" fill="#FAFAFA"/>
<path opacity="0.1" d="M103.561 156.805C103.325 156.806 103.093 156.758 102.877 156.665C102.661 156.572 102.466 156.436 102.305 156.265C102.144 156.094 102.019 155.892 101.939 155.671C101.859 155.45 101.824 155.215 101.839 154.98C101.86 154.519 102.057 154.085 102.389 153.764C102.721 153.444 103.163 153.263 103.624 153.258C103.859 153.257 104.091 153.305 104.307 153.398C104.523 153.491 104.718 153.627 104.879 153.798C105.041 153.969 105.165 154.171 105.246 154.392C105.326 154.613 105.36 154.848 105.346 155.083C105.325 155.544 105.129 155.98 104.796 156.3C104.464 156.62 104.022 156.801 103.561 156.805Z" fill="#FAFAFA"/>
</g>
<path d="M108.624 163.222H98.4353C98.2876 163.224 98.1412 163.194 98.0055 163.136C97.8697 163.078 97.7476 162.992 97.6467 162.884C97.5458 162.776 97.4684 162.648 97.4194 162.509C97.3704 162.37 97.3508 162.222 97.3619 162.074C97.3733 161.773 97.4979 161.488 97.7108 161.275C97.9236 161.062 98.2091 160.938 98.5099 160.926H108.698C108.846 160.925 108.992 160.955 109.128 161.013C109.264 161.071 109.386 161.157 109.487 161.265C109.588 161.373 109.665 161.5 109.714 161.64C109.763 161.779 109.783 161.927 109.772 162.074C109.76 162.375 109.636 162.661 109.423 162.873C109.21 163.086 108.925 163.211 108.624 163.222Z" fill="#407BFF"/>
<path d="M128.88 163.222H118.691C118.543 163.224 118.397 163.194 118.261 163.136C118.126 163.078 118.003 162.992 117.903 162.884C117.802 162.776 117.724 162.648 117.675 162.509C117.626 162.37 117.607 162.222 117.618 162.074C117.63 161.769 117.758 161.479 117.977 161.266C118.196 161.052 118.489 160.93 118.794 160.926H128.977C129.125 160.925 129.272 160.955 129.408 161.013C129.544 161.071 129.666 161.157 129.768 161.264C129.869 161.372 129.947 161.5 129.997 161.639C130.046 161.779 130.067 161.927 130.056 162.074C130.045 162.38 129.916 162.669 129.697 162.883C129.478 163.097 129.186 163.218 128.88 163.222Z" fill="#407BFF"/>
<path d="M149.137 163.222H138.948C138.8 163.223 138.654 163.194 138.518 163.136C138.382 163.078 138.259 162.992 138.158 162.884C138.057 162.776 137.979 162.649 137.929 162.509C137.879 162.37 137.859 162.222 137.869 162.074C137.881 161.769 138.01 161.479 138.229 161.266C138.448 161.052 138.74 160.93 139.046 160.926H149.24C149.388 160.925 149.534 160.955 149.67 161.013C149.806 161.071 149.928 161.157 150.029 161.265C150.13 161.373 150.207 161.5 150.256 161.64C150.305 161.779 150.325 161.927 150.314 162.074C150.303 162.38 150.175 162.671 149.956 162.885C149.737 163.099 149.443 163.22 149.137 163.222Z" fill="#407BFF"/>
<path d="M169.387 163.222H159.198C159.051 163.224 158.904 163.194 158.768 163.136C158.633 163.078 158.51 162.992 158.41 162.884C158.309 162.776 158.231 162.648 158.182 162.509C158.133 162.37 158.114 162.222 158.125 162.074C158.136 161.773 158.261 161.488 158.474 161.275C158.687 161.062 158.972 160.938 159.273 160.926H169.461C169.609 160.925 169.755 160.955 169.891 161.013C170.027 161.071 170.149 161.157 170.25 161.265C170.351 161.373 170.428 161.5 170.477 161.64C170.526 161.779 170.546 161.927 170.535 162.074C170.523 162.375 170.399 162.661 170.186 162.873C169.973 163.086 169.688 163.211 169.387 163.222Z" fill="#407BFF"/>
<path d="M189.644 163.222H179.455C179.307 163.224 179.161 163.194 179.025 163.136C178.89 163.078 178.767 162.992 178.666 162.884C178.566 162.776 178.488 162.648 178.439 162.509C178.39 162.37 178.371 162.222 178.382 162.074C178.393 161.769 178.522 161.479 178.741 161.266C178.96 161.052 179.253 160.93 179.558 160.926H189.747C189.895 160.925 190.041 160.955 190.177 161.013C190.312 161.071 190.435 161.157 190.535 161.265C190.636 161.373 190.714 161.5 190.763 161.64C190.812 161.779 190.831 161.927 190.82 162.074C190.809 162.38 190.68 162.669 190.461 162.883C190.242 163.097 189.949 163.218 189.644 163.222Z" fill="#407BFF"/>
<path d="M209.9 163.222H199.712C199.564 163.224 199.418 163.194 199.282 163.136C199.146 163.078 199.024 162.992 198.923 162.884C198.822 162.776 198.745 162.648 198.696 162.509C198.647 162.37 198.627 162.222 198.639 162.074C198.65 161.769 198.779 161.479 198.998 161.266C199.217 161.052 199.509 160.93 199.815 160.926H209.998C210.146 160.925 210.293 160.955 210.429 161.013C210.565 161.071 210.687 161.157 210.788 161.264C210.89 161.372 210.968 161.5 211.017 161.639C211.067 161.779 211.087 161.927 211.077 162.074C211.065 162.38 210.937 162.669 210.718 162.883C210.499 163.097 210.206 163.218 209.9 163.222Z" fill="#407BFF"/>
<g opacity="0.3">
<path opacity="0.3" d="M108.624 163.222H98.4353C98.2876 163.224 98.1412 163.194 98.0055 163.136C97.8697 163.078 97.7476 162.992 97.6467 162.884C97.5458 162.776 97.4684 162.648 97.4194 162.509C97.3704 162.37 97.3508 162.222 97.3619 162.074C97.3733 161.773 97.4979 161.488 97.7108 161.275C97.9236 161.062 98.2091 160.938 98.5099 160.926H108.698C108.846 160.925 108.992 160.955 109.128 161.013C109.264 161.071 109.386 161.157 109.487 161.265C109.588 161.373 109.665 161.5 109.714 161.64C109.763 161.779 109.783 161.927 109.772 162.074C109.76 162.375 109.636 162.661 109.423 162.873C109.21 163.086 108.925 163.211 108.624 163.222Z" fill="black"/>
<path opacity="0.3" d="M128.881 163.222H118.692C118.545 163.224 118.398 163.194 118.263 163.136C118.127 163.078 118.005 162.992 117.904 162.884C117.803 162.776 117.725 162.648 117.676 162.509C117.627 162.37 117.608 162.222 117.619 162.074C117.631 161.769 117.759 161.479 117.978 161.266C118.197 161.052 118.49 160.93 118.796 160.926H128.978C129.126 160.925 129.273 160.955 129.409 161.013C129.545 161.071 129.668 161.157 129.769 161.264C129.87 161.372 129.948 161.5 129.998 161.639C130.048 161.779 130.068 161.927 130.058 162.074C130.046 162.38 129.917 162.669 129.698 162.883C129.479 163.097 129.187 163.218 128.881 163.222Z" fill="black"/>
<path opacity="0.3" d="M149.137 163.222H138.948C138.8 163.223 138.654 163.194 138.518 163.136C138.382 163.078 138.259 162.992 138.158 162.884C138.057 162.776 137.979 162.649 137.929 162.509C137.879 162.37 137.859 162.222 137.869 162.074C137.881 161.769 138.01 161.479 138.229 161.266C138.448 161.052 138.74 160.93 139.046 160.926H149.24C149.388 160.925 149.534 160.955 149.67 161.013C149.806 161.071 149.928 161.157 150.029 161.265C150.13 161.373 150.207 161.5 150.256 161.64C150.305 161.779 150.325 161.927 150.314 162.074C150.303 162.38 150.175 162.671 149.956 162.885C149.737 163.099 149.443 163.22 149.137 163.222Z" fill="black"/>
<path opacity="0.3" d="M169.388 163.222H159.199C159.051 163.224 158.905 163.194 158.769 163.136C158.634 163.078 158.511 162.992 158.411 162.884C158.31 162.776 158.232 162.648 158.183 162.509C158.134 162.37 158.115 162.222 158.126 162.074C158.137 161.773 158.262 161.488 158.475 161.275C158.688 161.062 158.973 160.938 159.274 160.926H169.462C169.61 160.925 169.756 160.955 169.892 161.013C170.028 161.071 170.15 161.157 170.251 161.265C170.352 161.373 170.429 161.5 170.478 161.64C170.527 161.779 170.547 161.927 170.536 162.074C170.524 162.375 170.4 162.661 170.187 162.873C169.974 163.086 169.689 163.211 169.388 163.222Z" fill="black"/>
<path opacity="0.3" d="M189.644 163.222H179.455C179.307 163.224 179.161 163.194 179.025 163.136C178.89 163.078 178.767 162.992 178.666 162.884C178.566 162.776 178.488 162.648 178.439 162.509C178.39 162.37 178.371 162.222 178.382 162.074C178.393 161.769 178.522 161.479 178.741 161.266C178.96 161.052 179.253 160.93 179.558 160.926H189.747C189.895 160.925 190.041 160.955 190.177 161.013C190.312 161.071 190.435 161.157 190.535 161.265C190.636 161.373 190.714 161.5 190.763 161.64C190.812 161.779 190.831 161.927 190.82 162.074C190.809 162.38 190.68 162.669 190.461 162.883C190.242 163.097 189.949 163.218 189.644 163.222Z" fill="black"/>
<path opacity="0.3" d="M209.9 163.222H199.712C199.564 163.224 199.418 163.194 199.282 163.136C199.146 163.078 199.024 162.992 198.923 162.884C198.822 162.776 198.745 162.648 198.696 162.509C198.647 162.37 198.627 162.222 198.639 162.074C198.65 161.769 198.779 161.479 198.998 161.266C199.217 161.052 199.509 160.93 199.815 160.926H209.998C210.146 160.925 210.293 160.955 210.429 161.013C210.565 161.071 210.687 161.157 210.788 161.264C210.89 161.372 210.968 161.5 211.017 161.639C211.067 161.779 211.087 161.927 211.077 162.074C211.065 162.38 210.937 162.669 210.718 162.883C210.499 163.097 210.206 163.218 209.9 163.222Z" fill="black"/>
</g>
<path d="M109.186 184.902H95.9154C95.6243 184.904 95.3361 184.845 95.0683 184.731C94.8005 184.617 94.5587 184.45 94.3578 184.239C94.1569 184.029 94.001 183.779 93.8997 183.507C93.7984 183.234 93.7538 182.943 93.7686 182.652L94.3426 169.381C94.3775 168.778 94.6397 168.211 95.0764 167.793C95.5131 167.376 96.0919 167.139 96.6961 167.131H109.967C110.258 167.13 110.546 167.188 110.814 167.302C111.082 167.416 111.324 167.584 111.525 167.794C111.725 168.005 111.881 168.254 111.983 168.527C112.084 168.8 112.129 169.091 112.114 169.381L111.54 182.652C111.504 183.255 111.241 183.822 110.805 184.239C110.368 184.656 109.79 184.893 109.186 184.902Z" fill="#407BFF"/>
<path d="M129.442 184.902H116.171C115.88 184.904 115.591 184.847 115.323 184.733C115.055 184.619 114.813 184.452 114.612 184.241C114.411 184.03 114.255 183.781 114.154 183.507C114.053 183.234 114.009 182.943 114.025 182.652L114.599 169.381C114.633 168.778 114.896 168.211 115.332 167.793C115.769 167.376 116.348 167.139 116.952 167.131H130.24C130.531 167.13 130.82 167.188 131.088 167.302C131.356 167.416 131.598 167.584 131.8 167.794C132.001 168.005 132.157 168.254 132.259 168.527C132.361 168.8 132.407 169.09 132.393 169.381L131.79 182.652C131.756 183.255 131.496 183.823 131.06 184.24C130.624 184.658 130.046 184.895 129.442 184.902Z" fill="#407BFF"/>
<path d="M149.694 184.902H136.428C136.137 184.904 135.849 184.845 135.581 184.731C135.312 184.617 135.07 184.45 134.869 184.24C134.668 184.029 134.511 183.78 134.409 183.507C134.307 183.234 134.262 182.943 134.276 182.652L134.85 169.381C134.885 168.778 135.147 168.211 135.584 167.793C136.02 167.376 136.599 167.139 137.203 167.131H150.468C150.76 167.129 151.048 167.187 151.317 167.301C151.585 167.414 151.827 167.582 152.028 167.793C152.229 168.003 152.385 168.253 152.486 168.526C152.587 168.8 152.631 169.091 152.615 169.381L152.041 182.652C152.007 183.255 151.745 183.821 151.31 184.239C150.874 184.656 150.297 184.893 149.694 184.902Z" fill="#407BFF"/>
<path d="M169.95 184.902H156.702C156.411 184.904 156.122 184.847 155.853 184.733C155.585 184.619 155.342 184.452 155.141 184.241C154.939 184.031 154.783 183.781 154.681 183.508C154.58 183.235 154.535 182.943 154.55 182.652L155.124 169.381C155.157 168.779 155.418 168.211 155.854 167.793C156.29 167.376 156.868 167.139 157.471 167.131H170.742C171.033 167.13 171.322 167.188 171.589 167.302C171.857 167.416 172.099 167.584 172.3 167.794C172.501 168.005 172.657 168.254 172.758 168.527C172.859 168.8 172.904 169.091 172.889 169.381L172.315 182.652C172.28 183.257 172.016 183.827 171.577 184.245C171.138 184.662 170.556 184.898 169.95 184.902Z" fill="#407BFF"/>
<path d="M190.206 184.902H176.935C176.644 184.904 176.356 184.845 176.088 184.731C175.821 184.617 175.579 184.45 175.378 184.239C175.177 184.029 175.021 183.779 174.92 183.507C174.818 183.234 174.774 182.943 174.789 182.652L175.363 169.381C175.397 168.778 175.66 168.211 176.096 167.793C176.533 167.376 177.112 167.139 177.716 167.131H190.981C191.273 167.129 191.562 167.187 191.83 167.301C192.099 167.414 192.341 167.582 192.543 167.792C192.744 168.003 192.9 168.253 193.002 168.526C193.104 168.799 193.149 169.09 193.134 169.381L192.56 182.652C192.524 183.255 192.261 183.822 191.824 184.239C191.388 184.656 190.81 184.893 190.206 184.902Z" fill="#407BFF"/>
<path d="M210.457 184.902H197.192C196.901 184.904 196.612 184.847 196.344 184.733C196.076 184.619 195.834 184.452 195.633 184.241C195.432 184.03 195.276 183.781 195.175 183.507C195.074 183.234 195.03 182.943 195.046 182.652L195.62 169.381C195.654 168.778 195.917 168.211 196.353 167.793C196.79 167.376 197.369 167.139 197.973 167.131H211.238C211.529 167.13 211.818 167.188 212.086 167.302C212.354 167.416 212.596 167.584 212.798 167.794C212.999 168.005 213.155 168.254 213.257 168.527C213.359 168.8 213.405 169.09 213.391 169.381L212.788 182.652C212.755 183.252 212.496 183.817 212.064 184.234C211.632 184.652 211.058 184.89 210.457 184.902Z" fill="#407BFF"/>
<g opacity="0.8">
<path opacity="0.8" d="M109.186 184.902H95.9154C95.6243 184.904 95.3361 184.845 95.0683 184.731C94.8005 184.617 94.5587 184.45 94.3578 184.239C94.1569 184.029 94.001 183.779 93.8997 183.507C93.7984 183.234 93.7538 182.943 93.7686 182.652L94.3426 169.381C94.3775 168.778 94.6397 168.211 95.0764 167.793C95.5131 167.376 96.0919 167.139 96.6961 167.131H109.967C110.258 167.13 110.546 167.188 110.814 167.302C111.082 167.416 111.324 167.584 111.525 167.794C111.725 168.005 111.881 168.254 111.983 168.527C112.084 168.8 112.129 169.091 112.114 169.381L111.54 182.652C111.504 183.255 111.241 183.822 110.805 184.239C110.368 184.656 109.79 184.893 109.186 184.902Z" fill="#FAFAFA"/>
<path opacity="0.8" d="M129.443 184.902H116.172C115.881 184.904 115.592 184.847 115.324 184.733C115.056 184.619 114.813 184.452 114.612 184.241C114.411 184.03 114.255 183.781 114.154 183.507C114.053 183.234 114.009 182.943 114.025 182.652L114.599 169.381C114.634 168.778 114.896 168.211 115.333 167.793C115.77 167.376 116.348 167.139 116.952 167.131H130.241C130.532 167.13 130.82 167.188 131.088 167.302C131.357 167.416 131.599 167.584 131.8 167.794C132.001 168.005 132.158 168.254 132.26 168.527C132.362 168.8 132.407 169.09 132.393 169.381L131.79 182.652C131.757 183.255 131.496 183.823 131.06 184.24C130.624 184.658 130.046 184.895 129.443 184.902Z" fill="#FAFAFA"/>
<path opacity="0.8" d="M149.694 184.902H136.428C136.137 184.904 135.849 184.845 135.581 184.731C135.312 184.617 135.07 184.45 134.869 184.24C134.668 184.029 134.511 183.78 134.409 183.507C134.307 183.234 134.262 182.943 134.276 182.652L134.85 169.381C134.885 168.778 135.147 168.211 135.584 167.793C136.02 167.376 136.599 167.139 137.203 167.131H150.468C150.76 167.129 151.048 167.187 151.317 167.301C151.585 167.414 151.827 167.582 152.028 167.793C152.229 168.003 152.385 168.253 152.486 168.526C152.587 168.8 152.631 169.091 152.615 169.381L152.041 182.652C152.007 183.255 151.745 183.821 151.31 184.239C150.874 184.656 150.297 184.893 149.694 184.902Z" fill="#FAFAFA"/>
<path opacity="0.8" d="M169.95 184.902H156.702C156.41 184.904 156.121 184.847 155.853 184.733C155.584 184.619 155.342 184.452 155.14 184.241C154.939 184.031 154.782 183.781 154.681 183.508C154.579 183.235 154.534 182.943 154.549 182.652L155.123 169.381C155.157 168.779 155.418 168.211 155.853 167.793C156.289 167.376 156.867 167.139 157.471 167.131H170.742C171.033 167.13 171.321 167.188 171.589 167.302C171.857 167.416 172.098 167.584 172.299 167.794C172.5 168.005 172.656 168.254 172.757 168.527C172.859 168.8 172.903 169.091 172.889 169.381L172.314 182.652C172.28 183.257 172.016 183.827 171.577 184.245C171.137 184.662 170.556 184.898 169.95 184.902Z" fill="#FAFAFA"/>
<path opacity="0.8" d="M190.206 184.902H176.935C176.644 184.904 176.356 184.845 176.088 184.731C175.82 184.617 175.578 184.45 175.378 184.239C175.177 184.029 175.021 183.779 174.919 183.507C174.818 183.234 174.774 182.943 174.788 182.652L175.362 169.381C175.397 168.778 175.659 168.211 176.096 167.793C176.533 167.376 177.112 167.139 177.716 167.131H190.981C191.272 167.129 191.561 167.187 191.83 167.301C192.098 167.414 192.341 167.582 192.542 167.792C192.744 168.003 192.9 168.253 193.002 168.526C193.104 168.799 193.148 169.09 193.133 169.381L192.559 182.652C192.523 183.255 192.261 183.822 191.824 184.239C191.388 184.656 190.81 184.893 190.206 184.902Z" fill="#FAFAFA"/>
<path opacity="0.8" d="M210.457 184.902H197.192C196.901 184.904 196.612 184.847 196.344 184.733C196.076 184.619 195.833 184.452 195.632 184.241C195.431 184.03 195.275 183.781 195.174 183.507C195.073 183.234 195.029 182.943 195.045 182.652L195.619 169.381C195.654 168.778 195.916 168.211 196.353 167.793C196.79 167.376 197.368 167.139 197.972 167.131H211.238C211.529 167.13 211.817 167.188 212.086 167.302C212.354 167.416 212.596 167.584 212.797 167.794C212.998 168.005 213.155 168.254 213.257 168.527C213.359 168.8 213.404 169.09 213.39 169.381L212.787 182.652C212.754 183.252 212.496 183.817 212.064 184.234C211.631 184.652 211.058 184.89 210.457 184.902Z" fill="#FAFAFA"/>
</g>
<path d="M108.256 205.492H94.985C94.6939 205.493 94.4057 205.435 94.1379 205.321C93.8701 205.207 93.6283 205.039 93.4274 204.829C93.2265 204.618 93.0706 204.369 92.9693 204.096C92.868 203.823 92.8234 203.532 92.8382 203.242L93.4122 189.971C93.4484 189.368 93.711 188.801 94.1474 188.384C94.5838 187.967 95.1619 187.73 95.7656 187.721H109.059C109.351 187.72 109.639 187.778 109.907 187.892C110.174 188.006 110.416 188.173 110.617 188.384C110.818 188.594 110.974 188.844 111.075 189.117C111.176 189.389 111.221 189.68 111.206 189.971L110.632 203.242C110.596 203.848 110.33 204.418 109.889 204.836C109.447 205.254 108.864 205.488 108.256 205.492Z" fill="#407BFF"/>
<path d="M128.513 205.492H115.242C114.951 205.493 114.663 205.435 114.395 205.321C114.127 205.207 113.885 205.039 113.684 204.829C113.484 204.618 113.328 204.369 113.226 204.096C113.125 203.823 113.08 203.532 113.095 203.242L113.669 189.971C113.704 189.368 113.966 188.8 114.403 188.382C114.84 187.965 115.419 187.728 116.023 187.721H129.288C129.582 187.719 129.873 187.777 130.143 187.892C130.414 188.007 130.658 188.176 130.86 188.389C131.062 188.602 131.219 188.855 131.319 189.131C131.42 189.407 131.463 189.7 131.446 189.994L130.872 203.242C130.839 203.846 130.576 204.416 130.138 204.834C129.7 205.252 129.119 205.487 128.513 205.492Z" fill="#407BFF"/>
<path d="M148.763 205.492H135.498C135.206 205.494 134.918 205.436 134.65 205.322C134.381 205.209 134.139 205.041 133.938 204.831C133.737 204.62 133.581 204.37 133.48 204.097C133.379 203.824 133.335 203.533 133.351 203.242L133.925 189.971C133.96 189.368 134.222 188.8 134.659 188.382C135.095 187.965 135.674 187.728 136.278 187.721H149.544C149.835 187.719 150.123 187.776 150.392 187.89C150.66 188.004 150.902 188.171 151.103 188.382C151.304 188.593 151.46 188.842 151.561 189.116C151.662 189.389 151.706 189.68 151.69 189.971L151.116 203.242C151.081 203.845 150.819 204.413 150.383 204.83C149.946 205.248 149.367 205.484 148.763 205.492Z" fill="#407BFF"/>
<path d="M169.02 205.492H155.755C155.464 205.493 155.175 205.435 154.907 205.321C154.639 205.207 154.397 205.04 154.196 204.829C153.994 204.619 153.838 204.37 153.736 204.097C153.634 203.824 153.589 203.533 153.603 203.242L154.177 189.971C154.21 189.368 154.471 188.801 154.907 188.383C155.343 187.965 155.921 187.729 156.524 187.721H169.795C170.091 187.716 170.384 187.772 170.657 187.885C170.93 187.999 171.176 188.168 171.38 188.381C171.585 188.595 171.743 188.848 171.844 189.126C171.946 189.404 171.989 189.699 171.971 189.994L171.397 203.265C171.356 203.868 171.088 204.433 170.647 204.847C170.206 205.26 169.625 205.491 169.02 205.492Z" fill="#407BFF"/>
<path d="M189.276 205.492H176.005C175.714 205.493 175.426 205.435 175.158 205.321C174.89 205.207 174.649 205.039 174.448 204.829C174.247 204.618 174.091 204.369 173.99 204.096C173.888 203.823 173.844 203.532 173.858 203.242L174.432 189.971C174.463 189.363 174.724 188.79 175.162 188.367C175.601 187.945 176.183 187.706 176.792 187.698H190.062C190.354 187.697 190.642 187.755 190.91 187.869C191.177 187.983 191.419 188.15 191.62 188.361C191.821 188.571 191.977 188.821 192.078 189.094C192.179 189.367 192.224 189.657 192.209 189.948L191.635 203.219C191.605 203.827 191.344 204.4 190.905 204.822C190.467 205.244 189.885 205.484 189.276 205.492Z" fill="#407BFF"/>
<path d="M209.51 205.492H196.262C195.97 205.494 195.682 205.436 195.414 205.322C195.145 205.209 194.903 205.041 194.702 204.831C194.501 204.62 194.345 204.37 194.244 204.097C194.143 203.824 194.099 203.533 194.115 203.242L194.689 189.971C194.724 189.368 194.986 188.8 195.423 188.382C195.859 187.965 196.438 187.728 197.042 187.721H210.307C210.599 187.72 210.887 187.778 211.155 187.892C211.423 188.006 211.666 188.173 211.867 188.383C212.068 188.594 212.225 188.843 212.327 189.116C212.429 189.389 212.474 189.68 212.46 189.971L211.857 203.242C211.824 203.844 211.563 204.412 211.127 204.83C210.691 205.247 210.113 205.484 209.51 205.492Z" fill="#407BFF"/>
<g opacity="0.8">
<path opacity="0.8" d="M108.256 205.492H94.985C94.6939 205.493 94.4057 205.435 94.1379 205.321C93.8701 205.207 93.6283 205.039 93.4274 204.829C93.2265 204.618 93.0706 204.369 92.9693 204.096C92.868 203.823 92.8234 203.532 92.8382 203.242L93.4122 189.971C93.4484 189.368 93.711 188.801 94.1474 188.384C94.5838 187.967 95.1619 187.73 95.7656 187.721H109.059C109.351 187.72 109.639 187.778 109.907 187.892C110.174 188.006 110.416 188.173 110.617 188.384C110.818 188.594 110.974 188.844 111.075 189.117C111.176 189.389 111.221 189.68 111.206 189.971L110.632 203.242C110.596 203.848 110.33 204.418 109.889 204.836C109.447 205.254 108.864 205.488 108.256 205.492Z" fill="#FAFAFA"/>
<path opacity="0.8" d="M128.513 205.492H115.242C114.951 205.493 114.663 205.435 114.395 205.321C114.127 205.207 113.885 205.039 113.684 204.829C113.484 204.618 113.328 204.369 113.226 204.096C113.125 203.823 113.08 203.532 113.095 203.242L113.669 189.971C113.704 189.368 113.966 188.8 114.403 188.382C114.84 187.965 115.419 187.728 116.023 187.721H129.288C129.582 187.719 129.873 187.777 130.143 187.892C130.414 188.007 130.658 188.176 130.86 188.389C131.062 188.602 131.219 188.855 131.319 189.131C131.42 189.407 131.463 189.7 131.446 189.994L130.872 203.242C130.839 203.846 130.576 204.416 130.138 204.834C129.699 205.252 129.119 205.487 128.513 205.492Z" fill="#FAFAFA"/>
<path opacity="0.8" d="M148.763 205.492H135.498C135.206 205.494 134.918 205.436 134.649 205.322C134.381 205.209 134.139 205.041 133.938 204.831C133.737 204.62 133.581 204.37 133.48 204.097C133.379 203.824 133.335 203.533 133.351 203.242L133.925 189.971C133.96 189.368 134.222 188.8 134.658 188.382C135.095 187.965 135.674 187.728 136.278 187.721H149.543C149.835 187.719 150.123 187.776 150.391 187.89C150.66 188.004 150.902 188.171 151.103 188.382C151.304 188.593 151.46 188.842 151.561 189.116C151.662 189.389 151.706 189.68 151.69 189.971L151.116 203.242C151.081 203.845 150.819 204.413 150.382 204.83C149.946 205.248 149.367 205.484 148.763 205.492Z" fill="#FAFAFA"/>
<path opacity="0.8" d="M169.019 205.492H155.754C155.463 205.493 155.174 205.435 154.906 205.321C154.638 205.207 154.396 205.039 154.195 204.829C153.993 204.618 153.837 204.369 153.735 204.096C153.633 203.823 153.588 203.532 153.602 203.242L154.176 189.971C154.209 189.368 154.47 188.8 154.906 188.383C155.342 187.965 155.92 187.728 156.523 187.721H169.794C170.09 187.715 170.383 187.771 170.656 187.885C170.929 187.998 171.175 188.167 171.379 188.381C171.584 188.594 171.742 188.848 171.843 189.125C171.945 189.403 171.988 189.699 171.97 189.994L171.396 203.264C171.355 203.868 171.087 204.433 170.646 204.846C170.205 205.259 169.624 205.49 169.019 205.492Z" fill="#FAFAFA"/>
<path opacity="0.8" d="M189.276 205.492H176.005C175.714 205.493 175.425 205.435 175.158 205.321C174.89 205.207 174.648 205.039 174.447 204.829C174.246 204.618 174.09 204.369 173.989 204.096C173.888 203.823 173.843 203.532 173.858 203.242L174.432 189.971C174.463 189.363 174.724 188.79 175.162 188.367C175.6 187.945 176.183 187.706 176.791 187.698H190.062C190.353 187.697 190.641 187.755 190.909 187.869C191.177 187.983 191.419 188.15 191.62 188.361C191.821 188.571 191.976 188.821 192.078 189.094C192.179 189.367 192.224 189.657 192.209 189.948L191.635 203.219C191.604 203.827 191.343 204.4 190.905 204.822C190.467 205.244 189.884 205.484 189.276 205.492Z" fill="#FAFAFA"/>
<path opacity="0.8" d="M209.509 205.492H196.261C195.97 205.494 195.682 205.436 195.413 205.322C195.145 205.209 194.903 205.041 194.702 204.831C194.501 204.62 194.345 204.37 194.244 204.097C194.143 203.824 194.099 203.533 194.115 203.242L194.689 189.971C194.723 189.368 194.986 188.8 195.422 188.382C195.859 187.965 196.438 187.728 197.042 187.721H210.307C210.599 187.72 210.887 187.778 211.155 187.892C211.423 188.006 211.665 188.173 211.867 188.383C212.068 188.594 212.224 188.843 212.326 189.116C212.428 189.389 212.474 189.68 212.46 189.971L211.857 203.242C211.824 203.844 211.563 204.412 211.127 204.83C210.691 205.247 210.113 205.484 209.509 205.492Z" fill="#FAFAFA"/>
</g>
<path d="M107.338 226.075H94.0554C93.7641 226.077 93.4754 226.02 93.2072 225.906C92.9391 225.792 92.697 225.625 92.4959 225.414C92.2948 225.203 92.1389 224.954 92.038 224.68C91.937 224.407 91.8929 224.116 91.9086 223.825L92.4826 210.56C92.5174 209.957 92.7796 209.389 93.2163 208.972C93.6531 208.554 94.2318 208.318 94.836 208.31H108.107C108.398 208.308 108.687 208.366 108.955 208.479C109.223 208.593 109.465 208.761 109.666 208.971C109.867 209.182 110.023 209.432 110.124 209.705C110.225 209.978 110.269 210.269 110.254 210.56L109.68 223.825C109.646 224.427 109.386 224.994 108.952 225.411C108.517 225.829 107.94 226.066 107.338 226.075Z" fill="#407BFF"/>
<path d="M127.583 226.075H114.312C114.02 226.077 113.732 226.02 113.464 225.906C113.195 225.792 112.953 225.625 112.752 225.414C112.551 225.203 112.395 224.954 112.294 224.68C112.193 224.407 112.149 224.116 112.165 223.825L112.739 210.56C112.772 209.957 113.034 209.388 113.471 208.97C113.908 208.553 114.488 208.317 115.092 208.31H128.358C128.649 208.307 128.939 208.364 129.207 208.478C129.476 208.591 129.719 208.758 129.921 208.969C130.123 209.18 130.279 209.43 130.38 209.704C130.482 209.977 130.526 210.269 130.51 210.56L129.936 223.825C129.904 224.43 129.643 224.999 129.205 225.417C128.768 225.835 128.188 226.07 127.583 226.075Z" fill="#407BFF"/>
<path d="M147.833 226.075H134.568C134.277 226.077 133.988 226.02 133.72 225.906C133.452 225.792 133.21 225.625 133.009 225.414C132.808 225.203 132.652 224.954 132.551 224.68C132.45 224.407 132.406 224.116 132.422 223.825L132.996 210.56C133.029 209.956 133.291 209.388 133.728 208.97C134.165 208.552 134.744 208.316 135.349 208.31H148.666C148.957 208.308 149.246 208.366 149.515 208.479C149.783 208.593 150.026 208.76 150.227 208.971C150.429 209.182 150.585 209.431 150.687 209.705C150.788 209.978 150.833 210.269 150.818 210.56L150.216 223.825C150.182 224.434 149.916 225.006 149.473 225.425C149.03 225.844 148.443 226.076 147.833 226.075Z" fill="#407BFF"/>
<path d="M168.09 226.075H154.824C154.533 226.077 154.244 226.02 153.976 225.906C153.707 225.792 153.465 225.625 153.263 225.414C153.062 225.204 152.905 224.954 152.804 224.681C152.702 224.408 152.657 224.116 152.672 223.825L153.246 210.56C153.278 209.957 153.539 209.389 153.975 208.971C154.411 208.553 154.99 208.317 155.594 208.31H168.865C169.156 208.308 169.444 208.366 169.713 208.479C169.981 208.593 170.223 208.761 170.424 208.971C170.625 209.182 170.781 209.432 170.882 209.705C170.983 209.978 171.027 210.269 171.011 210.56L170.437 223.825C170.404 224.428 170.143 224.996 169.707 225.413C169.271 225.831 168.693 226.068 168.09 226.075Z" fill="#407BFF"/>
<path d="M188.346 226.075H175.07C174.778 226.077 174.49 226.02 174.222 225.906C173.953 225.792 173.711 225.625 173.51 225.414C173.309 225.203 173.153 224.954 173.052 224.68C172.951 224.407 172.907 224.116 172.923 223.825L173.497 210.56C173.532 209.957 173.794 209.389 174.231 208.972C174.667 208.554 175.246 208.318 175.85 208.31H189.121C189.413 208.308 189.701 208.366 189.969 208.479C190.238 208.593 190.48 208.761 190.681 208.971C190.882 209.182 191.038 209.432 191.139 209.705C191.24 209.978 191.284 210.269 191.268 210.56L190.694 223.825C190.659 224.428 190.398 224.994 189.962 225.412C189.527 225.829 188.95 226.066 188.346 226.075Z" fill="#407BFF"/>
<path d="M208.603 226.075H195.332C195.041 226.077 194.752 226.02 194.484 225.906C194.216 225.792 193.974 225.625 193.773 225.414C193.572 225.203 193.416 224.954 193.315 224.68C193.214 224.407 193.17 224.116 193.185 223.825L193.759 210.56C193.793 209.956 194.055 209.388 194.492 208.97C194.929 208.552 195.508 208.316 196.113 208.31H209.378C209.67 208.308 209.958 208.366 210.227 208.479C210.495 208.593 210.738 208.76 210.939 208.971C211.141 209.182 211.297 209.431 211.399 209.705C211.501 209.978 211.545 210.269 211.53 210.56L210.928 223.825C210.896 224.425 210.639 224.99 210.207 225.407C209.776 225.824 209.203 226.063 208.603 226.075Z" fill="#407BFF"/>
<g opacity="0.8">
<path opacity="0.8" d="M107.338 226.075H94.0554C93.7641 226.077 93.4754 226.02 93.2072 225.906C92.9391 225.792 92.697 225.625 92.4959 225.414C92.2948 225.203 92.1389 224.954 92.038 224.68C91.937 224.407 91.8929 224.116 91.9086 223.825L92.4826 210.56C92.5174 209.957 92.7796 209.389 93.2163 208.972C93.6531 208.554 94.2318 208.318 94.836 208.31H108.107C108.398 208.308 108.687 208.366 108.955 208.479C109.223 208.593 109.465 208.761 109.666 208.971C109.867 209.182 110.023 209.432 110.124 209.705C110.225 209.978 110.269 210.269 110.254 210.56L109.68 223.825C109.646 224.427 109.386 224.994 108.952 225.411C108.517 225.829 107.94 226.066 107.338 226.075Z" fill="#FAFAFA"/>
<path opacity="0.8" d="M127.583 226.075H114.312C114.021 226.077 113.733 226.02 113.464 225.906C113.196 225.792 112.954 225.625 112.753 225.414C112.552 225.203 112.396 224.954 112.295 224.68C112.194 224.407 112.15 224.116 112.166 223.825L112.74 210.56C112.773 209.957 113.035 209.388 113.472 208.97C113.909 208.553 114.489 208.317 115.093 208.31H128.358C128.65 208.307 128.939 208.364 129.208 208.478C129.477 208.591 129.72 208.758 129.922 208.969C130.123 209.18 130.28 209.43 130.381 209.704C130.482 209.977 130.526 210.269 130.511 210.56L129.937 223.825C129.905 224.43 129.643 224.999 129.206 225.417C128.769 225.835 128.188 226.07 127.583 226.075Z" fill="#FAFAFA"/>
<path opacity="0.8" d="M147.834 226.075H134.569C134.277 226.077 133.989 226.02 133.72 225.906C133.452 225.792 133.21 225.625 133.009 225.414C132.808 225.203 132.652 224.954 132.551 224.68C132.45 224.407 132.406 224.116 132.422 223.825L132.996 210.56C133.029 209.956 133.291 209.388 133.728 208.97C134.165 208.552 134.745 208.316 135.349 208.31H148.666C148.957 208.308 149.246 208.366 149.515 208.479C149.783 208.593 150.026 208.76 150.227 208.971C150.429 209.182 150.585 209.431 150.687 209.705C150.789 209.978 150.833 210.269 150.818 210.56L150.216 223.825C150.182 224.434 149.916 225.006 149.473 225.425C149.03 225.844 148.443 226.076 147.834 226.075Z" fill="#FAFAFA"/>
<path opacity="0.8" d="M168.09 226.075H154.824C154.533 226.077 154.244 226.02 153.976 225.906C153.707 225.792 153.465 225.625 153.263 225.414C153.062 225.204 152.905 224.954 152.804 224.681C152.702 224.408 152.657 224.116 152.672 223.825L153.246 210.56C153.278 209.957 153.539 209.389 153.975 208.971C154.411 208.553 154.99 208.317 155.594 208.31H168.865C169.156 208.308 169.444 208.366 169.713 208.479C169.981 208.593 170.223 208.761 170.424 208.971C170.625 209.182 170.781 209.432 170.882 209.705C170.983 209.978 171.027 210.269 171.011 210.56L170.437 223.825C170.404 224.428 170.143 224.996 169.707 225.413C169.271 225.831 168.693 226.068 168.09 226.075Z" fill="#FAFAFA"/>
<path opacity="0.8" d="M188.346 226.075H175.07C174.778 226.077 174.49 226.02 174.221 225.906C173.953 225.792 173.711 225.625 173.51 225.414C173.309 225.203 173.153 224.954 173.052 224.68C172.951 224.407 172.907 224.116 172.923 223.825L173.497 210.56C173.532 209.957 173.794 209.389 174.23 208.972C174.667 208.554 175.246 208.318 175.85 208.31H189.121C189.412 208.308 189.701 208.366 189.969 208.479C190.237 208.593 190.479 208.761 190.681 208.971C190.882 209.182 191.037 209.432 191.138 209.705C191.239 209.978 191.283 210.269 191.268 210.56L190.694 223.825C190.659 224.428 190.398 224.994 189.962 225.412C189.527 225.829 188.949 226.066 188.346 226.075Z" fill="#FAFAFA"/>
<path opacity="0.8" d="M208.603 226.075H195.332C195.041 226.077 194.752 226.02 194.484 225.906C194.216 225.792 193.974 225.625 193.773 225.414C193.572 225.203 193.416 224.954 193.315 224.68C193.214 224.407 193.17 224.116 193.185 223.825L193.759 210.56C193.793 209.956 194.055 209.388 194.492 208.97C194.929 208.552 195.508 208.316 196.113 208.31H209.378C209.67 208.308 209.958 208.366 210.227 208.479C210.495 208.593 210.738 208.76 210.939 208.971C211.141 209.182 211.297 209.431 211.399 209.705C211.501 209.978 211.545 210.269 211.531 210.56L210.928 223.825C210.896 224.425 210.639 224.99 210.207 225.407C209.776 225.824 209.203 226.063 208.603 226.075Z" fill="#FAFAFA"/>
</g>
<path d="M103.579 156.38C98.6881 156.38 94.8538 150.692 94.8538 143.431C94.8538 136.17 98.6881 130.487 103.579 130.487C108.469 130.487 112.309 136.176 112.309 143.431C112.287 143.771 112.136 144.09 111.887 144.324C111.638 144.557 111.31 144.686 110.969 144.686C110.628 144.686 110.3 144.557 110.051 144.324C109.802 144.09 109.651 143.771 109.629 143.431C109.629 137.869 106.862 133.162 103.579 133.162C100.295 133.162 97.5286 137.869 97.5286 143.431C97.5286 148.993 100.301 153.7 103.579 153.7C103.762 153.688 103.946 153.714 104.119 153.776C104.292 153.837 104.45 153.934 104.585 154.06C104.719 154.185 104.826 154.337 104.899 154.506C104.972 154.675 105.009 154.856 105.009 155.04C105.009 155.224 104.972 155.406 104.899 155.574C104.826 155.743 104.719 155.895 104.585 156.02C104.45 156.146 104.292 156.243 104.119 156.305C103.946 156.367 103.762 156.392 103.579 156.38Z" fill="#407BFF"/>
<path d="M123.834 156.38C118.944 156.38 115.11 150.692 115.11 143.431C115.11 136.17 118.944 130.487 123.834 130.487C128.725 130.487 132.594 136.176 132.594 143.431C132.571 143.771 132.42 144.09 132.172 144.324C131.923 144.557 131.594 144.686 131.253 144.686C130.912 144.686 130.584 144.557 130.335 144.324C130.086 144.09 129.935 143.771 129.913 143.431C129.913 137.869 127.146 133.162 123.863 133.162C120.58 133.162 117.813 137.869 117.813 143.431C117.813 148.993 120.586 153.7 123.863 153.7C124.203 153.722 124.523 153.873 124.756 154.122C124.989 154.371 125.119 154.699 125.119 155.04C125.119 155.381 124.989 155.709 124.756 155.958C124.523 156.207 124.203 156.358 123.863 156.38H123.834Z" fill="#407BFF"/>
<path d="M144.074 156.38C139.178 156.38 135.343 150.692 135.343 143.431C135.343 136.17 139.178 130.487 144.074 130.487C148.97 130.487 152.799 136.176 152.799 143.431C152.799 143.786 152.658 144.126 152.407 144.377C152.156 144.628 151.816 144.768 151.461 144.768C151.107 144.768 150.766 144.628 150.516 144.377C150.265 144.126 150.124 143.786 150.124 143.431C150.124 137.869 147.351 133.162 144.074 133.162C140.796 133.162 138.024 137.869 138.024 143.431C138.024 148.993 140.796 153.7 144.074 153.7C144.414 153.722 144.733 153.873 144.966 154.122C145.2 154.371 145.329 154.699 145.329 155.04C145.329 155.381 145.2 155.709 144.966 155.958C144.733 156.207 144.414 156.358 144.074 156.38Z" fill="#407BFF"/>
<path d="M164.347 156.38C159.451 156.38 155.617 150.692 155.617 143.431C155.617 136.17 159.451 130.487 164.347 130.487C169.243 130.487 173.072 136.176 173.072 143.431C173.072 143.786 172.931 144.126 172.68 144.377C172.43 144.628 172.089 144.768 171.735 144.768C171.38 144.768 171.04 144.628 170.789 144.377C170.538 144.126 170.397 143.786 170.397 143.431C170.397 137.869 167.625 133.162 164.347 133.162C161.07 133.162 158.297 137.869 158.297 143.431C158.297 148.993 161.064 153.7 164.347 153.7C164.688 153.722 165.007 153.873 165.24 154.122C165.473 154.371 165.603 154.699 165.603 155.04C165.603 155.381 165.473 155.709 165.24 155.958C165.007 156.207 164.688 156.358 164.347 156.38Z" fill="#407BFF"/>
<path d="M184.598 156.38C179.708 156.38 175.874 150.692 175.874 143.431C175.874 136.17 179.708 130.487 184.598 130.487C189.489 130.487 193.329 136.176 193.329 143.431C193.307 143.771 193.156 144.09 192.907 144.324C192.658 144.557 192.33 144.686 191.989 144.686C191.648 144.686 191.319 144.557 191.07 144.324C190.821 144.09 190.671 143.771 190.648 143.431C190.648 137.869 187.882 133.162 184.598 133.162C181.315 133.162 178.548 137.869 178.548 143.431C178.548 148.993 181.321 153.7 184.598 153.7C184.782 153.688 184.966 153.714 185.139 153.776C185.312 153.837 185.47 153.934 185.604 154.06C185.738 154.185 185.845 154.337 185.918 154.506C185.992 154.675 186.029 154.856 186.029 155.04C186.029 155.224 185.992 155.406 185.918 155.574C185.845 155.743 185.738 155.895 185.604 156.02C185.47 156.146 185.312 156.243 185.139 156.305C184.966 156.367 184.782 156.392 184.598 156.38Z" fill="#407BFF"/>
<path d="M204.854 156.38C199.964 156.38 196.129 150.692 196.129 143.431C196.129 136.17 199.964 130.487 204.854 130.487C209.745 130.487 213.585 136.176 213.585 143.431C213.562 143.771 213.412 144.09 213.163 144.324C212.914 144.557 212.585 144.686 212.244 144.686C211.903 144.686 211.575 144.557 211.326 144.324C211.077 144.09 210.926 143.771 210.904 143.431C210.904 137.869 208.132 133.162 204.854 133.162C201.577 133.162 198.804 137.869 198.804 143.431C198.804 148.993 201.577 153.7 204.854 153.7C205.194 153.722 205.514 153.873 205.747 154.122C205.98 154.371 206.11 154.699 206.11 155.04C206.11 155.381 205.98 155.709 205.747 155.958C205.514 156.207 205.194 156.358 204.854 156.38Z" fill="#407BFF"/>
<g opacity="0.3">
<path opacity="0.3" d="M103.579 156.38C98.6881 156.38 94.8538 150.692 94.8538 143.431C94.8538 136.17 98.6881 130.487 103.579 130.487C108.469 130.487 112.309 136.176 112.309 143.431C112.287 143.771 112.136 144.09 111.887 144.324C111.638 144.557 111.31 144.686 110.969 144.686C110.628 144.686 110.3 144.557 110.051 144.324C109.802 144.09 109.651 143.771 109.629 143.431C109.629 137.869 106.862 133.162 103.579 133.162C100.295 133.162 97.5286 137.869 97.5286 143.431C97.5286 148.993 100.301 153.7 103.579 153.7C103.762 153.688 103.946 153.714 104.119 153.776C104.292 153.837 104.45 153.934 104.585 154.06C104.719 154.185 104.826 154.337 104.899 154.506C104.972 154.675 105.009 154.856 105.009 155.04C105.009 155.224 104.972 155.406 104.899 155.574C104.826 155.743 104.719 155.895 104.585 156.02C104.45 156.146 104.292 156.243 104.119 156.305C103.946 156.367 103.762 156.392 103.579 156.38Z" fill="black"/>
<path opacity="0.3" d="M123.836 156.38C118.945 156.38 115.111 150.692 115.111 143.431C115.111 136.17 118.945 130.487 123.836 130.487C128.726 130.487 132.595 136.176 132.595 143.431C132.573 143.771 132.422 144.09 132.173 144.324C131.924 144.557 131.596 144.686 131.255 144.686C130.914 144.686 130.585 144.557 130.336 144.324C130.087 144.09 129.937 143.771 129.914 143.431C129.914 137.869 127.148 133.162 123.864 133.162C120.581 133.162 117.814 137.869 117.814 143.431C117.814 148.993 120.587 153.7 123.864 153.7C124.205 153.722 124.524 153.873 124.757 154.122C124.99 154.371 125.12 154.699 125.12 155.04C125.12 155.381 124.99 155.709 124.757 155.958C124.524 156.207 124.205 156.358 123.864 156.38H123.836Z" fill="black"/>
<path opacity="0.3" d="M144.075 156.38C139.178 156.38 135.344 150.692 135.344 143.431C135.344 136.17 139.178 130.487 144.075 130.487C148.971 130.487 152.799 136.176 152.799 143.431C152.799 143.786 152.658 144.126 152.408 144.377C152.157 144.628 151.817 144.768 151.462 144.768C151.107 144.768 150.767 144.628 150.516 144.377C150.265 144.126 150.125 143.786 150.125 143.431C150.125 137.869 147.352 133.162 144.075 133.162C140.797 133.162 138.025 137.869 138.025 143.431C138.025 148.993 140.797 153.7 144.075 153.7C144.415 153.722 144.734 153.873 144.967 154.122C145.2 154.371 145.33 154.699 145.33 155.04C145.33 155.381 145.2 155.709 144.967 155.958C144.734 156.207 144.415 156.358 144.075 156.38Z" fill="black"/>
<path opacity="0.3" d="M164.348 156.38C159.452 156.38 155.618 150.692 155.618 143.431C155.618 136.17 159.452 130.487 164.348 130.487C169.244 130.487 173.073 136.176 173.073 143.431C173.073 143.786 172.932 144.126 172.681 144.377C172.43 144.628 172.09 144.768 171.736 144.768C171.381 144.768 171.041 144.628 170.79 144.377C170.539 144.126 170.398 143.786 170.398 143.431C170.398 137.869 167.626 133.162 164.348 133.162C161.071 133.162 158.298 137.869 158.298 143.431C158.298 148.993 161.065 153.7 164.348 153.7C164.689 153.722 165.008 153.873 165.241 154.122C165.474 154.371 165.604 154.699 165.604 155.04C165.604 155.381 165.474 155.709 165.241 155.958C165.008 156.207 164.689 156.358 164.348 156.38Z" fill="black"/>
<path opacity="0.3" d="M184.598 156.38C179.708 156.38 175.874 150.692 175.874 143.431C175.874 136.17 179.708 130.487 184.598 130.487C189.489 130.487 193.329 136.176 193.329 143.431C193.307 143.771 193.156 144.09 192.907 144.324C192.658 144.557 192.33 144.686 191.989 144.686C191.648 144.686 191.319 144.557 191.07 144.324C190.821 144.09 190.671 143.771 190.648 143.431C190.648 137.869 187.882 133.162 184.598 133.162C181.315 133.162 178.548 137.869 178.548 143.431C178.548 148.993 181.321 153.7 184.598 153.7C184.782 153.688 184.966 153.714 185.139 153.776C185.312 153.837 185.47 153.934 185.604 154.06C185.738 154.185 185.845 154.337 185.918 154.506C185.992 154.675 186.029 154.856 186.029 155.04C186.029 155.224 185.992 155.406 185.918 155.574C185.845 155.743 185.738 155.895 185.604 156.02C185.47 156.146 185.312 156.243 185.139 156.305C184.966 156.367 184.782 156.392 184.598 156.38Z" fill="black"/>
<path opacity="0.3" d="M204.855 156.38C199.965 156.38 196.131 150.692 196.131 143.431C196.131 136.17 199.965 130.487 204.855 130.487C209.746 130.487 213.586 136.176 213.586 143.431C213.564 143.771 213.413 144.09 213.164 144.324C212.915 144.557 212.587 144.686 212.246 144.686C211.905 144.686 211.576 144.557 211.327 144.324C211.079 144.09 210.928 143.771 210.905 143.431C210.905 137.869 208.133 133.162 204.855 133.162C201.578 133.162 198.805 137.869 198.805 143.431C198.805 148.993 201.578 153.7 204.855 153.7C205.196 153.722 205.515 153.873 205.748 154.122C205.981 154.371 206.111 154.699 206.111 155.04C206.111 155.381 205.981 155.709 205.748 155.958C205.515 156.207 205.196 156.358 204.855 156.38Z" fill="black"/>
</g>
<path d="M165.702 185.643C161.018 184.713 155.76 185.798 153.883 190.734C152.374 194.707 154.308 199.012 158.475 200.062C162.149 200.986 168.486 199.855 169.794 195.619C171.293 190.775 165.202 189.202 161.787 188.915C160.76 188.829 160.765 190.436 161.787 190.522C163.343 190.654 165.122 190.74 166.5 191.595C169.37 193.392 168.187 196.274 165.742 197.651C163.297 199.029 159.549 199.373 157.132 197.846C154.492 196.164 154.405 192.468 155.984 190.057C158.056 186.871 161.839 186.516 165.248 187.187C166.259 187.388 166.689 185.838 165.673 185.637L165.702 185.643Z" fill="#407BFF"/>
<path opacity="0.1" d="M165.702 185.643C161.018 184.713 155.76 185.798 153.883 190.734C152.374 194.707 154.308 199.012 158.475 200.062C162.149 200.986 168.486 199.855 169.794 195.619C171.293 190.775 165.202 189.202 161.787 188.915C160.76 188.829 160.765 190.436 161.787 190.522C163.343 190.654 165.122 190.74 166.5 191.595C169.37 193.392 168.187 196.274 165.742 197.651C163.297 199.029 159.549 199.373 157.132 197.846C154.492 196.164 154.405 192.468 155.984 190.057C158.056 186.871 161.839 186.516 165.248 187.187C166.259 187.388 166.689 185.838 165.673 185.637L165.702 185.643Z" fill="#FAFAFA"/>
<path d="M114.025 167.154C118.504 173.092 123.498 178.624 128.949 183.685C129.706 184.391 130.848 183.255 130.097 182.537C124.739 177.576 119.828 172.154 115.419 166.333C114.805 165.518 113.41 166.333 114.036 167.143L114.025 167.154Z" fill="#407BFF"/>
<path d="M115.684 183.014C119.071 176.993 125 171.855 130.608 167.923C131.446 167.349 130.648 165.937 129.799 166.534C123.967 170.633 117.837 175.925 114.301 182.199C114.204 182.382 114.181 182.595 114.237 182.794C114.293 182.993 114.424 183.163 114.603 183.268C114.781 183.373 114.993 183.405 115.194 183.358C115.396 183.311 115.571 183.187 115.684 183.014Z" fill="#407BFF"/>
<g opacity="0.2">
<path opacity="0.2" d="M114.025 167.154C118.504 173.092 123.498 178.624 128.949 183.685C129.706 184.391 130.848 183.255 130.097 182.537C124.739 177.576 119.828 172.154 115.419 166.333C114.805 165.518 113.41 166.333 114.036 167.143L114.025 167.154Z" fill="black"/>
<path opacity="0.2" d="M115.683 183.014C119.07 176.993 124.999 171.855 130.607 167.923C131.445 167.349 130.647 165.937 129.798 166.534C123.966 170.633 117.836 175.925 114.3 182.199C114.203 182.382 114.18 182.595 114.236 182.794C114.293 182.993 114.423 183.163 114.602 183.268C114.78 183.373 114.992 183.405 115.193 183.358C115.395 183.311 115.57 183.187 115.683 183.014Z" fill="black"/>
</g>
<path d="M177.865 172.292H188.34C188.541 172.275 188.728 172.183 188.864 172.035C189 171.887 189.076 171.693 189.076 171.491C189.076 171.29 189 171.096 188.864 170.947C188.728 170.799 188.541 170.707 188.34 170.69H177.865C177.664 170.707 177.477 170.799 177.341 170.947C177.205 171.096 177.129 171.29 177.129 171.491C177.129 171.693 177.205 171.887 177.341 172.035C177.477 172.183 177.664 172.275 177.865 172.292Z" fill="#407BFF"/>
<path d="M177.744 175.271H183.817C184.03 175.271 184.235 175.186 184.385 175.035C184.536 174.885 184.621 174.68 184.621 174.467C184.621 174.254 184.536 174.05 184.385 173.899C184.235 173.748 184.03 173.664 183.817 173.664H177.744C177.531 173.664 177.327 173.748 177.176 173.899C177.025 174.05 176.941 174.254 176.941 174.467C176.941 174.68 177.025 174.885 177.176 175.035C177.327 175.186 177.531 175.271 177.744 175.271Z" fill="#407BFF"/>
<g opacity="0.1">
<path opacity="0.1" d="M177.864 172.292H188.34C188.54 172.275 188.727 172.183 188.864 172.035C189 171.887 189.075 171.693 189.075 171.491C189.075 171.29 189 171.096 188.864 170.947C188.727 170.799 188.54 170.707 188.34 170.69H177.864C177.663 170.707 177.477 170.799 177.34 170.947C177.204 171.096 177.128 171.29 177.128 171.491C177.128 171.693 177.204 171.887 177.34 172.035C177.477 172.183 177.663 172.275 177.864 172.292Z" fill="#FAFAFA"/>
<path opacity="0.1" d="M177.744 175.271H183.817C184.03 175.271 184.235 175.186 184.385 175.035C184.536 174.885 184.621 174.68 184.621 174.467C184.621 174.254 184.536 174.05 184.385 173.899C184.235 173.748 184.03 173.664 183.817 173.664H177.744C177.531 173.664 177.327 173.748 177.176 173.899C177.025 174.05 176.941 174.254 176.941 174.467C176.941 174.68 177.025 174.885 177.176 175.035C177.327 175.186 177.531 175.271 177.744 175.271Z" fill="#FAFAFA"/>
</g>
<path d="M115.122 213.413H124.105C124.318 213.413 124.522 213.328 124.673 213.177C124.824 213.027 124.908 212.822 124.908 212.609C124.908 212.396 124.824 212.192 124.673 212.041C124.522 211.89 124.318 211.806 124.105 211.806H115.122C114.909 211.806 114.704 211.89 114.553 212.041C114.403 212.192 114.318 212.396 114.318 212.609C114.318 212.822 114.403 213.027 114.553 213.177C114.704 213.328 114.909 213.413 115.122 213.413Z" fill="#407BFF"/>
<path d="M114.8 216.863H126.452C126.665 216.863 126.869 216.778 127.02 216.628C127.171 216.477 127.255 216.273 127.255 216.059C127.255 215.846 127.171 215.642 127.02 215.491C126.869 215.341 126.665 215.256 126.452 215.256H114.8C114.587 215.256 114.382 215.341 114.231 215.491C114.081 215.642 113.996 215.846 113.996 216.059C113.996 216.273 114.081 216.477 114.231 216.628C114.382 216.778 114.587 216.863 114.8 216.863Z" fill="#407BFF"/>
<path d="M114.8 220.416H120.626C120.839 220.416 121.043 220.331 121.194 220.18C121.345 220.03 121.429 219.825 121.429 219.612C121.429 219.399 121.345 219.195 121.194 219.044C121.043 218.893 120.839 218.809 120.626 218.809H114.8C114.587 218.809 114.382 218.893 114.231 219.044C114.081 219.195 113.996 219.399 113.996 219.612C113.996 219.825 114.081 220.03 114.231 220.18C114.382 220.331 114.587 220.416 114.8 220.416Z" fill="#407BFF"/>
<g opacity="0.1">
<path opacity="0.1" d="M115.121 213.413H124.104C124.317 213.413 124.522 213.328 124.672 213.177C124.823 213.027 124.908 212.822 124.908 212.609C124.908 212.396 124.823 212.192 124.672 212.041C124.522 211.89 124.317 211.806 124.104 211.806H115.121C114.908 211.806 114.703 211.89 114.553 212.041C114.402 212.192 114.317 212.396 114.317 212.609C114.317 212.822 114.402 213.027 114.553 213.177C114.703 213.328 114.908 213.413 115.121 213.413Z" fill="#FAFAFA"/>
<path opacity="0.1" d="M114.8 216.863H126.452C126.665 216.863 126.869 216.778 127.02 216.627C127.171 216.477 127.255 216.272 127.255 216.059C127.255 215.846 127.171 215.641 127.02 215.491C126.869 215.34 126.665 215.255 126.452 215.255H114.8C114.587 215.255 114.382 215.34 114.231 215.491C114.081 215.641 113.996 215.846 113.996 216.059C113.996 216.272 114.081 216.477 114.231 216.627C114.382 216.778 114.587 216.863 114.8 216.863Z" fill="#FAFAFA"/>
<path opacity="0.1" d="M114.8 220.416H120.626C120.839 220.416 121.043 220.331 121.194 220.18C121.345 220.03 121.429 219.825 121.429 219.612C121.429 219.399 121.345 219.195 121.194 219.044C121.043 218.893 120.839 218.809 120.626 218.809H114.8C114.587 218.809 114.382 218.893 114.231 219.044C114.081 219.195 113.996 219.399 113.996 219.612C113.996 219.825 114.081 220.03 114.231 220.18C114.382 220.331 114.587 220.416 114.8 220.416Z" fill="#FAFAFA"/>
</g>
<path d="M51.7691 123.289L54.4841 123.169L53.2558 128.335C52.2868 127.672 51.4038 126.891 50.6269 126.01C50.4028 125.747 50.2916 125.406 50.3174 125.061C50.3432 124.716 50.5039 124.395 50.7646 124.168L51.7691 123.289Z" fill="#E4897B"/>
<path d="M57.6355 125.953L56.4186 130.155L53.2559 128.323L54.4842 123.169L57.6355 125.953Z" fill="#E4897B"/>
<path d="M57.1 101.009L51.5444 101.523L64.2862 239.137L69.8417 238.622L57.1 101.009Z" fill="#2F5ABA"/>
<path opacity="0.3" d="M57.1 101.009L51.5444 101.523L64.2862 239.137L69.8417 238.622L57.1 101.009Z" fill="black"/>
<path d="M68.2137 99.9773L62.6582 100.492L75.4 238.105L80.9555 237.591L68.2137 99.9773Z" fill="#2F5ABA"/>
<path opacity="0.3" d="M68.2137 99.9773L62.6582 100.492L75.4 238.105L80.9555 237.591L68.2137 99.9773Z" fill="black"/>
<path d="M62.6598 100.493L57.1042 101.007L69.846 238.621L75.4016 238.106L62.6598 100.493Z" fill="#396DE3"/>
<path opacity="0.1" d="M62.6598 100.493L57.1042 101.007L69.846 238.621L75.4016 238.106L62.6598 100.493Z" fill="black"/>
<path d="M61.4864 90.8696L56.4868 91.3346L51.5447 101.523L68.2136 99.979L61.4864 90.8696Z" fill="#407BFF"/>
<g opacity="0.8">
<path opacity="0.8" d="M61.4864 90.8696L56.4868 91.3346L51.5447 101.523L68.2136 99.979L61.4864 90.8696Z" fill="#FAFAFA"/>
</g>
<path d="M58.6056 86.9668L56.4875 91.3349L61.4871 90.87L58.6056 86.9668Z" fill="#263238"/>
<path d="M100.61 94.7441C101.184 95.3181 101.661 95.8634 102.154 96.4661C102.648 97.0688 103.119 97.6141 103.589 98.1881C104.536 99.3361 105.42 100.547 106.281 101.781C108.056 104.291 109.554 106.985 110.747 109.817C110.891 110.185 111.023 110.569 111.16 110.965L111.367 111.539C111.481 111.883 111.562 112.237 111.608 112.596C111.733 113.738 111.581 114.893 111.166 115.965C110.547 117.547 109.679 119.019 108.595 120.327C106.678 122.673 104.472 124.766 102.028 126.555L99.8641 124.259C101.567 122.13 103.124 119.888 104.525 117.549C105.139 116.55 105.61 115.47 105.926 114.34C106.013 114.063 106.023 113.768 105.954 113.485L105.759 113.06C105.627 112.779 105.512 112.486 105.369 112.211C104.154 109.853 102.732 107.608 101.121 105.501C100.318 104.405 99.4681 103.337 98.6071 102.269C98.1766 101.741 97.7403 101.213 97.2926 100.697L95.9839 99.1869L100.61 94.7441Z" fill="#E4897B"/>
<path d="M96.3918 126.01L98.8371 130.849L101.231 128.788L99.2676 125.35L96.3918 126.01Z" fill="#E4897B"/>
<path d="M77.9722 97.5797C76.4836 100.415 74.9377 103.218 73.3343 105.989C72.5479 107.384 71.7214 108.755 70.9178 110.139L69.6837 112.205L69.3737 112.722C69.2187 112.969 69.0465 113.261 68.8915 113.457C68.7366 113.652 68.5816 113.887 68.4323 114.065C68.2831 114.243 68.1224 114.444 67.9731 114.61C66.8136 115.873 65.5792 117.066 64.2766 118.181C63.0195 119.254 61.7625 120.299 60.4652 121.292C57.8994 123.295 55.2648 125.16 52.5325 126.94L50.5637 124.46L57.3656 117.762C58.4792 116.614 59.6042 115.534 60.6661 114.398C61.7095 113.328 62.6926 112.202 63.6107 111.023C63.7217 110.885 63.8193 110.753 63.9035 110.627C64.0011 110.489 64.0699 110.374 64.1388 110.259C64.1982 110.167 64.2519 110.071 64.2995 109.972L64.5636 109.439L65.6255 107.275C66.3545 105.845 67.0662 104.405 67.8067 102.987C69.2723 100.128 70.803 97.3023 72.3987 94.5088L77.9722 97.5797Z" fill="#E4897B"/>
<path d="M94.0842 78.1902C94.0096 78.5231 94.1301 78.8388 94.3425 78.8962C94.5549 78.9536 94.7902 78.724 94.8648 78.3911C94.9394 78.0582 94.8132 77.7425 94.6008 77.6851C94.3884 77.6277 94.1359 77.8573 94.0842 78.1902Z" fill="#263238"/>
<path d="M94.096 78.833C94.2758 79.9526 94.604 81.0432 95.0718 82.0761C94.8076 82.1807 94.5238 82.2261 94.2402 82.2093C93.9566 82.1924 93.6801 82.1137 93.4302 81.9785L94.096 78.833Z" fill="#DE5753"/>
<path d="M94.9627 76.1699C94.9219 76.17 94.8819 76.158 94.8479 76.1354C94.6358 76.0059 94.3955 75.9298 94.1475 75.9138C93.8995 75.8978 93.6513 75.9424 93.4244 76.0436C93.3748 76.0629 93.3197 76.0624 93.2705 76.042C93.2213 76.0217 93.1818 75.9832 93.1603 75.9345C93.141 75.885 93.1416 75.8298 93.1619 75.7806C93.1822 75.7315 93.2207 75.692 93.2694 75.6705C93.5595 75.5459 93.8755 75.4934 94.1904 75.5174C94.5052 75.5414 94.8096 75.6412 95.0775 75.8083C95.0993 75.8227 95.118 75.8413 95.1325 75.8631C95.1469 75.8849 95.1568 75.9094 95.1617 75.9351C95.1665 75.9608 95.1661 75.9872 95.1605 76.0127C95.1549 76.0383 95.1443 76.0624 95.1292 76.0838C95.1105 76.1106 95.0856 76.1324 95.0566 76.1474C95.0276 76.1624 94.9954 76.1701 94.9627 76.1699Z" fill="#263238"/>
<path d="M82.4725 79.4585C83.1958 82.5466 84.0166 88.1948 81.9387 90.2554C81.9387 90.2554 82.903 93.3837 88.6373 93.3837C94.9513 93.3837 91.5073 90.2554 91.5073 90.2554C88.0346 89.4346 88.0231 86.8803 88.5282 84.4867L82.4725 79.4585Z" fill="#E4897B"/>
<path d="M81.1578 91.3291C80.6642 90.3418 80.1246 89.2053 81.1578 88.8494C82.2714 88.4591 88.4534 88.063 90.6173 88.792C91.1939 88.9463 91.6878 89.319 91.9942 89.8312C92.3007 90.3433 92.3957 90.9547 92.259 91.5357L81.1578 91.3291Z" fill="#407BFF"/>
<path opacity="0.6" d="M81.1578 91.3291C80.6642 90.3418 80.1246 89.2053 81.1578 88.8494C82.2714 88.4591 88.4534 88.063 90.6173 88.792C91.1939 88.9463 91.6878 89.319 91.9942 89.8312C92.3007 90.3433 92.3957 90.9547 92.259 91.5357L81.1578 91.3291Z" fill="#FAFAFA"/>
<path d="M72.8979 235.34C72.5274 235.338 72.158 235.297 71.7958 235.219C71.7772 235.216 71.7601 235.207 71.7467 235.194C71.7334 235.18 71.7245 235.163 71.7212 235.145C71.7174 235.125 71.7191 235.105 71.7263 235.087C71.7334 235.069 71.7456 235.053 71.7614 235.041C71.8073 235.007 72.9094 234.215 73.5523 234.352C73.6217 234.365 73.6876 234.392 73.7452 234.433C73.8028 234.473 73.8506 234.526 73.8852 234.588C73.9369 234.657 73.9648 234.74 73.9648 234.826C73.9648 234.912 73.9369 234.996 73.8852 235.064C73.7474 235.288 73.3284 235.34 72.8979 235.34ZM72.0771 235.076C72.7085 235.179 73.5695 235.179 73.7417 234.944C73.7417 234.944 73.8106 234.852 73.713 234.685C73.692 234.649 73.663 234.618 73.6282 234.594C73.5935 234.57 73.5538 234.554 73.5121 234.548C72.9909 234.581 72.4914 234.769 72.0771 235.087V235.076Z" fill="#FAFAFA"/>
<path d="M71.819 235.237H71.7673C71.7524 235.228 71.7401 235.215 71.732 235.2C71.7239 235.185 71.7202 235.168 71.7214 235.15C71.7214 235.099 71.7731 233.882 72.2495 233.48C72.3066 233.429 72.3742 233.391 72.4475 233.368C72.5208 233.345 72.5981 233.338 72.6743 233.348C72.7516 233.348 72.8266 233.375 72.8864 233.424C72.9461 233.473 72.9868 233.542 73.0014 233.618C73.0933 234.089 72.2897 235.007 71.8534 235.242L71.819 235.237ZM72.6054 233.515C72.5229 233.516 72.4434 233.546 72.3815 233.601C72.1 233.986 71.9437 234.449 71.9338 234.927C72.3471 234.599 72.8579 233.905 72.8063 233.629C72.8063 233.601 72.8063 233.532 72.6513 233.515H72.6054Z" fill="#FAFAFA"/>
<path d="M98.2234 235.34C97.7882 235.34 97.3539 235.299 96.9262 235.219C96.9061 235.216 96.8875 235.207 96.8731 235.192C96.8587 235.178 96.8491 235.159 96.8458 235.139C96.8426 235.119 96.8452 235.099 96.8534 235.081C96.8615 235.062 96.8749 235.047 96.8917 235.036C97.1041 234.915 98.9753 233.842 99.4288 234.582C99.4743 234.647 99.4986 234.724 99.4986 234.803C99.4986 234.882 99.4743 234.96 99.4288 235.024C99.3025 235.277 98.763 235.34 98.2234 235.34ZM97.2419 235.07C98.034 235.185 99.1016 235.168 99.2853 234.909C99.2853 234.909 99.3427 234.829 99.2566 234.686C99.004 234.278 97.8675 234.766 97.2419 235.082V235.07Z" fill="#FAFAFA"/>
<path d="M96.9428 235.236C96.9241 235.242 96.9042 235.242 96.8854 235.236C96.8711 235.226 96.8597 235.212 96.8527 235.196C96.8456 235.18 96.843 235.162 96.8453 235.145C96.8453 235.099 96.9141 233.962 97.4193 233.52C97.4958 233.45 97.5872 233.398 97.6866 233.368C97.786 233.339 97.8908 233.332 97.9933 233.348C98.2745 233.377 98.3549 233.52 98.3721 233.635C98.4525 234.123 97.4939 235.013 96.9888 235.242L96.9428 235.236ZM97.9072 233.514C97.7797 233.513 97.6565 233.56 97.5628 233.646C97.261 234.016 97.086 234.473 97.0634 234.949C97.5685 234.64 98.2114 233.933 98.1712 233.641C98.1712 233.612 98.1712 233.537 97.9646 233.514H97.9072Z" fill="#FAFAFA"/>
<path d="M92.3047 235.133H96.5236L96.5638 225.37H92.3506L92.3047 235.133Z" fill="#E4897B"/>
<path d="M66.9861 235.133H71.205L72.9499 225.37H68.731L66.9861 235.133Z" fill="#E4897B"/>
<path d="M71.4859 234.646H66.7504C66.6667 234.644 66.5853 234.673 66.5211 234.727C66.4569 234.781 66.414 234.856 66.4003 234.938L65.7115 238.686C65.6973 238.779 65.7036 238.874 65.7298 238.965C65.756 239.055 65.8015 239.139 65.8632 239.21C65.9249 239.281 66.0013 239.337 66.0871 239.376C66.1729 239.414 66.2661 239.434 66.3601 239.433C68.0132 239.404 68.8111 239.306 70.8947 239.306C72.1747 239.306 74.8209 239.444 76.5945 239.444C78.3682 239.444 78.5232 237.722 77.7942 237.533C74.5166 236.821 73.2538 235.839 72.1805 234.91C71.9889 234.74 71.7419 234.646 71.4859 234.646Z" fill="#263238"/>
<path d="M96.4778 234.646H91.8858C91.802 234.644 91.7207 234.673 91.6564 234.727C91.5922 234.781 91.5493 234.856 91.5356 234.938L90.8468 238.686C90.8308 238.779 90.8353 238.874 90.86 238.964C90.8848 239.054 90.9292 239.138 90.99 239.209C91.0508 239.281 91.1267 239.338 91.212 239.376C91.2974 239.415 91.3903 239.434 91.484 239.433C93.1428 239.404 95.5364 239.306 97.6258 239.306C100.071 239.306 102.183 239.444 105.048 239.444C106.77 239.444 107.189 237.722 106.46 237.533C103.13 236.81 100.433 236.735 97.5167 234.978C97.2083 234.773 96.8484 234.657 96.4778 234.646Z" fill="#263238"/>
<path d="M73.8966 91.2085C69.9762 92.1154 65.8606 102.889 65.8606 102.889L74.0057 108.331C75.8757 105.496 77.5149 102.515 78.9076 99.4167C81.0601 94.486 77.8974 90.2843 73.8966 91.2085Z" fill="#407BFF"/>
<path opacity="0.7" d="M73.8966 91.2085C69.9762 92.1154 65.8606 102.889 65.8606 102.889L74.0057 108.331C75.8757 105.496 77.5149 102.515 78.9076 99.4167C81.0601 94.486 77.8974 90.2843 73.8966 91.2085Z" fill="black"/>
<path d="M76.9905 98.0791L73.6211 108.072L74.0057 108.331C74.0057 108.331 75.544 106.035 77.1799 102.975L76.9905 98.0791Z" fill="#407BFF"/>
<path opacity="0.8" d="M76.9905 98.0791L73.6211 108.072L74.0057 108.331C74.0057 108.331 75.544 106.035 77.1799 102.975L76.9905 98.0791Z" fill="black"/>
<path d="M100.203 110.047C100.169 114.754 99.8875 120.609 99.1872 127.876H76.629C76.3362 124.432 77.8631 107.521 73.8967 91.2084C76.3779 90.7274 78.8878 90.4091 81.4104 90.2555C84.603 90.0717 87.8036 90.0717 90.9962 90.2555C93.198 90.4696 95.3799 90.8534 97.5226 91.4035C97.5226 91.4035 99.4512 93.4929 100.037 103.291C100.152 105.248 100.215 107.476 100.203 110.047Z" fill="#407BFF"/>
<path opacity="0.7" d="M100.203 110.047C100.169 114.754 99.8875 120.609 99.1872 127.876H76.629C76.3362 124.432 77.8631 107.521 73.8967 91.2084C76.3779 90.7274 78.8878 90.4091 81.4104 90.2555C84.603 90.0717 87.8036 90.0717 90.9962 90.2555C93.198 90.4696 95.3799 90.8534 97.5226 91.4035C97.5226 91.4035 99.4512 93.4929 100.037 103.291C100.152 105.248 100.215 107.476 100.203 110.047Z" fill="black"/>
<path d="M100.203 110.047C98.8369 107.556 96.3572 102.557 96.7073 99.7153L100.037 103.32C100.151 105.249 100.214 107.476 100.203 110.047Z" fill="#407BFF"/>
<path opacity="0.8" d="M100.203 110.047C98.8369 107.556 96.3572 102.557 96.7073 99.7153L100.037 103.32C100.151 105.249 100.214 107.476 100.203 110.047Z" fill="black"/>
<path d="M93.1032 95.2377C92.7473 99.2557 101.857 108.922 101.857 108.922L109.158 102.975C107.246 99.7482 104.954 96.7614 102.333 94.0782C98.0625 89.9512 93.505 90.7376 93.1032 95.2377Z" fill="#407BFF"/>
<path opacity="0.7" d="M93.1032 95.2377C92.7473 99.2557 101.857 108.922 101.857 108.922L109.158 102.975C107.246 99.7482 104.954 96.7614 102.333 94.0782C98.0625 89.9512 93.505 90.7376 93.1032 95.2377Z" fill="black"/>
<path d="M96.564 225.375L96.541 230.404H92.3279L92.3451 225.375H96.564Z" fill="#CE6F64"/>
<path d="M68.7305 225.375H72.9494L72.0483 230.404H67.8293L68.7305 225.375Z" fill="#CE6F64"/>
<path d="M83.23 74.7059C82.6158 78.8617 82.0476 81.2495 83.6433 83.8899C84.1505 84.745 84.8821 85.445 85.7588 85.9139C86.6355 86.3829 87.6238 86.603 88.6166 86.5504C89.6094 86.4977 90.5689 86.1744 91.3911 85.6154C92.2132 85.0564 92.8668 84.283 93.2808 83.3791C94.9281 79.9351 95.6629 73.7129 92.0409 71.084C91.2767 70.4939 90.3705 70.1154 89.4135 69.9866C88.4565 69.8579 87.4826 69.9833 86.5895 70.3505C85.6964 70.7176 84.9158 71.3134 84.326 72.078C83.7363 72.8425 83.3583 73.7489 83.23 74.7059Z" fill="#E4897B"/>
<path d="M95.7144 72.7371C94.4721 73.4156 93.1053 73.8354 91.6964 73.9712C90.646 78.7756 87.8506 84.3032 83.3275 82.7133C81.6055 82.1393 79.8835 77.9663 79.7055 74.264C79.407 74.6256 79.2061 75.0963 79.0512 75.2914C78.793 73.6461 78.9793 71.9616 79.5907 70.4124C80.842 66.8651 81.6743 69.2185 83.0347 67.066C83.9129 65.6425 85.4742 64.9078 88.2007 64.8159C87.4373 65.212 87.2938 65.8491 88.4246 65.7573C89.5554 65.6654 94.3827 65.4014 97.1953 67.3013C95.2953 67.7318 96.4548 70.7453 98.9919 69.1381C98.0678 70.6363 96.9198 72.0598 95.7144 72.7371Z" fill="#263238"/>
<path d="M88.4478 77.2774C88.4638 78.3342 88.8179 79.358 89.458 80.199C90.3133 81.3011 91.2948 80.773 91.5302 79.5332C91.7368 78.4311 91.5302 76.5254 90.4625 75.8596C89.3949 75.1938 88.442 76.0146 88.4478 77.2774Z" fill="#E4897B"/>
<path d="M83.3044 67.5135C82.7315 67.4772 82.1763 67.3013 81.687 67.0011C81.1978 66.701 80.7894 66.2857 80.4975 65.7915C80.4975 65.7915 80.4229 69.1551 83.3044 67.5135Z" fill="#1E2A4C"/>
<path d="M91.18 127.875C91.18 127.875 87.6442 160.1 85.4802 172.171C83.1153 185.373 74.0002 229.433 74.0002 229.433H66.2512C66.2512 229.433 71.7501 186.458 72.8981 173.348C74.1322 159.141 76.6521 127.853 76.6521 127.853L91.18 127.875Z" fill="#407BFF"/>
<path opacity="0.6" d="M91.18 127.875C91.18 127.875 87.6442 160.1 85.4802 172.171C83.1153 185.373 74.0002 229.433 74.0002 229.433H66.2512C66.2512 229.433 71.7501 186.458 72.8981 173.348C74.1322 159.141 76.6521 127.853 76.6521 127.853L91.18 127.875Z" fill="#FAFAFA"/>
<path d="M75.0964 226.586C75.1309 226.586 74.4134 229.554 74.4134 229.554H65.7288L65.7862 226.908L75.0964 226.586Z" fill="#407BFF"/>
<path opacity="0.1" d="M75.0964 226.586C75.1309 226.586 74.4134 229.554 74.4134 229.554H65.7288L65.7862 226.908L75.0964 226.586Z" fill="#FAFAFA"/>
<path d="M88.6028 139.356C83.1096 140.441 84.4929 161.076 85.5663 171.689C86.875 164.187 88.6544 149.751 89.8541 139.505C89.4657 139.316 89.0248 139.263 88.6028 139.356Z" fill="#407BFF"/>
<path opacity="0.4" d="M88.6028 139.356C83.1096 140.441 84.4929 161.076 85.5663 171.689C86.875 164.187 88.6544 149.751 89.8541 139.505C89.4657 139.316 89.0248 139.263 88.6028 139.356Z" fill="#FAFAFA"/>
<path d="M99.1816 127.875C99.1816 127.875 100.984 159.4 101.018 172.263C101.059 185.637 98.0796 229.433 98.0796 229.433H90.9333C90.9333 229.433 89.0104 186.418 88.1838 173.285C87.2884 158.963 84.3552 127.875 84.3552 127.875H99.1816Z" fill="#407BFF"/>
<path opacity="0.6" d="M99.1816 127.875C99.1816 127.875 100.984 159.4 101.018 172.263C101.059 185.637 98.0796 229.433 98.0796 229.433H90.9333C90.9333 229.433 89.0104 186.418 88.1838 173.285C87.2884 158.963 84.3552 127.875 84.3552 127.875H99.1816Z" fill="#FAFAFA"/>
<path d="M100.909 123.823L98.9057 123.984C98.7425 123.998 98.5844 124.048 98.4429 124.13C98.3014 124.212 98.1801 124.325 98.0877 124.461C97.9954 124.596 97.9343 124.75 97.909 124.912C97.8837 125.074 97.8947 125.239 97.9414 125.396L98.7679 128.18C98.8377 128.406 98.9611 128.612 99.1276 128.78C99.2941 128.949 99.4988 129.074 99.7242 129.146C99.9497 129.218 100.189 129.235 100.422 129.195C100.656 129.154 100.876 129.058 101.064 128.915C102.099 127.952 102.841 126.716 103.205 125.35L100.909 123.823Z" fill="#E4897B"/>
<path d="M96.3858 224.302C96.3665 224.299 96.3489 224.289 96.3362 224.275C96.3236 224.26 96.3167 224.241 96.3169 224.221C97.109 212.104 98.9458 182.779 98.9114 172.263C98.9114 161.501 97.6027 137.427 97.1894 130.304C97.1886 130.294 97.1898 130.285 97.1929 130.275C97.196 130.266 97.2009 130.258 97.2074 130.251C97.2139 130.244 97.2218 130.239 97.2305 130.235C97.2393 130.231 97.2487 130.229 97.2583 130.229C97.2771 130.229 97.2953 130.236 97.3091 130.249C97.3229 130.262 97.3314 130.279 97.3329 130.298C97.7232 137.421 99.0032 161.495 99.0549 172.263C99.0893 182.784 97.2525 212.11 96.4604 224.233C96.4604 224.243 96.4585 224.252 96.4547 224.261C96.4508 224.269 96.4453 224.277 96.4382 224.284C96.4312 224.29 96.4229 224.295 96.4139 224.298C96.4049 224.301 96.3953 224.303 96.3858 224.302Z" fill="#407BFF"/>
<path opacity="0.3" d="M96.3858 224.302C96.3665 224.299 96.3489 224.289 96.3362 224.275C96.3236 224.26 96.3167 224.241 96.3169 224.221C97.109 212.104 98.9458 182.779 98.9114 172.263C98.9114 161.501 97.6027 137.427 97.1894 130.304C97.1886 130.294 97.1898 130.285 97.1929 130.275C97.196 130.266 97.2009 130.258 97.2074 130.251C97.2139 130.244 97.2218 130.239 97.2305 130.235C97.2393 130.231 97.2487 130.229 97.2583 130.229C97.2771 130.229 97.2953 130.236 97.3091 130.249C97.3229 130.262 97.3314 130.279 97.3329 130.298C97.7232 137.421 99.0032 161.495 99.0549 172.263C99.0893 182.784 97.2525 212.11 96.4604 224.233C96.4604 224.243 96.4585 224.252 96.4547 224.261C96.4508 224.269 96.4453 224.277 96.4382 224.284C96.4312 224.29 96.4229 224.295 96.4139 224.298C96.4049 224.301 96.3953 224.303 96.3858 224.302Z" fill="#FAFAFA"/>
<path d="M99.3424 226.586C99.3768 226.586 99.0554 229.554 99.0554 229.554H90.365L90.0264 226.908L99.3424 226.586Z" fill="#407BFF"/>
<path opacity="0.1" d="M99.3424 226.586C99.3768 226.586 99.0554 229.554 99.0554 229.554H90.365L90.0264 226.908L99.3424 226.586Z" fill="#FAFAFA"/>
</g>
</svg>
