<svg width="32" height="32" viewBox="0 0 32 32" fill="none" xmlns="http://www.w3.org/2000/svg">
<path d="M3.15639 28.8055L0.0943251 11.4207C0.0647582 11.2529 0.0463271 11.0833 0.0391527 10.9131C-0.00635402 8.94209 1.4089 7.23954 3.35501 6.92411L9.26398 5.88135L9.10398 28.8055H3.15639Z" fill="#35495E"/>
<path d="M25.8986 28.0437C25.7962 28.4691 25.452 28.7937 25.0214 28.8713L7.63106 31.9388C6.53493 32.1302 5.4095 31.8403 4.54228 31.1431C3.67505 30.4459 3.15005 29.4091 3.1014 28.2975C3.05794 26.413 4.35535 24.7618 6.19657 24.3582L11.0683 25.7264H11.0628L6.67657 26.5044C6.18738 26.5903 5.76251 26.8911 5.51885 27.3239C5.2752 27.7567 5.23842 28.276 5.41864 28.7388C5.73071 29.4843 6.52328 29.9082 7.31657 29.754L20.6076 27.4092L25.8986 28.0437Z" fill="#2C3E50"/>
<path d="M11.0626 25.7266L6.67635 26.5045C6.18716 26.5905 5.76229 26.8913 5.51863 27.3241C5.27497 27.7569 5.23819 28.2761 5.41842 28.739C5.73048 29.4844 6.52306 29.9084 7.31635 29.7542L20.6074 27.4093L11.0626 25.7266Z" fill="#F9EAB0"/>
<path d="M7.07666 18.3009L10.1426 0.913824C10.2523 0.316171 10.8218 -0.0824842 11.4209 0.0189275L28.6772 3.06169C30.6247 3.37736 32.0411 5.081 31.9958 7.05341C31.9883 7.22288 31.9699 7.39169 31.9407 7.55879L28.8747 24.9458L7.07666 18.3009Z" fill="#E64C3C"/>
<path d="M25.0693 5.77855C25.0369 5.77854 25.0046 5.77577 24.9727 5.77028L12.4756 3.56669C12.1936 3.49713 12.0138 3.22082 12.0644 2.9348C12.1151 2.64878 12.3788 2.45102 12.6676 2.48255L25.1642 4.68338C25.446 4.73275 25.6433 4.98939 25.6186 5.27446C25.5939 5.55952 25.3554 5.77839 25.0693 5.77855Z" fill="#3F5C6C"/>
<path d="M22.4168 8.11034C22.3844 8.11038 22.3521 8.10743 22.3202 8.10151L14.1702 6.66648C13.877 6.60702 13.6846 6.32467 13.7365 6.03001C13.7884 5.73535 14.0657 5.53579 14.3616 5.58014L22.5122 7.01462C22.7957 7.06252 22.9949 7.32009 22.97 7.60651C22.945 7.89292 22.7043 8.11217 22.4168 8.11034Z" fill="#3F5C6C"/>
<path d="M23.5691 10.5744L12.1567 8.5584C11.8566 8.50538 11.5703 8.70571 11.5173 9.00585L10.5573 14.4403C10.5043 14.7405 10.7046 15.0268 11.0047 15.0798L22.4171 17.0958C22.7173 17.1488 23.0036 16.9485 23.0566 16.6483L24.0166 11.2139C24.0696 10.9137 23.8693 10.6274 23.5691 10.5744Z" fill="#ECF0F1"/>
<path d="M31.995 7.05068C31.9884 7.22095 31.9699 7.39056 31.9398 7.55827L28.8722 24.9431L24.6184 23.6465L27.0846 9.66585L27.6694 6.36654L28.2653 2.98999L28.6791 3.06171C30.6243 3.3787 32.0388 5.08029 31.995 7.05068Z" fill="#C03A2B"/>
<path d="M25.6113 20.4467L8.35341 17.4067C8.28963 17.3957 8.22503 17.3902 8.16031 17.3901C7.58847 17.3916 7.11248 17.8297 7.06369 18.3994C7.01489 18.9692 7.40946 19.4818 7.97272 19.5805L25.3575 22.6425C25.8463 22.7311 26.2699 23.0335 26.5123 23.467C26.7547 23.9006 26.7905 24.4198 26.61 24.8825C26.2996 25.6264 25.5082 26.0486 24.7176 25.8922L7.39893 22.8412C7.33515 22.8302 7.27055 22.8246 7.20583 22.8246C6.63293 22.8232 6.15424 23.2605 6.10393 23.8312C6.05361 24.4018 6.44841 24.9161 7.01272 25.015L24.4031 28.077C25.4984 28.2691 26.6234 27.9801 27.4906 27.284C28.3578 26.5879 28.8832 25.5521 28.9327 24.4412C28.976 22.4679 27.5594 20.7642 25.6113 20.4467Z" fill="#802F34"/>
<path d="M26.6102 24.8826C26.2998 25.6265 25.5084 26.0487 24.7178 25.8923L7.39917 22.8413L7.97296 19.5806L25.3578 22.6426C25.8466 22.7311 26.2701 23.0336 26.5125 23.4671C26.7549 23.9007 26.7908 24.4199 26.6102 24.8826Z" fill="#F9EAB0"/>
</svg>
