<svg width="24" height="24" viewBox="0 0 24 24" fill="none" xmlns="http://www.w3.org/2000/svg">
<g clip-path="url(#clip0)">
<path fill-rule="evenodd" clip-rule="evenodd" d="M9.07062 9.7851C8.84946 9.67989 8.58984 9.55639 8.51712 8.60121C8.51712 7.97557 8.85794 7.82 8.85794 7.82C8.85794 7.82 8.68471 6.8941 8.61683 6.18165C8.53271 5.2936 9.13517 3 12.3484 3C12.3564 3 12.364 3.00021 12.3717 3.00042C12.3775 3.00058 12.3832 3.00074 12.3891 3.0008C12.3952 3.00075 12.4013 3.00058 12.4073 3.00041C12.4147 3.00021 12.4221 3 12.4298 3C15.643 3 16.2455 5.2936 16.1614 6.18165C16.0935 6.8941 15.9203 7.82 15.9203 7.82C15.9203 7.82 16.2611 7.97557 16.2611 8.60121C16.1884 9.55643 15.9287 9.67993 15.7076 9.78513C15.5653 9.85282 15.4389 9.91293 15.3885 10.1822C15.1744 11.3255 14.162 12.1527 13.5319 12.4382C13.1647 12.6046 12.7866 12.6886 12.3891 12.6955H12.3891H12.3891C11.9916 12.6886 11.6135 12.6046 11.2464 12.4382C10.6162 12.1527 9.60387 11.3255 9.38973 10.1822C9.33932 9.91291 9.21293 9.85279 9.07062 9.7851ZM15.484 13.9001C15.9086 14.1426 16.8296 14.6685 17.402 14.8749C19.7382 15.7174 20.7889 16.5765 20.789 17.1622V21H12.3945H4V17.1622C4 16.5765 5.05075 15.7173 7.38702 14.8749C7.95935 14.6685 8.88045 14.1425 9.30502 13.9001C9.39672 13.8477 9.46526 13.8086 9.50211 13.7887C9.5559 13.7576 9.61823 13.7393 9.68496 13.7393C9.8306 13.7393 9.95595 13.8248 10.0143 13.9483C10.1281 14.1388 10.2611 14.3798 10.4071 14.6443C10.9974 15.7139 11.7993 17.1669 12.3945 17.2084C12.9897 17.1669 13.7917 15.7137 14.3821 14.644C14.5279 14.3797 14.6609 14.1387 14.7746 13.9483C14.833 13.8248 14.9584 13.7393 15.104 13.7393C15.1708 13.7393 15.233 13.7576 15.2868 13.7887C15.3237 13.8086 15.3923 13.8477 15.484 13.9001Z" fill="white"/>
</g>
<defs>
<clipPath id="clip0">
<rect width="24" height="24" fill="white"/>
</clipPath>
</defs>
</svg>
