<svg width="24" height="24" viewBox="0 0 24 24" fill="none" xmlns="http://www.w3.org/2000/svg">
<path d="M19.6156 4H4.38488C4.0178 4.00048 3.6659 4.14651 3.40634 4.40607C3.14678 4.66563 3.00074 5.01754 3.00027 5.38461V19.1287C2.99877 19.3928 3.0735 19.6517 3.21548 19.8744C3.35746 20.0971 3.56068 20.2741 3.80075 20.3841C3.9849 20.4702 4.18566 20.515 4.38894 20.5153C4.71393 20.5148 5.02823 20.3991 5.27595 20.1888L8.02355 17.8786L19.6156 17.8461C19.9827 17.8457 20.3346 17.6996 20.5942 17.4401C20.8537 17.1805 20.9998 16.8286 21.0002 16.4615V5.38461C20.9998 5.01753 20.8537 4.66563 20.5942 4.40607C20.3346 4.14651 19.9827 4.00048 19.6156 4ZM14.7695 13H9.23103C9.04742 13 8.87133 12.9271 8.74149 12.7972C8.61166 12.6674 8.53872 12.4913 8.53872 12.3077C8.53872 12.1241 8.61166 11.948 8.74149 11.8181C8.87133 11.6883 9.04742 11.6154 9.23103 11.6154H14.7695C14.9531 11.6154 15.1292 11.6883 15.259 11.8181C15.3889 11.948 15.4618 12.1241 15.4618 12.3077C15.4618 12.4913 15.3889 12.6674 15.259 12.7972C15.1292 12.9271 14.9531 13 14.7695 13ZM14.7695 10.2308H9.23103C9.04742 10.2308 8.87133 10.1578 8.74149 10.028C8.61166 9.89816 8.53872 9.72207 8.53872 9.53846C8.53872 9.35484 8.61166 9.17875 8.74149 9.04892C8.87133 8.91909 9.04742 8.84615 9.23103 8.84615H14.7695C14.9531 8.84615 15.1292 8.91909 15.259 9.04892C15.3889 9.17875 15.4618 9.35484 15.4618 9.53846C15.4618 9.72207 15.3889 9.89816 15.259 10.028C15.1292 10.1578 14.9531 10.2308 14.7695 10.2308Z" fill="#7A7F90"/>
</svg>
