<svg width="32" height="32" viewBox="0 0 32 32" fill="none" xmlns="http://www.w3.org/2000/svg">
<path d="M16 32C24.8366 32 32 24.8366 32 16C32 7.16344 24.8366 0 16 0C7.16344 0 0 7.16344 0 16C0 24.8366 7.16344 32 16 32Z" fill="#EAB14D"/>
<path d="M15.9991 0C15.7135 0 15.4296 0.0078125 15.1477 0.0225625C23.5885 0.465187 30.2964 7.44906 30.2964 16C30.2964 24.5509 23.5885 31.5348 15.1477 31.9774C15.4296 31.9922 15.7135 32 15.9991 32C24.8356 32 31.9991 24.8366 31.9991 16C31.9991 7.16344 24.8356 0 15.9991 0Z" fill="#E49542"/>
<path d="M15.9994 28.4671C22.8853 28.4671 28.4674 22.885 28.4674 15.9992C28.4674 9.11334 22.8853 3.53125 15.9994 3.53125C9.11358 3.53125 3.53149 9.11334 3.53149 15.9992C3.53149 22.885 9.11358 28.4671 15.9994 28.4671Z" fill="#F4FBFF"/>
<path d="M15.9994 3.53125C15.6541 3.53125 15.3123 3.54594 14.9741 3.57344C21.3803 4.09494 26.4168 9.45862 26.4168 15.9992C26.4168 22.5397 21.3803 27.9034 14.9741 28.4249C15.3123 28.4525 15.6541 28.4672 15.9994 28.4672C22.8853 28.4672 28.4674 22.8851 28.4674 15.9993C28.4674 9.11344 22.8853 3.53125 15.9994 3.53125Z" fill="#DAF1F4"/>
<path d="M16.0004 7.36932C15.7338 7.36932 15.5176 7.15314 15.5176 6.88645V6.1777C15.5176 5.91101 15.7338 5.69482 16.0004 5.69482C16.2671 5.69482 16.4834 5.91101 16.4834 6.1777V6.88645C16.4834 7.15314 16.2671 7.36932 16.0004 7.36932Z" fill="#2B4D66"/>
<path d="M22.4172 10.0504C22.2936 10.0504 22.1701 10.0033 22.0757 9.90901C21.8872 9.72038 21.8872 9.41469 22.0758 9.22607L22.577 8.72494C22.7656 8.53632 23.0713 8.53638 23.2599 8.72494C23.4485 8.91357 23.4485 9.21925 23.2599 9.40788L22.7587 9.90907C22.6644 10.0033 22.5408 10.0504 22.4172 10.0504Z" fill="#2B4D66"/>
<path d="M25.7695 16.4824H25.0608C24.794 16.4824 24.5779 16.2662 24.5779 15.9995C24.5779 15.7328 24.7941 15.5166 25.0608 15.5166H25.7695C26.0363 15.5166 26.2524 15.7328 26.2524 15.9995C26.2524 16.2662 26.0362 16.4824 25.7695 16.4824Z" fill="#2B4D66"/>
<path d="M22.8817 23.4015C22.7582 23.4015 22.6346 23.3543 22.5402 23.2601L22.0391 22.7589C21.8506 22.5703 21.8506 22.2646 22.0391 22.0759C22.2277 21.8874 22.5334 21.8874 22.7221 22.0759L23.2232 22.5771C23.4118 22.7657 23.4118 23.0714 23.2232 23.2601C23.1289 23.3543 23.0053 23.4015 22.8817 23.4015Z" fill="#2B4D66"/>
<path d="M15.9477 26.2516C15.681 26.2516 15.4648 26.0355 15.4648 25.7688V25.06C15.4648 24.7933 15.681 24.5771 15.9477 24.5771C16.2144 24.5771 16.4306 24.7933 16.4306 25.06V25.7688C16.4306 26.0355 16.2144 26.2516 15.9477 26.2516Z" fill="#2B4D66"/>
<path d="M9.02756 23.3654C8.904 23.3654 8.78037 23.3182 8.68612 23.2239C8.4975 23.0353 8.49756 22.7296 8.68612 22.541L9.18731 22.0398C9.37593 21.8513 9.68162 21.8513 9.87025 22.0399C10.0588 22.2285 10.0588 22.5342 9.87018 22.7228L9.369 23.224C9.27475 23.3183 9.15112 23.3654 9.02756 23.3654Z" fill="#2B4D66"/>
<path d="M6.88621 16.4306H6.17746C5.91077 16.4306 5.69458 16.2144 5.69458 15.9477C5.69458 15.681 5.91077 15.4648 6.17746 15.4648H6.88621C7.15289 15.4648 7.36908 15.681 7.36908 15.9477C7.36914 16.2144 7.15289 16.4306 6.88621 16.4306Z" fill="#2B4D66"/>
<path d="M9.56611 10.0119C9.44255 10.0119 9.31899 9.96475 9.22467 9.87044L8.72348 9.36931C8.53492 9.18069 8.53486 8.875 8.72342 8.68637C8.91205 8.49781 9.21773 8.49775 9.40636 8.68631L9.90755 9.1875C10.0961 9.37606 10.0962 9.68181 9.90761 9.87044C9.81324 9.96469 9.68967 10.0119 9.56611 10.0119Z" fill="#2B4D66"/>
<path d="M15.9997 16.4819H11.8984C11.6317 16.4819 11.4155 16.2656 11.4155 15.999C11.4155 15.7323 11.6317 15.5161 11.8984 15.5161H15.5167V9.37252C15.5167 9.10584 15.7329 8.88965 15.9996 8.88965C16.2663 8.88965 16.4825 9.10584 16.4825 9.37252V15.999C16.4825 16.2656 16.2664 16.4819 15.9997 16.4819Z" fill="#2B4D66"/>
<path d="M20.9549 19.0303C20.8805 19.0303 20.8052 19.0131 20.7345 18.9768L15.78 16.429C15.5428 16.3071 15.4494 16.016 15.5714 15.7788C15.6933 15.5416 15.9844 15.4482 16.2217 15.5702L21.1762 18.1179C21.4134 18.2398 21.5068 18.531 21.3848 18.7681C21.2991 18.9347 21.1301 19.0303 20.9549 19.0303Z" fill="#DA4A54"/>
<path d="M15.9991 17.2882C16.7109 17.2882 17.2879 16.7111 17.2879 15.9993C17.2879 15.2875 16.7109 14.7104 15.9991 14.7104C15.2873 14.7104 14.7102 15.2875 14.7102 15.9993C14.7102 16.7111 15.2873 17.2882 15.9991 17.2882Z" fill="#365E7D"/>
</svg>
