<svg width="16" height="16" viewBox="0 0 16 16" fill="none" xmlns="http://www.w3.org/2000/svg">
<path d="M8.00004 4.66683C8.36671 4.66683 8.66671 4.96683 8.66671 5.3335V8.00016C8.66671 8.36683 8.36671 8.66683 8.00004 8.66683C7.63337 8.66683 7.33337 8.36683 7.33337 8.00016V5.3335C7.33337 4.96683 7.63337 4.66683 8.00004 4.66683ZM7.99337 1.3335C4.31337 1.3335 1.33337 4.32016 1.33337 8.00016C1.33337 11.6802 4.31337 14.6668 7.99337 14.6668C11.68 14.6668 14.6667 11.6802 14.6667 8.00016C14.6667 4.32016 11.68 1.3335 7.99337 1.3335ZM8.00004 13.3335C5.05337 13.3335 2.66671 10.9468 2.66671 8.00016C2.66671 5.0535 5.05337 2.66683 8.00004 2.66683C10.9467 2.66683 13.3334 5.0535 13.3334 8.00016C13.3334 10.9468 10.9467 13.3335 8.00004 13.3335ZM8.66671 10.6668C8.66671 11.035 8.36823 11.3335 8.00004 11.3335C7.63185 11.3335 7.33337 11.035 7.33337 10.6668C7.33337 10.2986 7.63185 10.0002 8.00004 10.0002C8.36823 10.0002 8.66671 10.2986 8.66671 10.6668Z" fill="#FF5949"/>
</svg>
