<svg width="16" height="16" viewBox="0 0 16 16" fill="none" xmlns="http://www.w3.org/2000/svg">
<path fill-rule="evenodd" clip-rule="evenodd" d="M2.86185 2.86185C2.98687 2.73682 3.15644 2.66659 3.33325 2.66659H5.99992C6.36811 2.66659 6.66658 2.36811 6.66658 1.99992C6.66658 1.63173 6.36811 1.33325 5.99992 1.33325H3.33325C2.80282 1.33325 2.29411 1.54397 1.91904 1.91904C1.54397 2.29411 1.33325 2.80282 1.33325 3.33325V12.6666C1.33325 13.197 1.54397 13.7057 1.91904 14.0808C2.29411 14.4559 2.80282 14.6666 3.33325 14.6666H5.99992C6.36811 14.6666 6.66658 14.3681 6.66658 13.9999C6.66658 13.6317 6.36811 13.3333 5.99992 13.3333H3.33325C3.15644 13.3333 2.98687 13.263 2.86185 13.138C2.73682 13.013 2.66659 12.8434 2.66659 12.6666V3.33325C2.66659 3.15644 2.73682 2.98687 2.86185 2.86185ZM10.1952 4.19518C10.4555 3.93483 10.8776 3.93483 11.138 4.19518L14.4713 7.52851C14.7317 7.78886 14.7317 8.21097 14.4713 8.47132L11.138 11.8047C10.8776 12.065 10.4555 12.065 10.1952 11.8047C9.93483 11.5443 9.93483 11.1222 10.1952 10.8618L12.3904 8.66659H5.99992C5.63173 8.66659 5.33325 8.36811 5.33325 7.99992C5.33325 7.63173 5.63173 7.33325 5.99992 7.33325H12.3904L10.1952 5.13799C9.93483 4.87764 9.93483 4.45553 10.1952 4.19518Z" fill="white"/>
</svg>
