<svg width="28" height="28" viewBox="0 0 28 28" fill="none" xmlns="http://www.w3.org/2000/svg">
<rect width="28" height="28" rx="6" fill="#2B4798"/>
<path d="M18.2 9.3335H9.8C9.32261 9.3335 8.86477 9.52314 8.52721 9.8607C8.18964 10.1983 8 10.6561 8 11.1335V17.1335C8 17.6109 8.18964 18.0687 8.52721 18.4063C8.86477 18.7439 9.32261 18.9335 9.8 18.9335H18.2C18.6774 18.9335 19.1352 18.7439 19.4728 18.4063C19.8104 18.0687 20 17.6109 20 17.1335V11.1335C20 10.6561 19.8104 10.1983 19.4728 9.8607C19.1352 9.52314 18.6774 9.3335 18.2 9.3335ZM18.2 10.5335L14.3 13.2155C14.2088 13.2682 14.1053 13.2959 14 13.2959C13.8947 13.2959 13.7912 13.2682 13.7 13.2155L9.8 10.5335H18.2Z" fill="white"/>
</svg>
