<svg width="32" height="32" viewBox="0 0 32 32" fill="none" xmlns="http://www.w3.org/2000/svg">
<path d="M20.5364 3.48872L17.8662 3.10072L16.6721 0.68128C16.6102 0.555781 16.5143 0.450113 16.3955 0.376227C16.2766 0.302341 16.1395 0.263184 15.9995 0.263184C15.8596 0.263184 15.7224 0.302341 15.6036 0.376227C15.4847 0.450113 15.3889 0.555781 15.327 0.68128L14.1328 3.10072L11.4627 3.48872C11.3242 3.50885 11.1941 3.56733 11.0871 3.65753C10.9801 3.74774 10.9005 3.86608 10.8573 3.99917C10.814 4.13226 10.8089 4.27479 10.8424 4.41066C10.8759 4.54652 10.9468 4.67029 11.047 4.76797L12.9792 6.65134L12.5229 9.31078C12.4993 9.44871 12.5147 9.59051 12.5674 9.72013C12.6201 9.84976 12.7081 9.96205 12.8213 10.0443C12.9345 10.1265 13.0685 10.1755 13.2081 10.1856C13.3477 10.1956 13.4873 10.1665 13.6112 10.1013L15.9995 8.84578L18.3878 10.1013C18.5116 10.1665 18.6513 10.1956 18.7908 10.1856C18.9304 10.1755 19.0644 10.1265 19.1776 10.0443C19.2908 9.96205 19.3788 9.84976 19.4315 9.72013C19.4842 9.59051 19.4997 9.44871 19.476 9.31078L19.0198 6.65134L20.952 4.76797C21.0522 4.67029 21.1231 4.54652 21.1566 4.41066C21.1902 4.27479 21.185 4.13226 21.1418 3.99917C21.0985 3.86608 21.0189 3.74774 20.9119 3.65753C20.805 3.56733 20.6749 3.50885 20.5364 3.48872Z" fill="#F4C027"/>
<path d="M31.44 11.3996L29.2813 9.78083L29.391 7.08477C29.3967 6.94491 29.3631 6.80624 29.2941 6.68446C29.2251 6.56267 29.1234 6.46263 29.0005 6.39564C28.8776 6.32866 28.7384 6.29741 28.5986 6.30543C28.4589 6.31345 28.3242 6.36042 28.2097 6.44102L26.0034 7.99383L23.4732 7.05633C23.3419 7.00773 23.1997 6.9968 23.0626 7.02479C22.9255 7.05278 22.799 7.11857 22.6973 7.21472C22.5957 7.31087 22.5229 7.43354 22.4873 7.56887C22.4517 7.7042 22.4547 7.84679 22.4959 7.98052L23.2909 10.559L21.6175 12.6757C21.5307 12.7855 21.4763 12.9174 21.4606 13.0564C21.4448 13.1955 21.4683 13.3362 21.5283 13.4626C21.5884 13.589 21.6826 13.6961 21.8003 13.7717C21.918 13.8474 22.0545 13.8886 22.1945 13.8908L24.8924 13.9314L26.3884 16.1771C26.4568 16.2798 26.5496 16.3641 26.6585 16.4224C26.7673 16.4807 26.8889 16.5112 27.0124 16.5113C27.0447 16.5112 27.077 16.5091 27.1091 16.505C27.2479 16.487 27.3789 16.4305 27.4872 16.3419C27.5956 16.2533 27.677 16.1362 27.7222 16.0038L28.5947 13.4504L31.1926 12.7216C31.3274 12.6838 31.4488 12.6091 31.5433 12.5059C31.6378 12.4026 31.7015 12.275 31.7272 12.1375C31.753 11.9999 31.7397 11.8579 31.6889 11.7275C31.6382 11.5971 31.5519 11.4835 31.44 11.3995V11.3996Z" fill="#F4C027"/>
<path d="M8.70927 10.5591L9.50421 7.98058C9.54543 7.84685 9.54842 7.70425 9.51284 7.56891C9.47725 7.43357 9.40451 7.31088 9.30284 7.21473C9.20117 7.11857 9.07462 7.05277 8.93751 7.02478C8.80039 6.99679 8.65818 7.00772 8.52696 7.05633L5.99677 7.99383L3.79052 6.44102C3.67608 6.36042 3.54136 6.31345 3.40161 6.30543C3.26186 6.29741 3.12266 6.32866 2.99975 6.39564C2.87684 6.46263 2.77513 6.56267 2.70612 6.68446C2.63711 6.80624 2.60356 6.94491 2.60927 7.08477L2.71896 9.78083L0.560269 11.3996C0.448316 11.4835 0.362086 11.5971 0.311328 11.7276C0.260571 11.858 0.247311 12 0.273047 12.1375C0.298784 12.2751 0.36249 12.4027 0.456963 12.5059C0.551437 12.6091 0.672908 12.6839 0.807644 12.7217L3.40558 13.4505L4.27789 16.0038C4.32314 16.1362 4.40454 16.2534 4.51289 16.3419C4.62123 16.4305 4.75219 16.487 4.89096 16.505C5.02974 16.5231 5.17079 16.5019 5.29817 16.444C5.42555 16.386 5.53418 16.2936 5.61177 16.1771L7.10777 13.9315L9.80564 13.8908C9.94557 13.8887 10.0821 13.8475 10.1998 13.7718C10.3176 13.6961 10.4118 13.589 10.4718 13.4626C10.5318 13.3362 10.5553 13.1955 10.5395 13.0565C10.5238 12.9174 10.4694 12.7855 10.3826 12.6758L8.70927 10.5591Z" fill="#F4C027"/>
<path d="M26.5 21.0001C26.5 20.6023 26.342 20.2208 26.0607 19.9395C25.7794 19.6582 25.3978 19.5001 25 19.5001H19.5V16.0626C19.5 15.1275 19.5 13.2632 17.0467 13.0251C16.9774 13.0186 16.9075 13.0267 16.8414 13.0488C16.7754 13.0708 16.7147 13.1065 16.6632 13.1534C16.6117 13.2003 16.5706 13.2574 16.5425 13.3211C16.5144 13.3849 16.4999 13.4537 16.5 13.5234V16.9211C16.5 17.0137 16.4743 17.1044 16.4258 17.1831L15 19.5001H15.0625L12 21.5001L11.75 25.0518L12 29.5001C12 30.0306 12.2107 30.5393 12.5858 30.9144C12.9609 31.2894 13.4696 31.5001 14 31.5001H24C24.3978 31.5001 24.7794 31.3421 25.0607 31.0608C25.342 30.7795 25.5 30.398 25.5 30.0001C25.5 29.6023 25.342 29.2208 25.0607 28.9395C24.7794 28.6582 24.3978 28.5001 24 28.5001H24.5C24.8978 28.5001 25.2794 28.3421 25.5607 28.0608C25.842 27.7795 26 27.398 26 27.0001C26 26.6023 25.842 26.2208 25.5607 25.9395C25.2794 25.6582 24.8978 25.5001 24.5 25.5001H25C25.3978 25.5001 25.7794 25.3421 26.0607 25.0608C26.342 24.7795 26.5 24.398 26.5 24.0001C26.5 23.6023 26.342 23.2208 26.0607 22.9395C25.7794 22.6582 25.3978 22.5001 25 22.5001C25.3978 22.5001 25.7794 22.3421 26.0607 22.0608C26.342 21.7795 26.5 21.398 26.5 21.0001Z" fill="#FEC9A3"/>
<path d="M11.25 19.5H6.25C5.83579 19.5 5.5 19.8358 5.5 20.25V30.75C5.5 31.1642 5.83579 31.5 6.25 31.5H11.25C11.6642 31.5 12 31.1642 12 30.75V20.25C12 19.8358 11.6642 19.5 11.25 19.5Z" fill="#4398D1"/>
<path d="M8.875 30.3125C9.28921 30.3125 9.625 29.9767 9.625 29.5625C9.625 29.1483 9.28921 28.8125 8.875 28.8125C8.46079 28.8125 8.125 29.1483 8.125 29.5625C8.125 29.9767 8.46079 30.3125 8.875 30.3125Z" fill="#BFE8E5"/>
</svg>
