<svg width="24" height="24" viewBox="0 0 24 24" fill="none" xmlns="http://www.w3.org/2000/svg">
<path fill-rule="evenodd" clip-rule="evenodd" d="M17.1538 4.38462H19.2308C19.5979 4.38498 19.9499 4.53097 20.2094 4.79056C20.469 5.05015 20.615 5.40212 20.6154 5.76923V19.6154C20.615 19.9825 20.469 20.3345 20.2094 20.5941C19.9499 20.8536 19.5979 20.9996 19.2308 21H5.38462C5.0175 20.9996 4.66553 20.8536 4.40594 20.5941C4.14636 20.3345 4.00036 19.9825 4 19.6154V5.76923C4.00036 5.40212 4.14636 5.05015 4.40594 4.79056C4.66553 4.53097 5.0175 4.38498 5.38462 4.38462H7.46154V3.69231C7.46154 3.5087 7.53448 3.33261 7.66431 3.20277C7.79414 3.07294 7.97023 3 8.15385 3C8.33746 3 8.51355 3.07294 8.64338 3.20277C8.77321 3.33261 8.84615 3.5087 8.84615 3.69231V4.38462H15.7692V3.69231C15.7692 3.5087 15.8422 3.33261 15.972 3.20277C16.1018 3.07294 16.2779 3 16.4615 3C16.6452 3 16.8212 3.07294 16.9511 3.20277C17.0809 3.33261 17.1538 3.5087 17.1538 3.69231V4.38462ZM5.38462 8.53846H19.2308V5.76923H17.1538V6.46154C17.1538 6.64515 17.0809 6.82124 16.9511 6.95107C16.8212 7.08091 16.6452 7.15385 16.4615 7.15385C16.2779 7.15385 16.1018 7.08091 15.972 6.95107C15.8422 6.82124 15.7692 6.64515 15.7692 6.46154V5.76923H8.84615V6.46154C8.84615 6.64515 8.77321 6.82124 8.64338 6.95107C8.51355 7.08091 8.33746 7.15385 8.15385 7.15385C7.97023 7.15385 7.79414 7.08091 7.66431 6.95107C7.53448 6.82124 7.46154 6.64515 7.46154 6.46154V5.76923H5.38462V8.53846ZM12.8205 17.6137C12.6687 17.7151 12.4903 17.7692 12.3077 17.7692C12.0629 17.7692 11.8281 17.672 11.655 17.4989C11.4819 17.3258 11.3846 17.091 11.3846 16.8462C11.3846 16.6636 11.4388 16.4851 11.5402 16.3333C11.6416 16.1815 11.7858 16.0632 11.9544 15.9933C12.1231 15.9235 12.3087 15.9052 12.4878 15.9408C12.6668 15.9764 12.8313 16.0643 12.9604 16.1934C13.0895 16.3225 13.1774 16.487 13.213 16.6661C13.2486 16.8451 13.2304 17.0307 13.1605 17.1994C13.0906 17.3681 12.9723 17.5122 12.8205 17.6137ZM17.4359 17.6137C17.2841 17.7151 17.1056 17.7692 16.9231 17.7692C16.6783 17.7692 16.4435 17.672 16.2704 17.4989C16.0973 17.3258 16 17.091 16 16.8462C16 16.6636 16.0541 16.4851 16.1556 16.3333C16.257 16.1815 16.4012 16.0632 16.5698 15.9933C16.7385 15.9235 16.9241 15.9052 17.1032 15.9408C17.2822 15.9764 17.4467 16.0643 17.5758 16.1934C17.7049 16.3225 17.7928 16.487 17.8284 16.6661C17.864 16.8451 17.8458 17.0307 17.7759 17.1994C17.706 17.3681 17.5877 17.5122 17.4359 17.6137ZM17.4359 13.9214C17.2841 14.0228 17.1056 14.0769 16.9231 14.0769C16.6783 14.0769 16.4435 13.9797 16.2704 13.8066C16.0973 13.6334 16 13.3987 16 13.1538C16 12.9713 16.0541 12.7928 16.1556 12.641C16.257 12.4892 16.4012 12.3709 16.5698 12.301C16.7385 12.2312 16.9241 12.2129 17.1032 12.2485C17.2822 12.2841 17.4467 12.372 17.5758 12.5011C17.7049 12.6302 17.7928 12.7947 17.8284 12.9738C17.864 13.1528 17.8458 13.3384 17.7759 13.5071C17.706 13.6758 17.5877 13.8199 17.4359 13.9214ZM12.8205 13.9214C12.6687 14.0228 12.4903 14.0769 12.3077 14.0769C12.0629 14.0769 11.8281 13.9797 11.655 13.8066C11.4819 13.6334 11.3846 13.3987 11.3846 13.1538C11.3846 12.9713 11.4388 12.7928 11.5402 12.641C11.6416 12.4892 11.7858 12.3709 11.9544 12.301C12.1231 12.2312 12.3087 12.2129 12.4878 12.2485C12.6668 12.2841 12.8313 12.372 12.9604 12.5011C13.0895 12.6302 13.1774 12.7947 13.213 12.9738C13.2486 13.1528 13.2304 13.3384 13.1605 13.5071C13.0906 13.6758 12.9723 13.8199 12.8205 13.9214ZM8.20514 13.9214C8.05334 14.0228 7.87488 14.0769 7.69231 14.0769C7.44749 14.0769 7.2127 13.9797 7.03959 13.8066C6.86648 13.6334 6.76923 13.3987 6.76923 13.1538C6.76923 12.9713 6.82337 12.7928 6.9248 12.641C7.02623 12.4892 7.17039 12.3709 7.33906 12.301C7.50773 12.2312 7.69333 12.2129 7.87239 12.2485C8.05145 12.2841 8.21593 12.372 8.34502 12.5011C8.47412 12.6302 8.56203 12.7947 8.59765 12.9738C8.63327 13.1528 8.61499 13.3384 8.54512 13.5071C8.47525 13.6758 8.35694 13.8199 8.20514 13.9214ZM8.20514 17.6137C8.05334 17.7151 7.87488 17.7692 7.69231 17.7692C7.44749 17.7692 7.2127 17.672 7.03959 17.4989C6.86648 17.3258 6.76923 17.091 6.76923 16.8462C6.76923 16.6636 6.82337 16.4851 6.9248 16.3333C7.02623 16.1815 7.17039 16.0632 7.33906 15.9933C7.50773 15.9235 7.69333 15.9052 7.87239 15.9408C8.05145 15.9764 8.21593 16.0643 8.34502 16.1934C8.47412 16.3225 8.56203 16.487 8.59765 16.6661C8.63327 16.8451 8.61499 17.0307 8.54512 17.1994C8.47525 17.3681 8.35694 17.5122 8.20514 17.6137Z" fill="#2B4798"/>
</svg>
