<svg width="16" height="17" viewBox="0 0 16 17" fill="none" xmlns="http://www.w3.org/2000/svg">
<path d="M7.99996 7.43005C7.11329 7.43005 5.33329 7.87672 5.33329 8.76339V8.87005C5.97996 9.61672 6.93329 10.0967 7.99996 10.0967C9.06663 10.0967 10.02 9.61672 10.6666 8.87005V8.76339C10.6666 7.87672 8.88663 7.43005 7.99996 7.43005ZM7.99996 6.76339C8.73329 6.76339 9.33329 6.16339 9.33329 5.43005C9.33329 4.69672 8.73329 4.09672 7.99996 4.09672C7.26663 4.09672 6.66663 4.69672 6.66663 5.43005C6.66663 6.16339 7.26663 6.76339 7.99996 6.76339ZM7.99996 1.43005C10.8 1.43005 13.3333 3.57672 13.3333 6.89672C13.3333 9.11005 11.5533 11.7301 7.99996 14.7634C4.44663 11.7301 2.66663 9.11005 2.66663 6.89672C2.66663 3.57672 5.19996 1.43005 7.99996 1.43005Z" fill="#C27BFA"/>
</svg>
