<svg width="25" height="24" viewBox="0 0 25 24" fill="none" xmlns="http://www.w3.org/2000/svg">
<path fill-rule="evenodd" clip-rule="evenodd" d="M9.83297 13.1174C8.04989 13.0935 6.64987 13.0415 6.53517 12.9614C6.35924 12.8384 6.44793 12.6931 6.64283 12.3737C7.02612 11.7455 7.82017 10.4442 7.82014 7.31651C7.82014 4.93258 9.75272 3 12.1367 3H12.2811C14.6651 3 16.5976 4.93258 16.5976 7.31651C16.5976 10.4442 17.3917 11.7455 17.775 12.3736C17.9699 12.6931 18.0586 12.8384 17.8826 12.9614C17.7679 13.0415 16.368 13.0935 14.5848 13.1174C13.9569 13.5336 13.1259 13.7891 12.2131 13.796V13.7963L12.2089 13.7961L12.2047 13.7963V13.796C11.292 13.789 10.4609 13.5336 9.83297 13.1174ZM15.0459 14.48C15.4358 14.7026 16.2817 15.1857 16.8073 15.3752C18.9527 16.1488 19.9177 16.9378 19.9177 17.4757V21H12.2089H4.5V17.4757C4.5 16.9378 5.46489 16.1488 7.61035 15.3752C8.13568 15.1857 8.98081 14.7032 9.371 14.4804C9.45555 14.4321 9.51873 14.3961 9.55268 14.3778C9.6021 14.3492 9.65932 14.3324 9.72063 14.3324C9.85437 14.3324 9.96947 14.4109 10.0231 14.5244C10.1719 14.7735 10.3565 15.1567 10.5603 15.5795C11.0782 16.6545 11.7196 17.9856 12.2089 18.0197C12.6982 17.9856 13.3397 16.6543 13.8576 15.5793C14.0613 15.1565 14.2459 14.7734 14.3946 14.5244C14.4482 14.4109 14.5633 14.3324 14.697 14.3324C14.7583 14.3324 14.8156 14.3492 14.865 14.3778C14.8988 14.396 14.9617 14.4319 15.0459 14.48Z" fill="#7A7F90"/>
</svg>
