<svg width="28" height="28" viewBox="0 0 28 28" fill="none" xmlns="http://www.w3.org/2000/svg">
<rect width="28" height="28" rx="6" fill="#2B4798"/>
<path d="M17.2214 19.9999C14.7767 19.9967 12.4331 19.0222 10.7044 17.2901C8.97573 15.558 8.00317 13.2096 8 10.76C8 10.028 8.2902 9.32603 8.80676 8.80844C9.32332 8.29085 10.0239 8.00007 10.7545 8.00007C10.9091 7.99889 11.0636 8.01296 11.2155 8.04207C11.3624 8.06385 11.5068 8.10002 11.6467 8.15007C11.745 8.18464 11.8326 8.24435 11.9009 8.32327C11.9692 8.40219 12.0157 8.4976 12.0359 8.60006L12.8562 12.2C12.8783 12.2977 12.8757 12.3994 12.8485 12.4959C12.8213 12.5923 12.7704 12.6803 12.7005 12.752C12.6227 12.836 12.6167 12.842 11.8802 13.226C12.47 14.5225 13.5048 15.5637 14.7963 16.1599C15.1855 15.416 15.1915 15.41 15.2753 15.332C15.3469 15.2619 15.4347 15.211 15.531 15.1837C15.6272 15.1565 15.7287 15.1538 15.8262 15.176L19.419 15.998C19.518 16.021 19.6095 16.0688 19.6849 16.1371C19.7603 16.2053 19.8172 16.2916 19.8501 16.3879C19.9007 16.5304 19.9387 16.6769 19.9639 16.8259C19.988 16.9767 20 17.1292 19.9998 17.2819C19.9888 18.0108 19.6904 18.7057 19.1699 19.2149C18.6493 19.7241 17.9489 20.0063 17.2214 19.9999Z" fill="white"/>
</svg>
