<svg width="32" height="32" viewBox="0 0 32 32" fill="none" xmlns="http://www.w3.org/2000/svg">
<g clip-path="url(#clip0)">
<path d="M14.3806 5.88867C14.2323 5.88867 14.086 5.82061 13.9913 5.69192C13.5521 5.0953 12.7708 4.41086 11.5412 4.54217C10.0936 4.69636 9.01864 4.23567 8.37164 3.82211C8.14695 3.67849 8.08126 3.37992 8.22483 3.15524C8.36839 2.93049 8.66708 2.86486 8.8917 3.00843C9.40851 3.33867 10.27 3.70661 11.439 3.58186C13.2132 3.39349 14.2869 4.46424 14.7691 5.11955C14.9271 5.3343 14.8811 5.63661 14.6663 5.79467C14.5801 5.85805 14.48 5.88867 14.3806 5.88867Z" fill="#FFD064"/>
<path d="M9.32529 8.45286C9.23911 8.45286 9.15198 8.42986 9.07311 8.38142C8.84579 8.24192 8.77473 7.94461 8.91423 7.7173C9.53317 6.70898 10.6674 6.01599 12.1944 5.71324C13.3078 5.49255 14.242 5.55299 14.2811 5.55574C14.5472 5.57399 14.748 5.80442 14.7298 6.07048C14.7115 6.33636 14.4805 6.53573 14.2156 6.51923C14.1821 6.51698 10.9034 6.32261 9.73723 8.22248C9.64611 8.37104 9.48754 8.45286 9.32529 8.45286Z" fill="#FFD064"/>
<path d="M16.6033 26.9548C24.5334 26.9548 28.9183 15.3229 16.3954 6.339C16.084 6.1155 15.8989 5.75569 15.9031 5.37231C15.9066 5.0555 16.007 4.74794 16.1886 4.48838C16.7749 3.65119 17.6188 2.21906 18.1248 1.06556C18.246 0.789312 18.0726 0.492188 17.7484 0.492188C16.9962 0.49225 16.9962 0 16.244 0C15.4918 0 15.4918 0.49225 14.7396 0.49225C14.0986 0.49225 13.8356 -0.05925 13.5239 0.341875C12.6151 1.51162 15.7281 5.62519 15.7281 5.62519C1.9797 14.6633 6.41264 26.9549 14.5299 26.9549H16.6033V26.9548Z" fill="#EABC6B"/>
<path d="M19.7208 5.62512C19.7208 5.62512 22.88 1.52488 21.9716 0.348687C21.6619 -0.0521875 21.3979 0.49225 20.7576 0.49225C20.0053 0.492188 20.0053 0 19.253 0C18.5008 0 18.5008 0.492188 17.7485 0.492188C17.7114 0.492188 17.6776 0.490125 17.6441 0.487812C17.3418 1.78344 15.9798 3.80188 15.2003 4.88263C15.5073 5.33306 15.7283 5.62506 15.7283 5.62506C15.5449 5.74563 15.3654 5.86688 15.1884 5.98856C28.3241 15.0173 23.9289 26.9548 15.8953 26.9548H20.9677C29.1095 26.9548 33.515 14.6933 19.7208 5.62512Z" fill="#E8AE4D"/>
<path d="M20.3085 7.08304C18.4728 7.54667 16.6593 7.54667 14.8233 7.08304C14.1843 6.92167 13.822 6.20311 14.052 5.54992C14.0545 5.54261 14.0571 5.53529 14.0597 5.52798C14.2525 4.98036 14.7993 4.67305 15.3352 4.80761C16.8383 5.18498 18.293 5.18511 19.7965 4.80761C20.3325 4.67305 20.8793 4.98036 21.0721 5.52798C21.0746 5.53529 21.0772 5.54261 21.0798 5.54992C21.3098 6.20311 20.9475 6.92167 20.3085 7.08304Z" fill="#FFE07D"/>
<path d="M3.04824 29.0635L10.0392 31.6656C10.633 31.8866 11.2614 31.9998 11.895 31.9998H19.0997C20.108 31.9998 21.0955 31.7133 21.9472 31.1736L30.9682 25.4573C31.5634 24.9288 31.6737 24.0407 31.226 23.3826C30.7361 22.6626 29.9256 22.5375 29.0338 22.9592L20.2509 26.8263L20.2613 25.4014C20.145 24.2318 19.2444 23.2931 18.0807 23.1285L12.7322 22.5126C11.4984 22.3381 10.8819 21.9246 9.80624 21.2954C8.3378 20.4364 6.66718 19.9836 4.96593 19.9836H3.04824V29.0635Z" fill="#FFDDCE"/>
<path d="M9.61468 30.2791C10.2389 30.5114 10.8996 30.6304 11.5656 30.6304H19.1397C19.9461 30.6304 20.7396 30.4556 21.4674 30.1225L26.7636 26.7665C27.2556 26.4546 27.568 25.9119 27.552 25.3296C27.5435 25.0208 27.4491 24.7116 27.2642 24.4399C27.2642 24.4399 27.1029 24.1636 26.9372 23.8823L20.2509 26.8263L20.2613 25.4014C20.145 24.2318 19.2444 23.2931 18.0807 23.1285L12.7322 22.5126C11.4984 22.3381 10.8819 21.9246 9.80624 21.2954C8.3378 20.4364 6.66718 19.9836 4.96593 19.9836H3.04824V27.835L9.61468 30.2791Z" fill="#FFDDCE"/>
<path d="M31.2259 23.3824C30.736 22.6624 29.9256 22.5373 29.0337 22.959L26.6179 24.0227C26.7349 24.2079 26.828 24.3557 26.828 24.3557C27.2757 25.0137 27.1654 25.9019 26.5702 26.4304L21.3138 29.7611C20.6215 30.0781 19.8667 30.2443 19.0996 30.2443H11.895C11.2614 30.2443 10.633 30.1311 10.0392 29.9101L3.04824 27.3079V29.0632L10.0392 31.6654C10.633 31.8864 11.2614 31.9996 11.895 31.9996H17.7814H19.0998C20.1081 31.9996 21.0956 31.7131 21.9472 31.1734L30.9683 25.4571C31.5634 24.9286 31.6737 24.0404 31.2259 23.3824Z" fill="#FFCBBE"/>
<path d="M19.6055 23.9341L19.6052 23.9685L19.6279 23.9585C19.6205 23.9502 19.6129 23.9423 19.6055 23.9341Z" fill="#F5DBCC"/>
<path d="M20.2511 26.8249H14.7899C14.5232 26.8249 14.3071 26.6088 14.3071 26.342C14.3071 26.0753 14.5232 25.8591 14.7899 25.8591H20.2582L20.2511 26.8249Z" fill="#FFCBBE"/>
<path d="M4.55265 30.4562C4.55265 30.9634 4.14147 31.3746 3.63422 31.3746H1.41759C0.910341 31.3746 0.499153 30.9634 0.499153 30.4562V19.2102C0.499153 18.7029 0.910341 18.2917 1.41759 18.2917H3.63422C4.14147 18.2917 4.55265 18.7029 4.55265 19.2102V30.4562Z" fill="#405593"/>
</g>
<defs>
<clipPath id="clip0">
<rect width="32" height="32" fill="white"/>
</clipPath>
</defs>
</svg>
