<svg width="16" height="16" viewBox="0 0 16 16" fill="none" xmlns="http://www.w3.org/2000/svg">
<path d="M13.4545 2.66699H2.54537C1.87871 2.66699 1.33325 3.21245 1.33325 3.87911V11.1518C1.33325 11.8185 1.87871 12.364 2.54537 12.364H5.57568V12.97C5.57568 13.3034 5.8484 13.5761 6.18174 13.5761H9.8181C10.1514 13.5761 10.4242 13.3034 10.4242 12.97V12.364H13.4545C14.1211 12.364 14.6605 11.8185 14.6605 11.1518L14.6666 3.87911C14.6666 3.20639 14.1211 2.66699 13.4545 2.66699ZM12.8484 11.1518H3.15143C2.8181 11.1518 2.54537 10.8791 2.54537 10.5458V4.48517C2.54537 4.15184 2.8181 3.87911 3.15143 3.87911H12.8484C13.1817 3.87911 13.4545 4.15184 13.4545 4.48517V10.5458C13.4545 10.8791 13.1817 11.1518 12.8484 11.1518ZM9.50295 8.04275L7.09083 9.42457C6.68477 9.65487 6.18174 9.3579 6.18174 8.89729V6.13366C6.18174 5.66699 6.68477 5.37608 7.09083 5.60639L9.50295 6.9882C9.90901 7.22457 9.90901 7.80639 9.50295 8.04275Z" fill="#7BDBFA"/>
</svg>
