<svg width="64" height="64" viewBox="0 0 64 64" fill="none" xmlns="http://www.w3.org/2000/svg">
<g clip-path="url(#clip0)">
<path d="M53.8948 14.7831V13.5878C53.8948 10.524 51.3988 8.01709 48.3481 8.01709H31.7303C28.6796 8.01709 26.1836 10.524 26.1836 13.5878V14.7831H53.8948Z" fill="#3F538E"/>
<path d="M38.9807 8.01709H31.7303C28.6796 8.01709 26.1836 10.524 26.1836 13.5878V14.7831H33.434V13.5878C33.4338 10.524 35.93 8.01709 38.9807 8.01709Z" fill="#36487D"/>
<path d="M17.0559 22.4907V50.3917C17.0559 52.3555 15.4491 53.9622 13.4854 53.9622H60.4292C62.393 53.9622 63.9997 52.3555 63.9997 50.3917V22.4907H17.0559Z" fill="#3F538E"/>
<path d="M23.9567 50.3918V22.4907H17.0559V50.3917C17.0559 52.3555 15.4491 53.9622 13.4854 53.9622H20.3862C22.35 53.9623 23.9567 52.3556 23.9567 50.3918Z" fill="#36487D"/>
<path d="M60.4292 14.7539H13.4854C15.4492 14.7539 17.0559 16.3607 17.0559 18.3244V22.7483H63.9997V18.3244C63.9997 16.3607 62.3931 14.7539 60.4292 14.7539Z" fill="#B5DCFF"/>
<path d="M60.4292 14.7539H13.4854C15.4492 14.7539 17.0559 16.3607 17.0559 18.3244V22.7483H63.9997V18.3244C63.9997 16.3607 62.3931 14.7539 60.4292 14.7539Z" fill="#D6E3F9"/>
<path d="M20.3862 14.7539H13.4854C15.4492 14.7539 17.0559 16.3607 17.0559 18.3244V22.7483H23.9567V18.3244C23.9567 16.3607 22.35 14.7539 20.3862 14.7539Z" fill="#8BB6FF"/>
<path d="M11.8011 9.68604H5.51336C4.62411 9.68604 3.89648 10.4168 3.89648 11.3099V13.1593C3.89648 14.0524 4.62411 14.7832 5.51336 14.7832H11.8011C12.6904 14.7832 13.418 14.0524 13.418 13.1593V11.3099C13.4179 10.4168 12.6904 9.68604 11.8011 9.68604Z" fill="#475D9E"/>
<path d="M8.65723 13.1593V11.3099C8.65723 10.4168 9.38486 9.68604 10.2741 9.68604H5.51336C4.62411 9.68604 3.89648 10.4168 3.89648 11.3099V13.1593C3.89648 14.0524 4.62411 14.7832 5.51336 14.7832H10.2741C9.38474 14.7832 8.65723 14.0524 8.65723 13.1593Z" fill="#3F538E"/>
<path d="M0 22.4907V50.3917C0 52.3555 1.60675 53.9622 3.5705 53.9622H13.7431C15.7069 53.9622 17.3136 52.3555 17.3136 50.3917V22.4907H0Z" fill="#475D9E"/>
<path d="M6.46187 50.3918V22.4907H0V50.3917C0 52.3555 1.60675 53.9622 3.5705 53.9622H10.0324C8.06863 53.9623 6.46187 52.3556 6.46187 50.3918Z" fill="#3F538E"/>
<path d="M13.7431 14.7539H3.5705C1.60675 14.7539 0 16.3607 0 18.3244V22.7483H17.3137V18.3244C17.3137 16.3607 15.707 14.7539 13.7431 14.7539Z" fill="#DBE4FF"/>
<path d="M10.0324 14.7539H3.5705C1.60675 14.7539 0 16.3607 0 18.3244V22.7483H6.46187V18.3244C6.46187 16.3607 8.06863 14.7539 10.0324 14.7539Z" fill="#B5C8FF"/>
<path d="M40.039 55.9833C29.7616 55.9833 21.4004 47.6221 21.4004 37.3447C21.4004 27.0673 29.7616 18.7061 40.039 18.7061C50.3164 18.7061 58.6776 27.0673 58.6776 37.3447C58.6776 47.6221 50.3163 55.9833 40.039 55.9833Z" fill="#36487D"/>
<path d="M27.6585 37.3447C27.6585 28.1336 34.3754 20.4628 43.168 18.9702C42.1503 18.7974 41.1052 18.7061 40.039 18.7061C29.7616 18.7061 21.4004 27.0673 21.4004 37.3447C21.4004 47.6221 29.7616 55.9833 40.039 55.9833C41.1053 55.9833 42.1504 55.8921 43.168 55.7193C34.3754 54.2266 27.6585 46.5558 27.6585 37.3447Z" fill="#293864"/>
<path d="M50.3508 47.6649C56.0502 41.9655 56.0502 32.7249 50.3508 27.0255C44.6514 21.3261 35.4108 21.3261 29.7113 27.0255C24.0119 32.7249 24.0119 41.9655 29.7113 47.6649C35.4108 53.3644 44.6514 53.3644 50.3508 47.6649Z" fill="#7F9EFA"/>
<path d="M31.7005 37.3449C31.7005 30.3703 36.6181 24.5235 43.1679 23.0873C42.1595 22.8662 41.1126 22.7485 40.0389 22.7485C31.9903 22.7485 25.4424 29.2965 25.4424 37.345C25.4424 45.3935 31.9904 51.9415 40.0389 51.9415C41.1127 51.9415 42.1595 51.8239 43.1679 51.6028C36.6181 50.1663 31.7005 44.3195 31.7005 37.3449Z" fill="#6488F4"/>
<path d="M46.3565 43.6707C49.85 40.1773 49.85 34.5132 46.3565 31.0197C42.863 27.5262 37.1989 27.5262 33.7054 31.0197C30.2119 34.5132 30.2119 40.1772 33.7054 43.6707C37.1989 47.1642 42.863 47.1642 46.3565 43.6707Z" fill="#6488F4"/>
<path d="M37.3499 37.3449C37.3499 33.5119 39.7733 30.2353 43.1679 28.9638C42.1933 28.5988 41.1393 28.3979 40.0388 28.3979C35.1054 28.3979 31.0918 32.4116 31.0918 37.3449C31.0918 42.2783 35.1054 46.292 40.0388 46.292C41.1392 46.292 42.1933 46.0911 43.1679 45.7261C39.7733 44.4546 37.3499 41.1779 37.3499 37.3449Z" fill="#3D64D8"/>
<path d="M41.959 39.2729C43.0236 38.2083 43.0236 36.4821 41.959 35.4175C40.8943 34.3528 39.1682 34.3528 38.1035 35.4175C37.0389 36.4821 37.0389 38.2083 38.1035 39.2729C39.1682 40.3376 40.8943 40.3376 41.959 39.2729Z" fill="#9CB4FA"/>
<path d="M40.0391 37.3448C40.0391 36.3382 40.5889 35.4594 41.4025 34.987C41.0009 34.7539 40.536 34.6182 40.0391 34.6182C38.5356 34.6182 37.3125 35.8413 37.3125 37.3448C37.3125 38.8483 38.5357 40.0714 40.0391 40.0714C40.536 40.0714 41.0009 39.9357 41.4025 39.7024C40.5889 39.2302 40.0391 38.3514 40.0391 37.3448Z" fill="#7F9EFA"/>
</g>
<defs>
<clipPath id="clip0">
<rect width="64" height="64" fill="white"/>
</clipPath>
</defs>
</svg>
