<svg width="24" height="24" viewBox="0 0 24 24" fill="none" xmlns="http://www.w3.org/2000/svg">
<path fill-rule="evenodd" clip-rule="evenodd" d="M4.22222 12C4.22222 7.70445 7.70445 4.22222 12 4.22222C16.2955 4.22222 19.7778 7.70445 19.7778 12C19.7778 16.2955 16.2955 19.7778 12 19.7778C7.70445 19.7778 4.22222 16.2955 4.22222 12ZM12 2C6.47715 2 2 6.47715 2 12C2 17.5228 6.47715 22 12 22C17.5228 22 22 17.5228 22 12C22 6.47715 17.5228 2 12 2ZM13.111 6.81479C13.111 6.20114 12.6135 5.70368 11.9999 5.70368C11.3862 5.70368 10.8888 6.20114 10.8888 6.81479V12C10.8888 12.6136 11.3862 13.1111 11.9999 13.1111H17.1851C17.7987 13.1111 18.2962 12.6136 18.2962 12C18.2962 11.3863 17.7987 10.8889 17.1851 10.8889H13.111V6.81479Z" fill="#ADB3BE"/>
</svg>
