<svg width="32" height="32" viewBox="0 0 32 32" fill="none" xmlns="http://www.w3.org/2000/svg">
<g clip-path="url(#clip0)">
<path d="M14.3807 5.88892C14.2324 5.88892 14.0861 5.82085 13.9914 5.69217C13.5523 5.09554 12.7709 4.41111 11.5413 4.54242C10.0938 4.69661 9.01878 4.23592 8.37178 3.82236C8.14709 3.67873 8.0814 3.38017 8.22496 3.15548C8.36853 2.93073 8.66721 2.86511 8.89184 3.00867C9.40865 3.33892 10.2701 3.70686 11.4391 3.58211C13.2133 3.39373 14.287 4.46448 14.7692 5.11979C14.9273 5.33454 14.8813 5.63685 14.6665 5.79492C14.5803 5.85829 14.4801 5.88892 14.3807 5.88892Z" fill="#FFD064"/>
<path d="M9.32551 8.4531C9.23932 8.4531 9.1522 8.4301 9.07332 8.38166C8.84601 8.24216 8.77495 7.94485 8.91445 7.71754C9.53338 6.70923 10.6676 6.01623 12.1946 5.71348C13.308 5.49279 14.2422 5.55323 14.2813 5.55598C14.5474 5.57423 14.7483 5.80467 14.73 6.07073C14.7118 6.3366 14.4808 6.53598 14.2158 6.51948C14.1823 6.51723 10.9036 6.32285 9.73745 8.22273C9.64632 8.37129 9.48776 8.4531 9.32551 8.4531Z" fill="#FFD064"/>
<path d="M16.6034 26.9548C24.5334 26.9548 28.9183 15.3229 16.3955 6.339C16.084 6.1155 15.899 5.75569 15.9032 5.37231C15.9066 5.0555 16.007 4.74794 16.1887 4.48838C16.7749 3.65119 17.6188 2.21906 18.1249 1.06556C18.2461 0.789312 18.0726 0.492188 17.7484 0.492188C16.9962 0.49225 16.9962 0 16.2441 0C15.4919 0 15.4919 0.49225 14.7396 0.49225C14.0986 0.49225 13.8356 -0.05925 13.524 0.341875C12.6151 1.51162 15.7281 5.62519 15.7281 5.62519C1.97974 14.6633 6.41267 26.9549 14.5299 26.9549H16.6034V26.9548Z" fill="#EABC6B"/>
<path d="M19.7209 5.62512C19.7209 5.62512 22.88 1.52488 21.9716 0.348687C21.662 -0.0521875 21.398 0.49225 20.7577 0.49225C20.0054 0.492188 20.0054 0 19.253 0C18.5008 0 18.5008 0.492188 17.7485 0.492188C17.7115 0.492188 17.6777 0.490125 17.6441 0.487812C17.3419 1.78344 15.9798 3.80188 15.2004 4.88263C15.5073 5.33306 15.7283 5.62506 15.7283 5.62506C15.5449 5.74563 15.3654 5.86688 15.1885 5.98856C28.3242 15.0173 23.9289 26.9548 15.8954 26.9548H20.9677C29.1095 26.9548 33.515 14.6933 19.7209 5.62512Z" fill="#E8AE4D"/>
<path d="M20.3084 7.0828C18.4728 7.54642 16.6592 7.54642 14.8232 7.0828C14.1842 6.92142 13.822 6.20286 14.0519 5.54967C14.0545 5.54236 14.057 5.53505 14.0596 5.52774C14.2524 4.98011 14.7992 4.6728 15.3351 4.80736C16.8383 5.18474 18.2929 5.18486 19.7964 4.80736C20.3324 4.6728 20.8792 4.98011 21.072 5.52774C21.0746 5.53505 21.0771 5.54236 21.0797 5.54967C21.3097 6.20286 20.9474 6.92142 20.3084 7.0828Z" fill="#FFE07D"/>
<path d="M3.04834 29.0637L10.0393 31.6658C10.6331 31.8868 11.2615 32 11.8951 32H19.0998C20.1081 32 21.0956 31.7135 21.9473 31.1738L30.9683 25.4576C31.5635 24.9291 31.6738 24.0409 31.2261 23.3829C30.7362 22.6629 29.9257 22.5378 29.0339 22.9594L20.251 26.8266L20.2614 25.4016C20.1451 24.232 19.2445 23.2933 18.0808 23.1287L12.7323 22.5129C11.4985 22.3383 10.882 21.9248 9.80634 21.2956C8.3379 20.4366 6.66728 19.9839 4.96603 19.9839H3.04834V29.0637Z" fill="#FFDDCE"/>
<path d="M9.61478 30.2793C10.239 30.5116 10.8997 30.6306 11.5657 30.6306H19.1398C19.9462 30.6306 20.7397 30.4559 21.4675 30.1227L26.7637 26.7667C27.2557 26.4549 27.5681 25.9121 27.5521 25.3298C27.5436 25.021 27.4492 24.7119 27.2643 24.4401C27.2643 24.4401 27.103 24.1638 26.9373 23.8826L20.251 26.8266L20.2614 25.4016C20.1451 24.232 19.2445 23.2933 18.0808 23.1287L12.7323 22.5129C11.4985 22.3383 10.882 21.9248 9.80634 21.2956C8.3379 20.4366 6.66728 19.9839 4.96603 19.9839H3.04834V27.8352L9.61478 30.2793Z" fill="#FFDDCE"/>
<path d="M31.226 23.3824C30.7361 22.6624 29.9257 22.5373 29.0338 22.959L26.618 24.0227C26.735 24.2079 26.8281 24.3557 26.8281 24.3557C27.2758 25.0137 27.1655 25.9019 26.5703 26.4304L21.3139 29.7611C20.6216 30.0781 19.8668 30.2443 19.0997 30.2443H11.8951C11.2615 30.2443 10.6331 30.1311 10.0393 29.9101L3.04834 27.3079V29.0632L10.0393 31.6654C10.6331 31.8864 11.2615 31.9996 11.8951 31.9996H17.7815H19.0999C20.1082 31.9996 21.0957 31.7131 21.9473 31.1734L30.9684 25.4571C31.5635 24.9286 31.6738 24.0404 31.226 23.3824Z" fill="#FFCBBE"/>
<path d="M19.6055 23.9341L19.6052 23.9685L19.6279 23.9585C19.6205 23.9502 19.6129 23.9423 19.6055 23.9341Z" fill="#F5DBCC"/>
<path d="M20.2512 26.8251H14.79C14.5233 26.8251 14.3071 26.609 14.3071 26.3422C14.3071 26.0755 14.5233 25.8594 14.79 25.8594H20.2583L20.2512 26.8251Z" fill="#FFCBBE"/>
<path d="M4.55277 30.4564C4.55277 30.9637 4.14158 31.3749 3.63433 31.3749H1.41771C0.910455 31.3749 0.499268 30.9637 0.499268 30.4564V19.2104C0.499268 18.7032 0.910455 18.292 1.41771 18.292H3.63433C4.14158 18.292 4.55277 18.7032 4.55277 19.2104V30.4564Z" fill="#405593"/>
</g>
<defs>
<clipPath id="clip0">
<rect width="32" height="32" fill="white"/>
</clipPath>
</defs>
</svg>
