<svg width="16" height="16" viewBox="0 0 16 16" fill="none" xmlns="http://www.w3.org/2000/svg">
<path fill-rule="evenodd" clip-rule="evenodd" d="M5.85611 3.11495C4.81382 3.57303 3.94603 4.35491 3.38009 5.33325H5.09364C5.22478 4.6977 5.40238 4.11539 5.6193 3.60875C5.69256 3.43764 5.77146 3.27246 5.85611 3.11495ZM4.89558 6.66658H2.83461C2.72492 7.09274 2.66659 7.53952 2.66659 7.99992C2.66659 8.46032 2.72492 8.90709 2.83461 9.33325H4.89558C4.85459 8.90173 4.83325 8.4555 4.83325 7.9999C4.83325 7.54432 4.85459 7.0981 4.89558 6.66658ZM6.23556 9.33325C6.19074 8.90893 6.16659 8.46239 6.16659 7.9999C6.16659 7.53743 6.19074 7.0909 6.23556 6.66658H9.76428C9.8091 7.0909 9.83325 7.53743 9.83325 7.9999C9.83325 8.46239 9.8091 8.90893 9.76427 9.33325H6.23556ZM5.09364 10.6666H3.38009C3.94603 11.6449 4.81383 12.4268 5.85614 12.8849C5.77148 12.7274 5.69256 12.5622 5.6193 12.3911C5.40238 11.8844 5.22479 11.3021 5.09364 10.6666ZM10.1437 12.8849C11.186 12.4268 12.0538 11.6449 12.6197 10.6666H10.9062C10.775 11.3021 10.5975 11.8844 10.3805 12.3911C10.3073 12.5622 10.2284 12.7274 10.1437 12.8849ZM9.54074 10.6666C9.43495 11.1137 9.30421 11.5174 9.15483 11.8663C8.94976 12.3452 8.72269 12.6902 8.50451 12.9057C8.28918 13.1184 8.11943 13.1722 7.99992 13.1722C7.88041 13.1722 7.71065 13.1184 7.49532 12.9057C7.27714 12.6902 7.05008 12.3452 6.84501 11.8663C6.69563 11.5174 6.56489 11.1137 6.45909 10.6666H9.54074ZM11.1043 9.33325H13.1652C13.2749 8.90709 13.3333 8.46032 13.3333 7.99992C13.3333 7.53952 13.2749 7.09274 13.1652 6.66658H11.1043C11.1452 7.0981 11.1666 7.54432 11.1666 7.9999C11.1666 8.4555 11.1452 8.90173 11.1043 9.33325ZM10.9062 5.33325H12.6197C12.0538 4.35491 11.186 3.57303 10.1437 3.11495C10.2284 3.27246 10.3073 3.43765 10.3805 3.60875C10.5975 4.11539 10.7751 4.6977 10.9062 5.33325ZM9.54075 5.33325H6.45909C6.56488 4.88613 6.69563 4.48244 6.84501 4.13355C7.05008 3.6546 7.27714 3.30963 7.49532 3.0941C7.71065 2.88138 7.88041 2.82764 7.99992 2.82764C8.11943 2.82764 8.28918 2.88138 8.50451 3.0941C8.72269 3.30963 8.94976 3.6546 9.15483 4.13355C9.30421 4.48244 9.43495 4.88613 9.54075 5.33325ZM7.99992 1.33325C4.31802 1.33325 1.33325 4.31802 1.33325 7.99992C1.33325 11.6818 4.31802 14.6666 7.99992 14.6666C11.6818 14.6666 14.6666 11.6818 14.6666 7.99992C14.6666 4.31802 11.6818 1.33325 7.99992 1.33325Z" fill="white"/>
</svg>
