<svg width="24" height="24" viewBox="0 0 24 24" fill="none" xmlns="http://www.w3.org/2000/svg">
<path d="M21.7192 20.3109L18.0114 16.6309C19.4506 14.8353 20.1476 12.5562 19.959 10.2622C19.7705 7.9682 18.7106 5.83368 16.9975 4.29754C15.2844 2.76141 13.0481 1.94041 10.7486 2.00337C8.44911 2.06633 6.26109 3.00846 4.63448 4.63604C3.00786 6.26362 2.06629 8.45294 2.00337 10.7538C1.94045 13.0547 2.76095 15.2923 4.29618 17.0064C5.83141 18.7206 7.96466 19.781 10.2573 19.9697C12.5499 20.1584 14.8277 19.461 16.6222 18.0209L20.3 21.7009C20.3929 21.7946 20.5035 21.869 20.6253 21.9198C20.747 21.9706 20.8777 21.9967 21.0096 21.9967C21.1415 21.9967 21.2722 21.9706 21.3939 21.9198C21.5157 21.869 21.6263 21.7946 21.7192 21.7009C21.8993 21.5144 22 21.2652 22 21.0059C22 20.7466 21.8993 20.4974 21.7192 20.3109ZM11.0155 18.0209C9.63189 18.0209 8.27932 17.6104 7.12886 16.8412C5.9784 16.072 5.08172 14.9788 4.55223 13.6997C4.02273 12.4206 3.88419 11.0131 4.15412 9.65527C4.42406 8.2974 5.09035 7.05012 6.06873 6.07115C7.04712 5.09219 8.29366 4.4255 9.65072 4.1554C11.0078 3.88531 12.4144 4.02393 13.6927 4.55374C14.9711 5.08356 16.0637 5.98076 16.8324 7.13191C17.6011 8.28305 18.0114 9.63643 18.0114 11.0209C18.0114 12.8774 17.2743 14.6579 15.9623 15.9706C14.6504 17.2834 12.871 18.0209 11.0155 18.0209Z" fill="#7A7F90"/>
</svg>
