<svg width="32" height="32" viewBox="0 0 32 32" fill="none" xmlns="http://www.w3.org/2000/svg">
<g clip-path="url(#clip0)">
<path d="M24.1686 0.96675H22.7242C22.7242 0.432938 22.2915 0 21.7574 0H4.94282C4.40895 0 3.97607 0.432813 3.97607 0.96675V26.6604C3.97607 27.1943 4.40895 27.6271 4.94282 27.6271C23.2718 27.6271 21.8433 27.6835 22.1589 27.539C22.4036 27.427 22.5932 27.2162 22.6769 26.9576H24.1686C24.1686 26.7721 24.1686 1.32906 24.1686 0.96675Z" fill="#60B7FF"/>
<path d="M23.7673 0H21.7576C22.2915 0 22.7243 0.432813 22.7243 0.96675V26.6604C22.7243 27.1943 22.2915 27.6271 21.7576 27.6271H23.7673C24.3012 27.6271 24.734 27.1943 24.734 26.6604V0.96675C24.734 0.432813 24.3012 0 23.7673 0V0Z" fill="#26A6FE"/>
<path d="M24.7338 6.62254L20.2685 2.15723H6.82508C6.08708 2.15723 5.48877 2.75554 5.48877 3.49354V27.3869C5.48877 27.469 5.49727 27.549 5.51146 27.627H23.767C24.301 27.627 24.7338 27.1942 24.7338 26.6603V6.62254Z" fill="#26A6FE"/>
<path d="M26.3183 6.87141L24.0525 5.45666L22.0963 2.15723H8.65296C7.91496 2.15723 7.31665 2.75554 7.31665 3.49354V27.3869C7.31665 28.1249 7.91496 28.7232 8.65296 28.7232H26.2924C26.3012 28.7232 26.3096 28.7221 26.3183 28.7219V6.87141Z" fill="#EAF6FF"/>
<path d="M27.6296 7.68963L25.62 6.43481V27.387C25.62 28.125 25.0217 28.7233 24.2837 28.7233H26.2934C27.0314 28.7233 27.6297 28.125 27.6297 27.387V7.68963H27.6296Z" fill="#D8ECFE"/>
<path d="M23.4327 7.6896H27.6288L22.0964 2.15723V6.35329C22.0964 7.09129 22.6947 7.6896 23.4327 7.6896Z" fill="#B3DAFE"/>
<path d="M24.4224 10.718H10.5246C10.2576 10.718 10.0413 10.5015 10.0413 10.2346C10.0413 9.96766 10.2576 9.75122 10.5246 9.75122H24.4224C24.6894 9.75122 24.9058 9.96766 24.9058 10.2346C24.9058 10.5015 24.6894 10.718 24.4224 10.718Z" fill="#82AEE3"/>
<path d="M24.4224 13.9162H10.5246C10.2576 13.9162 10.0413 13.6998 10.0413 13.4328C10.0413 13.1659 10.2576 12.9495 10.5246 12.9495H24.4224C24.6894 12.9495 24.9058 13.1659 24.9058 13.4328C24.9058 13.6998 24.6894 13.9162 24.4224 13.9162Z" fill="#82AEE3"/>
<path d="M29.689 16.0003H28.6414C28.4171 15.6125 27.9978 15.3524 27.5251 15.3524C26.862 15.3524 12.2301 15.3524 11.2973 15.3524L9.60046 12.5449H8.57183C8.39114 12.3033 8.10571 12.157 7.79808 12.157H2.14302C1.60908 12.157 1.17627 12.5899 1.17627 13.1237V30.7112C1.17627 31.4232 1.75339 32.0002 2.46527 32.0002H27.5251C27.738 32.0002 27.9544 31.9451 28.1458 31.8393H28.1483C28.3108 31.7494 28.4513 31.625 28.5611 31.4766H29.689V16.0003H29.689Z" fill="#FDB441"/>
<path d="M8.65564 12.6755L10.0563 15.3524H12.066L10.6653 12.6755C10.4985 12.3567 10.1685 12.157 9.80876 12.157H7.79907C8.15882 12.157 8.48882 12.3567 8.65564 12.6755Z" fill="#FEA613"/>
<path d="M29.5348 15.3525H27.5251C28.2371 15.3525 28.8141 15.9297 28.8141 16.6415V30.7114C28.8141 31.4233 28.237 32.0004 27.5251 32.0004H29.5348C30.2467 32.0004 30.8238 31.4232 30.8238 30.7114V16.6416C30.8238 15.9297 30.2466 15.3525 29.5348 15.3525Z" fill="#FEA613"/>
</g>
<defs>
<clipPath id="clip0">
<rect width="32" height="32" fill="white"/>
</clipPath>
</defs>
</svg>
