<svg width="16" height="16" viewBox="0 0 16 16" fill="none" xmlns="http://www.w3.org/2000/svg">
<path d="M8.00003 14.6667C8.73337 14.6667 9.33337 14.0667 9.33337 13.3334H6.6667C6.6667 14.0667 7.26003 14.6667 8.00003 14.6667ZM12 10.6667V7.33342C12 5.28675 10.9067 3.57341 9.00003 3.12008V2.66675C9.00003 2.11341 8.55337 1.66675 8.00003 1.66675C7.4467 1.66675 7.00003 2.11341 7.00003 2.66675V3.12008C5.0867 3.57341 4.00003 5.28008 4.00003 7.33342V10.6667L3.14003 11.5267C2.72003 11.9467 3.01337 12.6667 3.6067 12.6667H12.3867C12.98 12.6667 13.28 11.9467 12.86 11.5267L12 10.6667Z" fill="white"/>
</svg>
