<svg width="24" height="24" viewBox="0 0 24 24" fill="none" xmlns="http://www.w3.org/2000/svg">
<path fill-rule="evenodd" clip-rule="evenodd" d="M3 12C3 7.032 7.032 3 12 3C16.968 3 21 7.032 21 12C21 16.968 16.968 21 12 21C7.032 21 3 16.968 3 12ZM4.8 12C4.8 15.978 8.022 19.2 12 19.2C15.978 19.2 19.2 15.978 19.2 12C19.2 8.022 15.978 4.8 12 4.8C8.022 4.8 4.8 8.022 4.8 12ZM16.5 12C16.5 14.4853 14.4853 16.5 12 16.5C9.51472 16.5 7.5 14.4853 7.5 12C7.5 9.51472 9.51472 7.5 12 7.5C14.4853 7.5 16.5 9.51472 16.5 12Z" fill="#78C6C2"/>
</svg>
