<svg width="24" height="24" viewBox="0 0 24 24" fill="none" xmlns="http://www.w3.org/2000/svg">
<path d="M18.1429 3H16.8571H16C14.7143 3 15.9919 3 14.9286 3H8.5C7.43671 3 8.71429 3 7.42857 3H6.57143H5.28571C4.57729 3 4 3.57729 4 4.28571V19.7143C4 20.4356 4.56443 21 5.28571 21H18.1429C18.8641 21 19.4286 20.4356 19.4286 19.7143V4.28571C19.4286 3.56443 18.8641 3 18.1429 3ZM11.5266 14.3837L8.95514 16.9551C8.82914 17.0799 8.66457 17.1429 8.5 17.1429C8.33543 17.1429 8.17086 17.0799 8.04486 16.9551L6.75914 15.6694C6.50843 15.4187 6.50843 15.0111 6.75914 14.7604C7.00986 14.5097 7.41743 14.5097 7.66814 14.7604L8.5 15.591L10.6163 13.4747C10.867 13.224 11.2746 13.224 11.5253 13.4747C11.776 13.7254 11.7773 14.1317 11.5266 14.3837ZM11.5266 9.24086L8.95514 11.8123C8.82914 11.937 8.66457 12 8.5 12C8.33543 12 8.17086 11.937 8.04486 11.8123L6.75914 10.5266C6.50843 10.2759 6.50843 9.86829 6.75914 9.61757C7.00986 9.36686 7.41743 9.36686 7.66814 9.61757L8.5 10.4481L10.6163 8.33186C10.867 8.08114 11.2746 8.08114 11.5253 8.33186C11.776 8.58257 11.7773 8.98886 11.5266 9.24086ZM16.2143 15.8571H13.6429C13.288 15.8571 13 15.5691 13 15.2143C13 14.8594 13.288 14.5714 13.6429 14.5714H16.2143C16.5691 14.5714 16.8571 14.8594 16.8571 15.2143C16.8571 15.5691 16.5691 15.8571 16.2143 15.8571ZM16.2143 10.7143H13.6429C13.288 10.7143 13 10.4263 13 10.0714C13 9.71657 13.288 9.42857 13.6429 9.42857H16.2143C16.5691 9.42857 16.8571 9.71657 16.8571 10.0714C16.8571 10.4263 16.5691 10.7143 16.2143 10.7143Z" fill="#2B4798"/>
</svg>
